SplineFontDB: 3.0
FontName: DKMotleyCrew-Regular
FullName: DK Motley Crew Regular
FamilyName: DK Motley Crew
Weight: Normal
Copyright: Copyright \\(c\\) 2016 by David Kerkhoff. All rights reserved.
Version: 001.001
ItalicAngle: 0
UnderlinePosition: 0
UnderlineWidth: 0
Ascent: 800
Descent: 200
InvalidEm: 0
sfntRevision: 0x00010000
LayerCount: 2
Layer: 0 0 "Back" 1
Layer: 1 0 "Fore" 0
XUID: [1021 745 -1031290411 11104887]
StyleMap: 0x0040
FSType: 260
OS2Version: 3
OS2_WeightWidthSlopeOnly: 0
OS2_UseTypoMetrics: 0
CreationTime: 1484592949
ModificationTime: 1486760534
PfmFamily: 81
TTFWeight: 400
TTFWidth: 5
LineGap: 23
VLineGap: 0
Panose: 0 0 0 0 0 0 0 0 0 0
OS2TypoAscent: 771
OS2TypoAOffset: 0
OS2TypoDescent: -219
OS2TypoDOffset: 0
OS2TypoLinegap: 46
OS2WinAscent: 890
OS2WinAOffset: 0
OS2WinDescent: 276
OS2WinDOffset: 0
HheadAscent: 890
HheadAOffset: 0
HheadDescent: -276
HheadDOffset: 0
OS2SubXSize: 700
OS2SubYSize: 650
OS2SubXOff: 0
OS2SubYOff: 140
OS2SupXSize: 700
OS2SupYSize: 650
OS2SupXOff: 0
OS2SupYOff: 477
OS2StrikeYSize: 50
OS2StrikeYPos: 250
OS2CapHeight: 719
OS2XHeight: 663
OS2Vendor: 'hano'
OS2CodePages: 20000093.cdd40000
OS2UnicodeRanges: 80000007.00000002.00000000.00000000
Lookup: 258 0 0 "'kern' Horizontal Kerning in Latin lookup 0" { "'kern' Horizontal Kerning in Latin lookup 0 per glyph data 0"  "'kern' Horizontal Kerning in Latin lookup 0 per glyph data 1"  "'kern' Horizontal Kerning in Latin lookup 0 kerning class 2"  "'kern' Horizontal Kerning in Latin lookup 0 kerning class 3"  } ['kern' ('latn' <'dflt' > ) ]
DEI: 91125
KernClass2: 42+ 46 "'kern' Horizontal Kerning in Latin lookup 0 kerning class 2"
 50 A Agrave Aacute Acircumflex Atilde Adieresis Aring
 1 B
 10 C Ccedilla
 1 D
 37 E Egrave Eacute Ecircumflex Edieresis
 1 G
 1 H
 1 I
 1 J
 1 K
 1 L
 8 N Ntilde
 51 O Ograve Oacute Ocircumflex Otilde Odieresis Oslash
 1 R
 8 dollar S
 1 T
 37 U Ugrave Uacute Ucircumflex Udieresis
 1 W
 18 Y Yacute Ydieresis
 1 Z
 2 AE

StartChar: .notdef
Encoding: 65536 -1 0
Width: 1030
Flags: W
LayerCount: 2
Fore
SplineSet
317 191 m 1
 442 243 l 1
 394 262 l 1
 148 386 l 1
 137 381 l 1
 127 379 l 1
 116 385 l 1
 111 392 l 1
 77 415 l 1
 36 437 l 1
 30 454 l 1
 36 475 l 1
 54 492 l 1
 76 499 l 1
 97 498 l 1
 114 491 l 1
 128 475 l 1
 143 467 l 1
 167 458 l 1
 176 446 l 1
 175 437 l 1
 179 432 l 1
 339 347 l 1
 514 273 l 1
 691 347 l 1
 851 432 l 1
 855 437 l 1
 854 446 l 1
 863 458 l 1
 887 467 l 1
 902 475 l 1
 916 491 l 1
 933 498 l 1
 954 499 l 1
 976 492 l 1
 994 475 l 1
 1000 454 l 1
 994 437 l 1
 953 415 l 1
 919 392 l 1
 914 385 l 1
 903 379 l 1
 893 381 l 1
 882 386 l 1
 636 262 l 1
 588 243 l 1
 713 191 l 1
 740 184 l 1
 745 196 l 1
 751 199 l 1
 774 195 l 1
 801 182 l 1
 819 152 l 1
 846 137 l 1
 907 115 l 1
 964 104 l 1
 975 100 l 1
 997 73 l 1
 1000 51 l 1
 994 41 l 1
 969 31 l 1
 952 38 l 1
 925 18 l 1
 893 6 l 1
 877 2 l 1
 864 3 l 1
 838 3 l 1
 819 9 l 1
 779 14 l 1
 722 46 l 1
 709 63 l 1
 705 76 l 1
 711 105 l 1
 718 123 l 1
 715 139 l 1
 680 150 l 1
 665 149 l 1
 656 154 l 1
 651 160 l 1
 601 179 l 1
 591 176 l 1
 578 177 l 1
 573 180 l 1
 570 187 l 1
 571 190 l 1
 515 213 l 1
 459 190 l 1
 460 187 l 1
 457 180 l 1
 452 177 l 1
 439 176 l 1
 429 179 l 1
 379 160 l 1
 374 154 l 1
 365 149 l 1
 350 150 l 1
 315 139 l 1
 310 121 l 1
 319 105 l 1
 325 76 l 1
 321 63 l 1
 308 46 l 1
 251 14 l 1
 211 9 l 1
 192 3 l 1
 166 3 l 1
 153 2 l 1
 137 6 l 1
 105 18 l 1
 78 38 l 1
 61 31 l 1
 36 41 l 1
 30 51 l 1
 33 73 l 1
 55 100 l 1
 66 104 l 1
 123 115 l 1
 184 137 l 1
 211 152 l 1
 229 182 l 1
 256 195 l 1
 279 199 l 1
 285 196 l 1
 290 184 l 1
 317 191 l 1
479 404 m 2
 478 404 473 401 471 401 c 0
 463 401 463 408 463 412 c 0
 463 419 463 422 471 422 c 0
 476 422 479 421 483 416 c 1
 484 419 486 419 488 419 c 0
 492 419 495 418 499 416 c 1
 501 421 l 1
 488 423 467 424 456 432 c 0
 454 435 431 456 428 459 c 0
 410 472 370 470 370 498 c 0
 370 519 394 515 394 525 c 2
 394 588 l 1
 405 607 411 627 417 646 c 0
 417 647 418 648 418 649 c 2
 415 646 l 1
 389 600 l 2
 388 598 387 583 387 577 c 0
 386 571 386 540 387 534 c 0
 386 532 384 528 382 528 c 0
 371 528 364 559 364 565 c 0
 364 566 363 585 363 593 c 0
 363 685 437 718 530 718 c 0
 592 718 648 682 661 626 c 0
 661 622 662 600 662 595 c 0
 662 588 661 566 661 565 c 0
 661 558 659 528 643 528 c 0
 638 528 637 528 636 534 c 2
 632 563 l 1
 625 554 626 540 626 529 c 0
 626 515 633 512 649 506 c 0
 650 506 651 505 652 505 c 2
 652 497 l 2
 652 468 613 471 595 456 c 0
 591 454 568 432 565 430 c 0
 563 428 552 425 550 424 c 1
 553 421 553 416 553 412 c 0
 553 408 553 400 546 400 c 0
 536 400 542 418 542 421 c 2
 530 421 l 1
 534 417 534 413 534 408 c 0
 534 401 534 398 525 398 c 2
 520 398 l 1
 517 401 l 1
 517 401 509 398 505 398 c 0
 499 398 483 401 483 401 c 2
 482 401 479 404 479 404 c 2
412 381 m 0
 411 389 408 425 408 432 c 2
 408 436 l 2
 408 440 411 442 415 442 c 0
 449 442 439 382 463 366 c 1
 463 378 l 2
 463 379 466 382 467 381 c 2
 479 375 l 1
 483 378 l 2
 484 378 495 379 497 379 c 1
 497 372 496 363 488 358 c 1
 534 358 l 2
 530 361 530 365 530 369 c 0
 530 374 530 378 536 378 c 0
 542 378 543 376 543 371 c 0
 543 367 543 364 542 360 c 1
 584 360 558 439 611 439 c 1
 611 421 609 392 604 375 c 0
 599 357 570 318 546 318 c 2
 476 318 l 2
 449 318 418 358 412 381 c 0
907 61 m 1
 894 67 l 1
 894 76 l 1
 911 79 l 1
 910 85 l 1
 903 86 l 1
 892 79 l 1
 877 73 l 1
 856 81 l 1
 843 82 l 1
 830 88 l 1
 820 88 l 1
 813 62 l 1
 812 51 l 1
 818 37 l 1
 828 25 l 1
 837 20 l 1
 852 17 l 1
 878 18 l 1
 896 27 l 1
 909 38 l 1
 914 53 l 1
 907 61 l 1
136 67 m 1
 123 61 l 1
 116 53 l 1
 121 38 l 1
 134 27 l 1
 152 18 l 1
 178 17 l 1
 193 20 l 1
 202 25 l 1
 212 37 l 1
 218 51 l 1
 217 62 l 1
 210 88 l 1
 200 88 l 1
 187 82 l 1
 174 81 l 1
 153 73 l 1
 138 79 l 1
 127 86 l 1
 120 85 l 1
 119 79 l 1
 136 76 l 1
 136 67 l 1
533 551 m 0
 533 531 554 507 577 507 c 0
 589 507 607 515 607 529 c 0
 607 550 598 580 570 580 c 0
 553 580 533 567 533 551 c 0
418 531 m 0
 418 520 424 507 439 507 c 0
 465 507 488 528 488 551 c 0
 488 568 479 580 459 580 c 0
 429 580 418 555 418 531 c 0
690 302 m 1
 571 249 l 1
 578 246 l 1
 613 260 l 1
 615 263 l 1
 619 261 l 1
 748 321 l 1
 872 388 l 1
 875 392 l 1
 892 400 l 1
 894 403 l 1
 913 417 l 1
 885 403 l 1
 881 398 l 1
 860 390 l 1
 847 380 l 1
 835 375 l 1
 709 313 l 1
 705 310 l 1
 701 310 l 1
 690 302 l 1
415 263 m 1
 417 260 l 1
 451 247 l 1
 458 250 l 1
 340 302 l 1
 329 310 l 1
 325 310 l 1
 321 313 l 1
 183 380 l 1
 170 390 l 1
 149 398 l 1
 145 403 l 1
 114 417 l 1
 136 403 l 1
 138 400 l 1
 155 392 l 1
 158 388 l 1
 282 321 l 1
 379 278 l 1
 411 261 l 1
 415 263 l 1
513 522 m 0
 498 522 491 478 491 470 c 1
 504 470 515 474 528 474 c 1
 528 485 520 522 513 522 c 0
758 93 m 1
 755 97 l 1
 735 84 l 1
 735 77 l 1
 739 64 l 1
 745 61 l 1
 750 64 l 1
 758 93 l 1
275 97 m 1
 272 93 l 1
 280 64 l 1
 287 63 l 1
 291 64 l 1
 295 77 l 1
 295 84 l 1
 275 97 l 1
271 146 m 1
 263 165 l 1
 259 160 l 1
 265 140 l 1
 270 131 l 1
 288 121 l 1
 300 123 l 1
 286 132 l 1
 271 146 l 1
767 165 m 1
 759 146 l 1
 732 121 l 1
 742 121 l 1
 760 131 l 1
 765 140 l 1
 771 160 l 1
 767 165 l 1
869 97 m 1
 872 105 l 1
 852 103 l 1
 853 110 l 1
 848 107 l 1
 847 102 l 1
 837 94 l 1
 843 92 l 1
 861 99 l 1
 864 95 l 1
 853 89 l 1
 860 86 l 1
 871 90 l 1
 869 97 l 1
955 477 m 1
 942 478 l 1
 957 468 l 1
 969 451 l 1
 962 435 l 1
 948 424 l 1
 956 427 l 1
 967 433 l 1
 972 447 l 1
 972 457 l 1
 960 473 l 1
 955 477 l 1
88 478 m 1
 75 477 l 1
 70 473 l 1
 58 457 l 1
 58 447 l 1
 63 433 l 1
 74 427 l 1
 82 424 l 1
 68 435 l 1
 61 451 l 1
 73 468 l 1
 88 478 l 1
158 105 m 1
 161 97 l 1
 159 90 l 1
 170 86 l 1
 177 89 l 1
 166 95 l 1
 169 99 l 1
 187 92 l 1
 193 94 l 1
 183 102 l 1
 182 107 l 1
 177 110 l 1
 177 101 l 1
 158 105 l 1
257 177 m 1
 250 169 l 1
 247 149 l 1
 254 136 l 1
 265 131 l 1
 262 135 l 1
 254 153 l 1
 257 177 l 1
780 169 m 1
 773 177 l 1
 776 153 l 1
 768 135 l 1
 765 131 l 1
 776 136 l 1
 783 149 l 1
 780 169 l 1
501 368 m 0
 501 372 501 376 508 378 c 0
 513 379 517 373 517 369 c 0
 517 364 513 360 508 360 c 0
 502 360 501 363 501 368 c 0
938 36 m 1
 927 31 l 1
 929 38 l 1
 914 25 l 1
 895 14 l 1
 911 17 l 1
 937 33 l 1
 938 36 l 1
103 31 m 1
 92 36 l 1
 93 33 l 1
 119 17 l 1
 135 14 l 1
 116 25 l 1
 101 38 l 1
 103 31 l 1
804 106 m 1
 800 103 l 1
 793 88 l 1
 793 77 l 1
 800 86 l 1
 807 102 l 1
 804 106 l 1
230 103 m 1
 226 106 l 1
 223 102 l 1
 230 86 l 1
 237 77 l 1
 237 88 l 1
 230 103 l 1
141 91 m 1
 133 91 l 1
 137 86 l 1
 155 81 l 1
 154 84 l 1
 151 86 l 1
 149 96 l 1
 143 97 l 1
 141 91 l 1
380 173 m 1
 386 172 l 1
 422 185 l 1
 417 188 l 1
 380 173 l 1
897 91 m 1
 889 91 l 1
 887 97 l 1
 881 93 l 1
 879 86 l 1
 876 84 l 1
 875 81 l 1
 893 86 l 1
 897 91 l 1
61 56 m 1
 57 63 l 1
 58 56 l 1
 61 52 l 1
 60 49 l 1
 61 38 l 1
 67 39 l 1
 71 45 l 1
 64 54 l 1
 61 56 l 1
973 63 m 1
 969 56 l 1
 966 54 l 1
 959 45 l 1
 963 39 l 1
 969 38 l 1
 970 49 l 1
 969 52 l 1
 972 56 l 1
 973 63 l 1
651 171 m 1
 613 188 l 1
 608 185 l 1
 644 172 l 1
 651 171 l 1
831 113 m 1
 824 99 l 1
 831 99 l 1
 836 102 l 1
 837 112 l 1
 831 113 l 1
206 99 m 1
 199 113 l 1
 193 112 l 1
 194 102 l 1
 199 99 l 1
 206 99 l 1
921 79 m 1
 911 77 l 1
 905 70 l 1
 918 70 l 1
 923 73 l 1
 921 79 l 1
119 77 m 1
 109 79 l 1
 107 73 l 1
 112 70 l 1
 125 70 l 1
 119 77 l 1
599 197 m 1
 587 191 l 1
 581 184 l 1
 589 184 l 1
 595 187 l 1
 599 197 l 1
443 191 m 1
 431 197 l 1
 435 187 l 1
 441 184 l 1
 449 184 l 1
 443 191 l 1
783 61 m 1
 777 53 l 1
 780 43 l 1
 785 38 l 1
 783 61 l 1
253 53 m 1
 247 61 l 1
 245 38 l 1
 250 43 l 1
 253 53 l 1
485 213 m 1
 478 210 l 1
 477 206 l 1
 505 217 l 1
 501 219 l 1
 485 213 l 1
937 73 m 1
 928 56 l 1
 927 50 l 1
 930 51 l 1
 938 64 l 1
 937 73 l 1
95 68 m 1
 93 73 l 1
 92 64 l 1
 100 51 l 1
 103 50 l 1
 102 56 l 1
 95 68 l 1
552 210 m 1
 542 213 l 1
 528 219 l 1
 525 217 l 1
 553 206 l 1
 552 210 l 1
469 363 m 2
 473 360 476 360 480 360 c 2
 485 360 l 1
 484 365 478 363 476 363 c 2
 469 363 l 2
517 421 m 0
 515 422 515 411 517 412 c 0
 520 414 520 420 517 421 c 0
828 128 m 1
 825 126 l 1
 829 120 l 1
 831 124 l 1
 828 128 l 1
205 126 m 1
 202 128 l 1
 199 124 l 1
 201 120 l 1
 205 126 l 1
244 107 m 1
 240 110 l 1
 235 105 l 1
 244 107 l 1
790 110 m 1
 786 107 l 1
 795 105 l 1
 790 110 l 1
341 158 m 1
 334 155 l 1
 337 154 l 1
 341 158 l 1
696 155 m 1
 689 158 l 1
 693 154 l 1
 696 155 l 1
361 162 m 1
 361 158 l 1
 364 160 l 1
 361 162 l 1
669 158 m 1
 669 162 l 1
 666 160 l 1
 669 158 l 1
EndSplineSet
EndChar

StartChar: exclam
Encoding: 33 33 4
Width: 236
Flags: W
LayerCount: 2
Fore
SplineSet
102 112 m 1
 96 112 l 1
 73 120 l 1
 63 149 l 1
 61 184 l 1
 63 214 l 1
 63 261 l 1
 61 264 l 1
 61 278 l 1
 58 291 l 1
 57 323 l 1
 45 444 l 1
 41 459 l 1
 37 489 l 1
 37 539 l 1
 34 552 l 1
 32 594 l 1
 33 610 l 1
 36 618 l 1
 38 645 l 1
 34 652 l 1
 31 654 l 1
 32 661 l 1
 30 667 l 1
 36 680 l 1
 37 692 l 1
 51 705 l 1
 65 714 l 1
 70 714 l 1
 81 709 l 1
 93 705 l 1
 127 683 l 1
 147 679 l 1
 152 675 l 1
 159 674 l 1
 179 663 l 1
 186 657 l 1
 201 640 l 1
 206 623 l 1
 198 568 l 1
 198 534 l 1
 193 500 l 1
 190 463 l 1
 188 460 l 1
 186 454 l 1
 185 442 l 1
 180 436 l 1
 179 432 l 1
 176 430 l 1
 174 423 l 1
 173 408 l 1
 168 394 l 1
 162 357 l 1
 163 345 l 1
 159 323 l 1
 158 308 l 1
 151 292 l 1
 150 270 l 1
 158 262 l 1
 158 250 l 1
 151 243 l 1
 148 193 l 1
 151 183 l 1
 156 177 l 1
 161 177 l 1
 172 170 l 1
 177 158 l 1
 173 142 l 1
 161 130 l 1
 142 118 l 1
 129 113 l 1
 122 109 l 1
 102 112 l 1
137 -19 m 1
 121 -16 l 1
 106 -16 l 1
 87 -6 l 1
 70 11 l 1
 68 20 l 1
 68 47 l 1
 77 65 l 1
 86 75 l 1
 102 76 l 1
 142 63 l 1
 154 56 l 1
 156 50 l 1
 156 37 l 1
 162 35 l 1
 167 28 l 1
 173 25 l 1
 176 19 l 1
 185 8 l 1
 169 -14 l 1
 157 -10 l 1
 137 -19 l 1
189 299 m 1
 189 305 l 1
 198 305 l 1
 198 298 l 1
 189 299 l 1
168 326 m 1
 168 333 l 1
 173 333 l 1
 173 329 l 1
 168 326 l 1
174 313 m 1
 177 312 l 1
 174 307 l 1
 174 313 l 1
EndSplineSet
EndChar

StartChar: quotedbl
Encoding: 34 34 5
Width: 362
Flags: W
LayerCount: 2
Fore
SplineSet
57 443 m 1
 52 446 l 1
 53 460 l 1
 63 495 l 1
 63 506 l 1
 57 574 l 1
 60 577 l 1
 53 613 l 1
 45 622 l 1
 45 634 l 1
 35 653 l 1
 30 660 l 1
 30 676 l 1
 33 693 l 1
 47 715 l 1
 60 732 l 1
 61 735 l 1
 71 735 l 1
 80 730 l 1
 94 730 l 1
 103 728 l 1
 113 722 l 1
 132 715 l 1
 138 708 l 1
 156 692 l 1
 165 670 l 1
 167 640 l 1
 166 626 l 1
 157 608 l 1
 156 591 l 1
 149 576 l 1
 151 572 l 1
 151 564 l 1
 148 562 l 1
 143 541 l 1
 144 537 l 1
 144 525 l 1
 148 516 l 1
 132 495 l 1
 127 486 l 1
 124 484 l 1
 109 471 l 1
 101 460 l 1
 99 454 l 1
 89 447 l 1
 79 444 l 1
 76 438 l 1
 57 443 l 1
222 451 m 1
 217 454 l 1
 218 468 l 1
 228 503 l 1
 228 514 l 1
 222 582 l 1
 225 585 l 1
 218 621 l 1
 210 630 l 1
 210 642 l 1
 200 661 l 1
 195 668 l 1
 195 684 l 1
 198 701 l 1
 212 723 l 1
 225 740 l 1
 226 743 l 1
 236 743 l 1
 245 738 l 1
 259 738 l 1
 268 736 l 1
 278 730 l 1
 297 723 l 1
 303 716 l 1
 321 700 l 1
 330 678 l 1
 332 648 l 1
 331 634 l 1
 322 616 l 1
 321 599 l 1
 314 584 l 1
 316 580 l 1
 316 572 l 1
 313 570 l 1
 308 549 l 1
 309 545 l 1
 309 533 l 1
 313 524 l 1
 297 503 l 1
 292 494 l 1
 289 492 l 1
 274 479 l 1
 266 468 l 1
 264 462 l 1
 254 455 l 1
 244 452 l 1
 241 446 l 1
 222 451 l 1
EndSplineSet
EndChar

StartChar: dollar
Encoding: 36 36 6
Width: 496
Flags: W
LayerCount: 2
Fore
SplineSet
260 -26 m 1
 255 -15 l 1
 252 -17 l 1
 251 -14 l 1
 251 -6 l 1
 248 8 l 1
 248 29 l 1
 251 38 l 1
 250 50 l 1
 248 55 l 1
 242 55 l 1
 233 49 l 1
 233 55 l 1
 218 50 l 1
 122 63 l 1
 111 67 l 1
 86 69 l 1
 73 78 l 1
 62 93 l 1
 50 100 l 1
 41 110 l 1
 34 122 l 1
 30 144 l 1
 30 173 l 1
 33 203 l 1
 39 226 l 1
 44 239 l 1
 52 243 l 1
 57 262 l 1
 62 262 l 1
 67 269 l 1
 72 269 l 1
 88 259 l 1
 93 254 l 1
 118 242 l 1
 134 239 l 1
 152 237 l 1
 178 225 l 1
 191 217 l 1
 202 207 l 1
 204 182 l 1
 193 162 l 1
 193 148 l 1
 196 146 l 1
 226 143 l 1
 237 144 l 1
 252 149 l 1
 253 165 l 1
 255 169 l 1
 253 178 l 1
 253 229 l 1
 250 254 l 1
 244 255 l 1
 240 265 l 1
 226 269 l 1
 222 276 l 1
 222 290 l 1
 225 300 l 1
 218 300 l 1
 218 308 l 1
 221 311 l 1
 225 311 l 1
 228 306 l 1
 234 305 l 1
 246 298 l 1
 251 291 l 1
 250 297 l 1
 248 337 l 1
 250 345 l 1
 250 353 l 1
 251 350 l 1
 248 367 l 1
 248 352 l 1
 247 348 l 1
 245 371 l 1
 244 374 l 1
 234 374 l 1
 229 378 l 1
 216 380 l 1
 213 378 l 1
 213 372 l 1
 206 372 l 1
 206 380 l 1
 203 385 l 1
 193 387 l 1
 186 387 l 1
 182 390 l 1
 159 397 l 1
 122 412 l 1
 112 418 l 1
 93 434 l 1
 73 460 l 1
 63 476 l 1
 62 483 l 1
 58 490 l 1
 53 503 l 1
 46 536 l 1
 41 538 l 1
 39 542 l 1
 39 553 l 1
 51 563 l 1
 70 612 l 1
 78 626 l 1
 85 628 l 1
 93 644 l 1
 118 668 l 1
 130 673 l 1
 143 682 l 1
 144 685 l 1
 167 697 l 1
 180 702 l 1
 188 707 l 1
 211 715 l 1
 234 718 l 1
 242 721 l 1
 243 737 l 1
 240 756 l 1
 240 762 l 1
 243 768 l 1
 245 777 l 1
 250 788 l 1
 254 788 l 1
 262 775 l 1
 271 772 l 1
 276 768 l 1
 278 763 l 1
 282 761 l 1
 291 739 l 1
 295 725 l 1
 295 719 l 1
 298 717 l 1
 316 717 l 1
 351 711 l 1
 375 702 l 1
 396 691 l 1
 440 661 l 1
 456 644 l 1
 462 633 l 1
 466 610 l 1
 464 587 l 1
 450 576 l 1
 446 567 l 1
 441 565 l 1
 429 551 l 1
 421 548 l 1
 411 551 l 1
 400 536 l 1
 385 536 l 1
 369 553 l 1
 369 565 l 1
 374 572 l 1
 377 582 l 1
 382 613 l 1
 369 607 l 1
 359 596 l 1
 347 594 l 1
 340 589 l 1
 324 586 l 1
 313 580 l 1
 305 580 l 1
 307 569 l 1
 308 576 l 1
 310 569 l 1
 307 554 l 1
 307 541 l 1
 305 527 l 1
 304 499 l 1
 308 510 l 1
 307 500 l 1
 307 477 l 1
 303 474 l 1
 304 464 l 1
 344 454 l 1
 365 444 l 1
 392 423 l 1
 395 417 l 1
 396 421 l 1
 409 408 l 1
 411 402 l 1
 417 400 l 1
 421 389 l 1
 428 382 l 1
 428 378 l 1
 435 371 l 1
 439 354 l 1
 442 350 l 1
 439 344 l 1
 442 341 l 1
 444 344 l 1
 447 342 l 1
 448 306 l 1
 454 307 l 1
 454 298 l 1
 445 291 l 1
 445 285 l 1
 449 285 l 1
 451 291 l 1
 457 293 l 1
 455 270 l 1
 446 259 l 1
 444 251 l 1
 452 248 l 1
 447 246 l 1
 445 238 l 1
 454 239 l 1
 455 236 l 1
 456 232 l 1
 448 224 l 1
 448 217 l 1
 451 214 l 1
 447 209 l 1
 440 209 l 1
 434 203 l 1
 434 195 l 1
 435 190 l 1
 440 197 l 1
 440 187 l 1
 434 183 l 1
 440 182 l 1
 440 177 l 1
 434 178 l 1
 429 169 l 1
 424 165 l 1
 417 165 l 1
 417 159 l 1
 421 159 l 1
 428 165 l 1
 428 158 l 1
 433 158 l 1
 440 164 l 1
 441 176 l 1
 444 180 l 1
 444 186 l 1
 451 195 l 1
 454 189 l 1
 449 177 l 1
 447 157 l 1
 449 162 l 1
 449 154 l 1
 441 142 l 1
 436 130 l 1
 431 128 l 1
 426 118 l 1
 431 118 l 1
 437 127 l 1
 442 127 l 1
 447 136 l 1
 448 150 l 1
 451 147 l 1
 453 136 l 1
 448 119 l 1
 444 110 l 1
 438 106 l 1
 433 97 l 1
 435 92 l 1
 426 88 l 1
 418 80 l 1
 411 80 l 1
 406 84 l 1
 387 77 l 1
 381 69 l 1
 373 69 l 1
 371 75 l 1
 364 75 l 1
 359 68 l 1
 344 68 l 1
 337 52 l 1
 341 55 l 1
 341 49 l 1
 336 44 l 1
 329 47 l 1
 327 51 l 1
 322 51 l 1
 329 55 l 1
 329 59 l 1
 324 62 l 1
 321 55 l 1
 314 50 l 1
 308 52 l 1
 308 56 l 1
 314 56 l 1
 322 65 l 1
 319 69 l 1
 310 67 l 1
 303 62 l 1
 298 61 l 1
 298 56 l 1
 293 20 l 1
 287 13 l 1
 286 3 l 1
 283 -6 l 1
 282 -3 l 1
 281 -14 l 1
 279 -7 l 1
 274 -24 l 1
 272 -19 l 1
 268 -29 l 1
 264 -24 l 1
 264 -30 l 1
 262 -25 l 1
 261 -34 l 1
 260 -26 l 1
309 360 m 1
 303 360 l 1
 302 355 l 1
 302 339 l 1
 300 336 l 1
 301 331 l 1
 299 298 l 1
 300 291 l 1
 303 296 l 1
 306 313 l 1
 307 324 l 1
 308 319 l 1
 305 286 l 1
 303 281 l 1
 303 275 l 1
 297 264 l 1
 295 248 l 1
 296 240 l 1
 299 241 l 1
 299 258 l 1
 302 263 l 1
 301 258 l 1
 302 251 l 1
 302 241 l 1
 300 232 l 1
 304 228 l 1
 304 206 l 1
 299 197 l 1
 298 194 l 1
 296 182 l 1
 296 158 l 1
 306 169 l 1
 310 170 l 1
 313 175 l 1
 327 180 l 1
 339 193 l 1
 344 208 l 1
 344 220 l 1
 347 236 l 1
 349 239 l 1
 346 244 l 1
 349 287 l 1
 344 316 l 1
 329 343 l 1
 309 360 l 1
166 269 m 1
 166 284 l 1
 176 292 l 1
 173 300 l 1
 173 313 l 1
 167 326 l 1
 169 334 l 1
 183 346 l 1
 189 347 l 1
 192 350 l 1
 205 352 l 1
 214 342 l 1
 214 328 l 1
 204 321 l 1
 194 321 l 1
 186 324 l 1
 181 319 l 1
 182 315 l 1
 187 313 l 1
 189 308 l 1
 189 301 l 1
 181 291 l 1
 186 278 l 1
 183 269 l 1
 171 264 l 1
 166 269 l 1
211 498 m 1
 217 493 l 1
 247 481 l 1
 245 494 l 1
 246 508 l 1
 243 531 l 1
 242 546 l 1
 225 530 l 1
 214 509 l 1
 211 498 l 1
320 243 m 1
 314 249 l 1
 314 259 l 1
 319 264 l 1
 324 264 l 1
 329 259 l 1
 329 242 l 1
 320 243 l 1
220 319 m 1
 218 326 l 1
 229 331 l 1
 236 324 l 1
 236 319 l 1
 232 313 l 1
 220 319 l 1
166 248 m 1
 166 256 l 1
 170 260 l 1
 176 260 l 1
 179 254 l 1
 176 245 l 1
 168 245 l 1
 166 248 l 1
213 352 m 1
 216 362 l 1
 211 364 l 1
 217 373 l 1
 220 368 l 1
 218 362 l 1
 224 361 l 1
 226 350 l 1
 217 355 l 1
 213 352 l 1
147 350 m 1
 147 355 l 1
 150 358 l 1
 154 358 l 1
 154 350 l 1
 147 350 l 1
307 520 m 1
 309 535 l 1
 309 520 l 1
 307 515 l 1
 307 520 l 1
30 584 m 1
 33 582 l 1
 30 574 l 1
 30 584 l 1
188 293 m 1
 190 290 l 1
 188 282 l 1
 188 293 l 1
363 56 m 1
 365 62 l 1
 366 54 l 1
 363 56 l 1
EndSplineSet
EndChar

StartChar: quotesingle
Encoding: 39 39 7
Width: 197
Flags: W
LayerCount: 2
Fore
SplineSet
57 443 m 1
 52 446 l 1
 53 460 l 1
 63 495 l 1
 63 506 l 1
 57 574 l 1
 60 577 l 1
 53 613 l 1
 45 622 l 1
 45 634 l 1
 35 653 l 1
 30 660 l 1
 30 676 l 1
 33 693 l 1
 47 715 l 1
 60 732 l 1
 61 735 l 1
 71 735 l 1
 80 730 l 1
 94 730 l 1
 103 728 l 1
 113 722 l 1
 132 715 l 1
 138 708 l 1
 156 692 l 1
 165 670 l 1
 167 640 l 1
 166 626 l 1
 157 608 l 1
 156 591 l 1
 149 576 l 1
 151 572 l 1
 151 564 l 1
 148 562 l 1
 143 541 l 1
 144 537 l 1
 144 525 l 1
 148 516 l 1
 132 495 l 1
 127 486 l 1
 124 484 l 1
 109 471 l 1
 101 460 l 1
 99 454 l 1
 89 447 l 1
 79 444 l 1
 76 438 l 1
 57 443 l 1
EndSplineSet
EndChar

StartChar: parenleft
Encoding: 40 40 8
Width: 339
Flags: W
LayerCount: 2
Fore
SplineSet
234 32 m 1
 220 40 l 1
 213 40 l 1
 208 38 l 1
 191 38 l 1
 151 50 l 1
 139 58 l 1
 112 85 l 1
 98 104 l 1
 79 136 l 1
 54 187 l 1
 41 232 l 1
 38 258 l 1
 36 263 l 1
 30 316 l 1
 44 437 l 1
 64 491 l 1
 100 558 l 1
 136 601 l 1
 188 647 l 1
 203 656 l 1
 232 669 l 1
 243 669 l 1
 261 660 l 1
 274 651 l 1
 294 630 l 1
 298 618 l 1
 298 608 l 1
 294 600 l 1
 281 587 l 1
 269 583 l 1
 244 558 l 1
 228 550 l 1
 199 520 l 1
 194 518 l 1
 184 503 l 1
 150 436 l 1
 137 392 l 1
 139 375 l 1
 169 203 l 1
 172 197 l 1
 178 173 l 1
 186 152 l 1
 201 124 l 1
 230 106 l 1
 239 110 l 1
 269 106 l 1
 299 83 l 1
 307 73 l 1
 309 57 l 1
 294 38 l 1
 294 29 l 1
 234 32 l 1
EndSplineSet
EndChar

StartChar: parenright
Encoding: 41 41 9
Width: 292
Flags: W
LayerCount: 2
Fore
SplineSet
80 20 m 1
 63 24 l 1
 42 36 l 1
 39 41 l 1
 39 61 l 1
 51 86 l 1
 75 109 l 1
 86 112 l 1
 102 127 l 1
 127 169 l 1
 143 208 l 1
 148 228 l 1
 152 271 l 1
 156 280 l 1
 156 403 l 1
 150 465 l 1
 139 497 l 1
 120 533 l 1
 100 558 l 1
 77 558 l 1
 66 560 l 1
 55 565 l 1
 48 573 l 1
 30 589 l 1
 30 600 l 1
 42 627 l 1
 55 642 l 1
 62 647 l 1
 73 633 l 1
 116 625 l 1
 132 613 l 1
 144 598 l 1
 149 589 l 1
 187 550 l 1
 222 504 l 1
 229 488 l 1
 236 479 l 1
 250 430 l 1
 254 405 l 1
 253 363 l 1
 249 351 l 1
 249 345 l 1
 254 349 l 1
 257 359 l 1
 262 340 l 1
 251 331 l 1
 249 314 l 1
 245 309 l 1
 243 288 l 1
 237 263 l 1
 237 247 l 1
 241 247 l 1
 260 279 l 1
 260 263 l 1
 254 255 l 1
 247 252 l 1
 245 241 l 1
 233 220 l 1
 231 200 l 1
 221 167 l 1
 196 133 l 1
 194 119 l 1
 163 73 l 1
 159 71 l 1
 152 71 l 1
 140 58 l 1
 137 52 l 1
 128 45 l 1
 122 45 l 1
 104 27 l 1
 98 25 l 1
 91 27 l 1
 80 20 l 1
EndSplineSet
EndChar

StartChar: comma
Encoding: 44 44 10
Width: 180
Flags: W
LayerCount: 2
Fore
SplineSet
58 -100 m 1
 54 -99 l 1
 54 -92 l 1
 53 -89 l 1
 56 -81 l 1
 63 -73 l 1
 74 -70 l 1
 83 -71 l 1
 86 -68 l 1
 92 -56 l 1
 100 -30 l 1
 101 -24 l 1
 99 -14 l 1
 95 -12 l 1
 91 -16 l 1
 87 -13 l 1
 81 -15 l 1
 58 -14 l 1
 53 -11 l 1
 49 -11 l 1
 39 -5 l 1
 38 1 l 1
 34 8 l 1
 30 20 l 1
 32 43 l 1
 36 61 l 1
 51 96 l 1
 55 100 l 1
 64 99 l 1
 72 97 l 1
 76 99 l 1
 82 98 l 1
 85 96 l 1
 94 95 l 1
 100 90 l 1
 102 84 l 1
 107 82 l 1
 133 62 l 1
 141 50 l 1
 144 43 l 1
 150 14 l 1
 148 6 l 1
 148 -7 l 1
 141 -7 l 1
 133 -29 l 1
 119 -54 l 1
 116 -65 l 1
 110 -68 l 1
 109 -76 l 1
 104 -81 l 1
 98 -94 l 1
 92 -98 l 1
 91 -103 l 1
 80 -104 l 1
 66 -104 l 1
 58 -100 l 1
EndSplineSet
EndChar

StartChar: hyphen
Encoding: 45 45 11
Width: 456
Flags: W
LayerCount: 2
Fore
SplineSet
99 182 m 1
 89 185 l 1
 74 194 l 1
 63 198 l 1
 59 198 l 1
 57 201 l 1
 60 204 l 1
 49 216 l 1
 44 228 l 1
 38 237 l 1
 36 248 l 1
 30 269 l 1
 34 277 l 1
 44 281 l 1
 57 281 l 1
 115 294 l 1
 131 296 l 1
 189 297 l 1
 212 299 l 1
 231 298 l 1
 263 298 l 1
 278 296 l 1
 302 296 l 1
 327 293 l 1
 335 291 l 1
 400 291 l 1
 412 290 l 1
 417 285 l 1
 422 283 l 1
 423 278 l 1
 423 272 l 1
 425 269 l 1
 426 265 l 1
 426 258 l 1
 424 252 l 1
 415 245 l 1
 411 245 l 1
 411 241 l 1
 406 237 l 1
 401 236 l 1
 396 232 l 1
 378 229 l 1
 363 228 l 1
 348 224 l 1
 326 224 l 1
 323 222 l 1
 312 224 l 1
 282 222 l 1
 269 219 l 1
 260 215 l 1
 234 210 l 1
 220 209 l 1
 211 205 l 1
 198 204 l 1
 173 193 l 1
 162 195 l 1
 157 192 l 1
 145 190 l 1
 142 189 l 1
 137 188 l 1
 134 186 l 1
 113 182 l 1
 99 182 l 1
64 186 m 1
 64 190 l 1
 74 190 l 1
 74 184 l 1
 69 184 l 1
 64 186 l 1
EndSplineSet
EndChar

StartChar: period
Encoding: 46 46 12
Width: 169
Flags: W
LayerCount: 2
Fore
SplineSet
91 7 m 1
 88 9 l 1
 67 15 l 1
 52 17 l 1
 45 20 l 1
 33 32 l 1
 30 39 l 1
 30 48 l 1
 32 56 l 1
 32 62 l 1
 34 71 l 1
 37 75 l 1
 37 84 l 1
 42 96 l 1
 45 99 l 1
 51 111 l 1
 57 115 l 1
 61 115 l 1
 65 113 l 1
 69 113 l 1
 76 111 l 1
 79 108 l 1
 86 108 l 1
 101 104 l 1
 114 97 l 1
 117 95 l 1
 130 86 l 1
 139 73 l 1
 139 49 l 1
 130 39 l 1
 128 36 l 1
 126 28 l 1
 126 15 l 1
 123 11 l 1
 107 6 l 1
 91 7 l 1
EndSplineSet
EndChar

StartChar: slash
Encoding: 47 47 13
Width: 300
Flags: W
LayerCount: 2
Fore
SplineSet
57 1 m 1
 45 1 l 1
 43 10 l 1
 33 22 l 1
 30 37 l 1
 30 55 l 1
 33 46 l 1
 34 62 l 1
 37 69 l 1
 37 88 l 1
 40 100 l 1
 37 110 l 1
 39 113 l 1
 39 126 l 1
 54 185 l 1
 56 217 l 1
 59 226 l 1
 69 317 l 1
 79 358 l 1
 88 422 l 1
 92 435 l 1
 93 465 l 1
 114 597 l 1
 127 637 l 1
 129 669 l 1
 146 695 l 1
 155 696 l 1
 163 693 l 1
 167 690 l 1
 171 690 l 1
 209 687 l 1
 230 680 l 1
 241 673 l 1
 268 640 l 1
 270 629 l 1
 266 598 l 1
 259 581 l 1
 255 576 l 1
 246 537 l 1
 240 490 l 1
 242 480 l 1
 240 440 l 1
 236 432 l 1
 230 396 l 1
 223 373 l 1
 214 360 l 1
 210 344 l 1
 200 329 l 1
 194 300 l 1
 188 280 l 1
 192 270 l 1
 192 251 l 1
 187 244 l 1
 180 205 l 1
 175 202 l 1
 175 192 l 1
 170 189 l 1
 164 196 l 1
 159 186 l 1
 156 184 l 1
 151 184 l 1
 148 181 l 1
 146 167 l 1
 139 157 l 1
 134 144 l 1
 138 138 l 1
 135 124 l 1
 135 112 l 1
 140 105 l 1
 142 91 l 1
 138 77 l 1
 126 55 l 1
 117 31 l 1
 117 23 l 1
 104 21 l 1
 103 17 l 1
 98 17 l 1
 95 20 l 1
 89 12 l 1
 86 11 l 1
 83 2 l 1
 79 -1 l 1
 63 -2 l 1
 57 1 l 1
EndSplineSet
EndChar

StartChar: zero
Encoding: 48 48 14
Width: 522
Flags: W
LayerCount: 2
Fore
SplineSet
271 634 m 1
 277 643 l 1
 280 645 l 1
 286 655 l 1
 289 651 l 1
 296 651 l 1
 300 653 l 1
 296 649 l 1
 292 649 l 1
 286 643 l 1
 292 643 l 1
 293 637 l 1
 297 637 l 1
 301 643 l 1
 306 637 l 1
 307 627 l 1
 313 638 l 1
 313 645 l 1
 319 645 l 1
 319 649 l 1
 310 647 l 1
 304 656 l 1
 304 661 l 1
 300 663 l 1
 303 665 l 1
 307 662 l 1
 307 657 l 1
 317 657 l 1
 333 645 l 1
 331 637 l 1
 326 634 l 1
 331 624 l 1
 323 624 l 1
 319 620 l 1
 327 612 l 1
 331 620 l 1
 336 622 l 1
 350 635 l 1
 354 630 l 1
 354 623 l 1
 346 625 l 1
 344 621 l 1
 333 615 l 1
 331 607 l 1
 336 604 l 1
 345 612 l 1
 350 618 l 1
 354 618 l 1
 360 614 l 1
 360 609 l 1
 350 607 l 1
 345 603 l 1
 348 598 l 1
 351 601 l 1
 354 599 l 1
 369 604 l 1
 378 602 l 1
 392 602 l 1
 400 594 l 1
 399 589 l 1
 402 575 l 1
 405 572 l 1
 407 577 l 1
 415 575 l 1
 421 564 l 1
 424 567 l 1
 429 558 l 1
 433 558 l 1
 438 544 l 1
 438 531 l 1
 442 512 l 1
 455 501 l 1
 459 501 l 1
 465 492 l 1
 470 497 l 1
 465 512 l 1
 460 521 l 1
 462 527 l 1
 458 535 l 1
 452 543 l 1
 452 551 l 1
 472 525 l 1
 481 492 l 1
 488 447 l 1
 485 438 l 1
 492 433 l 1
 492 336 l 1
 488 328 l 1
 489 324 l 1
 486 315 l 1
 479 274 l 1
 472 247 l 1
 469 226 l 1
 463 210 l 1
 461 192 l 1
 455 174 l 1
 438 103 l 1
 434 98 l 1
 433 93 l 1
 420 71 l 1
 408 56 l 1
 402 45 l 1
 395 42 l 1
 385 34 l 1
 361 25 l 1
 341 14 l 1
 310 2 l 1
 299 2 l 1
 288 6 l 1
 262 -6 l 1
 255 -4 l 1
 232 -10 l 1
 193 -10 l 1
 191 -3 l 1
 184 1 l 1
 175 -2 l 1
 180 -9 l 1
 175 -9 l 1
 166 8 l 1
 146 18 l 1
 108 46 l 1
 96 58 l 1
 93 56 l 1
 90 66 l 1
 80 82 l 1
 71 101 l 1
 67 101 l 1
 65 113 l 1
 61 119 l 1
 47 167 l 1
 44 191 l 1
 39 209 l 1
 36 211 l 1
 36 218 l 1
 30 263 l 1
 31 304 l 1
 35 356 l 1
 49 416 l 1
 66 455 l 1
 96 506 l 1
 104 513 l 1
 146 567 l 1
 182 604 l 1
 204 618 l 1
 224 618 l 1
 233 621 l 1
 241 636 l 1
 250 631 l 1
 258 637 l 1
 267 634 l 1
 269 626 l 1
 286 643 l 1
 282 643 l 1
 271 634 l 1
223 107 m 1
 228 102 l 1
 242 102 l 1
 280 118 l 1
 294 132 l 1
 306 149 l 1
 336 245 l 1
 350 315 l 1
 350 402 l 1
 348 437 l 1
 341 457 l 1
 323 482 l 1
 314 500 l 1
 298 513 l 1
 294 513 l 1
 288 494 l 1
 286 464 l 1
 280 451 l 1
 263 429 l 1
 256 416 l 1
 251 411 l 1
 249 406 l 1
 238 392 l 1
 226 366 l 1
 208 317 l 1
 197 267 l 1
 197 205 l 1
 223 107 l 1
284 355 m 1
 276 363 l 1
 276 378 l 1
 286 386 l 1
 298 386 l 1
 307 380 l 1
 309 375 l 1
 309 361 l 1
 302 355 l 1
 295 353 l 1
 284 355 l 1
276 620 m 1
 283 616 l 1
 289 627 l 1
 297 631 l 1
 295 634 l 1
 293 631 l 1
 288 631 l 1
 284 626 l 1
 276 625 l 1
 276 620 l 1
361 590 m 1
 365 586 l 1
 369 586 l 1
 369 590 l 1
 365 594 l 1
 361 594 l 1
 361 590 l 1
131 17 m 1
 131 23 l 1
 137 11 l 1
 131 17 l 1
110 31 m 1
 109 34 l 1
 109 40 l 1
 113 27 l 1
 110 31 l 1
300 635 m 1
 302 629 l 1
 304 637 l 1
 300 635 l 1
424 71 m 1
 426 75 l 1
 424 58 l 1
 424 71 l 1
149 5 m 1
 152 7 l 1
 152 1 l 1
 149 5 l 1
292 624 m 1
 289 621 l 1
 293 621 l 1
 292 624 l 1
EndSplineSet
EndChar

StartChar: one
Encoding: 49 49 15
Width: 520
Flags: W
LayerCount: 2
Fore
SplineSet
378 0 m 1
 371 0 l 1
 367 -7 l 1
 362 0 l 1
 348 -10 l 1
 337 -14 l 1
 337 -18 l 1
 327 -22 l 1
 294 -45 l 1
 278 -49 l 1
 258 -50 l 1
 248 -46 l 1
 215 -40 l 1
 205 -34 l 1
 188 -29 l 1
 157 -14 l 1
 155 -11 l 1
 137 0 l 1
 124 0 l 1
 120 10 l 1
 113 13 l 1
 109 28 l 1
 114 46 l 1
 119 51 l 1
 155 62 l 1
 198 64 l 1
 214 71 l 1
 225 73 l 1
 225 82 l 1
 218 125 l 1
 219 130 l 1
 217 134 l 1
 217 153 l 1
 210 222 l 1
 209 259 l 1
 206 263 l 1
 200 307 l 1
 200 341 l 1
 198 348 l 1
 196 400 l 1
 192 400 l 1
 183 392 l 1
 174 373 l 1
 176 357 l 1
 171 349 l 1
 159 336 l 1
 154 334 l 1
 151 328 l 1
 123 320 l 1
 101 325 l 1
 85 323 l 1
 64 328 l 1
 51 334 l 1
 30 357 l 1
 30 372 l 1
 55 400 l 1
 65 416 l 1
 72 442 l 1
 98 500 l 1
 145 582 l 1
 155 607 l 1
 172 637 l 1
 199 660 l 1
 214 663 l 1
 237 659 l 1
 253 653 l 1
 280 636 l 1
 282 632 l 1
 302 620 l 1
 329 600 l 1
 337 600 l 1
 337 591 l 1
 355 579 l 1
 358 573 l 1
 370 560 l 1
 378 536 l 1
 383 529 l 1
 387 515 l 1
 387 507 l 1
 383 500 l 1
 375 416 l 1
 367 387 l 1
 363 383 l 1
 360 348 l 1
 354 332 l 1
 350 308 l 1
 347 300 l 1
 350 287 l 1
 354 228 l 1
 358 226 l 1
 362 227 l 1
 362 215 l 1
 366 209 l 1
 368 213 l 1
 368 158 l 1
 365 141 l 1
 358 131 l 1
 384 137 l 1
 400 145 l 1
 413 145 l 1
 425 141 l 1
 437 140 l 1
 437 119 l 1
 444 117 l 1
 454 110 l 1
 455 100 l 1
 463 110 l 1
 467 100 l 1
 458 100 l 1
 459 86 l 1
 465 89 l 1
 471 89 l 1
 471 83 l 1
 464 78 l 1
 467 70 l 1
 474 66 l 1
 474 88 l 1
 478 88 l 1
 482 80 l 1
 478 64 l 1
 490 70 l 1
 490 35 l 1
 484 35 l 1
 478 32 l 1
 478 41 l 1
 490 48 l 1
 487 51 l 1
 478 48 l 1
 474 56 l 1
 473 61 l 1
 471 54 l 1
 468 56 l 1
 467 48 l 1
 460 44 l 1
 456 36 l 1
 452 34 l 1
 456 32 l 1
 456 28 l 1
 437 28 l 1
 437 23 l 1
 428 23 l 1
 411 15 l 1
 411 10 l 1
 408 9 l 1
 406 13 l 1
 400 10 l 1
 400 0 l 1
 395 0 l 1
 391 7 l 1
 385 7 l 1
 385 0 l 1
 377 -24 l 1
 378 0 l 1
164 173 m 1
 164 180 l 1
 170 180 l 1
 173 177 l 1
 173 152 l 1
 164 173 l 1
194 208 m 1
 194 214 l 1
 199 216 l 1
 202 213 l 1
 197 181 l 1
 194 208 l 1
179 278 m 1
 181 281 l 1
 184 283 l 1
 186 280 l 1
 186 274 l 1
 181 265 l 1
 179 278 l 1
211 130 m 1
 211 135 l 1
 214 137 l 1
 215 100 l 1
 211 130 l 1
359 -34 m 1
 359 -24 l 1
 364 -24 l 1
 367 -30 l 1
 364 -34 l 1
 359 -34 l 1
148 245 m 1
 148 250 l 1
 152 250 l 1
 152 235 l 1
 148 245 l 1
316 -35 m 1
 320 -33 l 1
 318 -37 l 1
 316 -61 l 1
 316 -35 l 1
144 173 m 1
 137 182 l 1
 144 182 l 1
 144 173 l 1
191 148 m 1
 195 152 l 1
 198 148 l 1
 194 145 l 1
 191 148 l 1
437 134 m 1
 425 135 l 1
 429 138 l 1
 437 134 l 1
416 10 m 1
 420 0 l 1
 416 0 l 1
 416 10 l 1
137 612 m 1
 144 614 l 1
 147 611 l 1
 137 612 l 1
311 -37 m 1
 312 -40 l 1
 305 -42 l 1
 311 -37 l 1
459 33 m 1
 462 36 l 1
 462 30 l 1
 459 33 l 1
EndSplineSet
EndChar

StartChar: two
Encoding: 50 50 16
Width: 545
Flags: W
LayerCount: 2
Fore
SplineSet
199 14 m 1
 201 21 l 1
 186 23 l 1
 186 28 l 1
 157 28 l 1
 153 18 l 1
 142 16 l 1
 138 19 l 1
 134 19 l 1
 131 26 l 1
 133 29 l 1
 137 29 l 1
 137 33 l 1
 130 32 l 1
 127 22 l 1
 126 28 l 1
 122 28 l 1
 116 24 l 1
 105 28 l 1
 104 40 l 1
 86 48 l 1
 86 60 l 1
 93 58 l 1
 93 53 l 1
 97 52 l 1
 102 57 l 1
 113 56 l 1
 113 60 l 1
 104 72 l 1
 99 85 l 1
 98 100 l 1
 86 90 l 1
 86 100 l 1
 95 114 l 1
 102 134 l 1
 109 141 l 1
 119 162 l 1
 138 219 l 1
 150 235 l 1
 150 243 l 1
 178 287 l 1
 186 292 l 1
 186 300 l 1
 198 316 l 1
 186 316 l 1
 186 328 l 1
 200 328 l 1
 203 319 l 1
 207 328 l 1
 241 374 l 1
 241 378 l 1
 261 407 l 1
 278 441 l 1
 286 453 l 1
 286 550 l 1
 251 541 l 1
 218 525 l 1
 202 523 l 1
 186 511 l 1
 186 500 l 1
 166 500 l 1
 151 480 l 1
 138 476 l 1
 130 468 l 1
 145 453 l 1
 186 428 l 1
 200 409 l 1
 203 400 l 1
 203 391 l 1
 186 380 l 1
 186 361 l 1
 178 354 l 1
 156 354 l 1
 126 367 l 1
 113 375 l 1
 79 389 l 1
 67 400 l 1
 66 419 l 1
 48 429 l 1
 35 440 l 1
 30 447 l 1
 32 468 l 1
 46 500 l 1
 52 527 l 1
 75 582 l 1
 86 600 l 1
 113 627 l 1
 127 636 l 1
 133 638 l 1
 151 651 l 1
 197 673 l 1
 208 675 l 1
 241 675 l 1
 322 652 l 1
 349 636 l 1
 372 600 l 1
 379 600 l 1
 386 590 l 1
 386 581 l 1
 394 574 l 1
 394 564 l 1
 410 534 l 1
 420 500 l 1
 420 492 l 1
 423 486 l 1
 425 449 l 1
 422 438 l 1
 426 442 l 1
 438 472 l 1
 439 442 l 1
 436 429 l 1
 429 423 l 1
 427 418 l 1
 429 414 l 1
 427 410 l 1
 426 415 l 1
 422 415 l 1
 422 400 l 1
 406 341 l 1
 404 344 l 1
 399 344 l 1
 397 350 l 1
 394 344 l 1
 386 341 l 1
 386 333 l 1
 375 309 l 1
 368 307 l 1
 367 300 l 1
 359 300 l 1
 352 285 l 1
 349 284 l 1
 342 274 l 1
 334 270 l 1
 331 272 l 1
 327 270 l 1
 320 262 l 1
 315 252 l 1
 309 250 l 1
 306 253 l 1
 304 246 l 1
 297 243 l 1
 286 232 l 1
 267 220 l 1
 255 200 l 1
 250 200 l 1
 232 188 l 1
 225 175 l 1
 206 158 l 1
 207 167 l 1
 202 167 l 1
 195 162 l 1
 186 161 l 1
 186 141 l 1
 195 149 l 1
 200 149 l 1
 221 156 l 1
 234 157 l 1
 271 169 l 1
 305 173 l 1
 335 180 l 1
 394 180 l 1
 437 175 l 1
 440 186 l 1
 441 200 l 1
 449 200 l 1
 463 220 l 1
 476 220 l 1
 493 208 l 1
 510 183 l 1
 515 165 l 1
 514 134 l 1
 508 119 l 1
 505 100 l 1
 496 78 l 1
 475 66 l 1
 469 60 l 1
 458 55 l 1
 454 51 l 1
 440 46 l 1
 437 43 l 1
 422 43 l 1
 398 46 l 1
 386 42 l 1
 359 40 l 1
 329 29 l 1
 301 25 l 1
 276 17 l 1
 248 20 l 1
 211 22 l 1
 204 9 l 1
 199 14 l 1
286 207 m 1
 286 217 l 1
 305 231 l 1
 309 228 l 1
 313 240 l 1
 324 252 l 1
 314 236 l 1
 311 226 l 1
 303 222 l 1
 297 214 l 1
 286 207 l 1
306 211 m 1
 306 221 l 1
 313 221 l 1
 317 211 l 1
 314 184 l 1
 306 211 l 1
204 367 m 1
 210 373 l 1
 213 370 l 1
 213 365 l 1
 208 340 l 1
 204 367 l 1
95 67 m 1
 86 64 l 1
 86 73 l 1
 95 77 l 1
 95 67 l 1
79 109 m 1
 86 110 l 1
 79 90 l 1
 79 109 l 1
143 344 m 1
 136 354 l 1
 139 356 l 1
 146 353 l 1
 146 348 l 1
 143 344 l 1
475 255 m 1
 466 263 l 1
 469 267 l 1
 475 264 l 1
 475 255 l 1
328 207 m 1
 333 235 l 1
 337 244 l 1
 337 239 l 1
 328 207 l 1
401 438 m 1
 406 436 l 1
 411 447 l 1
 406 447 l 1
 401 438 l 1
386 261 m 1
 386 266 l 1
 395 266 l 1
 397 261 l 1
 386 261 l 1
137 290 m 1
 139 293 l 1
 141 290 l 1
 139 271 l 1
 137 290 l 1
344 234 m 1
 344 239 l 1
 348 239 l 1
 352 242 l 1
 347 231 l 1
 344 234 l 1
168 340 m 1
 171 342 l 1
 175 337 l 1
 173 332 l 1
 168 340 l 1
345 254 m 1
 351 259 l 1
 344 248 l 1
 341 261 l 1
 345 254 l 1
428 400 m 1
 429 408 l 1
 435 400 l 1
 428 400 l 1
150 700 m 1
 155 700 l 1
 153 691 l 1
 150 700 l 1
329 262 m 1
 332 265 l 1
 332 252 l 1
 329 262 l 1
131 270 m 1
 134 273 l 1
 134 266 l 1
 131 270 l 1
239 460 m 1
 235 464 l 1
 239 464 l 1
 239 460 l 1
EndSplineSet
EndChar

StartChar: three
Encoding: 51 51 17
Width: 479
Flags: W
LayerCount: 2
Fore
SplineSet
144 10 m 1
 139 12 l 1
 133 17 l 1
 131 24 l 1
 126 24 l 1
 121 21 l 1
 103 19 l 1
 100 25 l 1
 102 30 l 1
 109 30 l 1
 110 33 l 1
 105 35 l 1
 102 39 l 1
 99 37 l 1
 95 39 l 1
 92 37 l 1
 86 40 l 1
 83 44 l 1
 79 41 l 1
 71 42 l 1
 71 47 l 1
 75 46 l 1
 78 49 l 1
 77 52 l 1
 73 52 l 1
 70 56 l 1
 67 53 l 1
 58 59 l 1
 70 60 l 1
 70 64 l 1
 58 67 l 1
 58 84 l 1
 46 89 l 1
 41 86 l 1
 41 100 l 1
 45 110 l 1
 43 120 l 1
 43 141 l 1
 47 155 l 1
 51 188 l 1
 58 200 l 1
 58 229 l 1
 70 231 l 1
 72 237 l 1
 80 238 l 1
 103 246 l 1
 130 246 l 1
 147 237 l 1
 158 229 l 1
 158 209 l 1
 149 200 l 1
 144 200 l 1
 137 192 l 1
 128 173 l 1
 135 168 l 1
 135 163 l 1
 132 159 l 1
 136 157 l 1
 131 146 l 1
 131 142 l 1
 140 147 l 1
 143 139 l 1
 147 135 l 1
 173 134 l 1
 180 132 l 1
 195 132 l 1
 197 129 l 1
 209 128 l 1
 214 124 l 1
 222 124 l 1
 226 131 l 1
 230 131 l 1
 233 128 l 1
 247 131 l 1
 258 130 l 1
 288 140 l 1
 297 141 l 1
 331 158 l 1
 348 173 l 1
 348 179 l 1
 358 193 l 1
 358 207 l 1
 347 229 l 1
 335 259 l 1
 320 273 l 1
 309 273 l 1
 298 278 l 1
 290 279 l 1
 286 282 l 1
 258 286 l 1
 240 300 l 1
 210 300 l 1
 198 312 l 1
 188 315 l 1
 175 328 l 1
 171 336 l 1
 141 372 l 1
 127 384 l 1
 118 400 l 1
 118 413 l 1
 125 422 l 1
 132 426 l 1
 170 465 l 1
 234 510 l 1
 258 520 l 1
 258 527 l 1
 288 543 l 1
 286 546 l 1
 258 538 l 1
 221 538 l 1
 215 535 l 1
 204 536 l 1
 149 528 l 1
 119 529 l 1
 58 548 l 1
 33 581 l 1
 30 600 l 1
 35 613 l 1
 41 618 l 1
 58 624 l 1
 105 632 l 1
 140 640 l 1
 265 645 l 1
 331 641 l 1
 358 635 l 1
 369 626 l 1
 377 624 l 1
 387 616 l 1
 397 616 l 1
 410 609 l 1
 417 600 l 1
 419 566 l 1
 436 519 l 1
 436 489 l 1
 430 481 l 1
 428 474 l 1
 419 461 l 1
 396 441 l 1
 393 436 l 1
 379 425 l 1
 358 417 l 1
 339 400 l 1
 310 400 l 1
 332 380 l 1
 359 359 l 1
 376 336 l 1
 384 321 l 1
 397 315 l 1
 406 300 l 1
 416 274 l 1
 428 254 l 1
 440 214 l 1
 444 209 l 1
 443 191 l 1
 448 184 l 1
 444 172 l 1
 439 166 l 1
 435 165 l 1
 432 155 l 1
 436 149 l 1
 433 130 l 1
 431 127 l 1
 432 123 l 1
 442 129 l 1
 442 124 l 1
 428 100 l 1
 423 100 l 1
 421 91 l 1
 397 63 l 1
 373 49 l 1
 304 32 l 1
 300 35 l 1
 304 40 l 1
 295 38 l 1
 292 45 l 1
 292 37 l 1
 288 36 l 1
 278 29 l 1
 275 32 l 1
 272 30 l 1
 268 32 l 1
 266 38 l 1
 258 38 l 1
 258 43 l 1
 244 36 l 1
 222 29 l 1
 216 29 l 1
 209 26 l 1
 206 21 l 1
 190 17 l 1
 186 13 l 1
 171 9 l 1
 167 11 l 1
 176 17 l 1
 179 21 l 1
 190 23 l 1
 180 23 l 1
 165 19 l 1
 158 9 l 1
 149 21 l 1
 144 10 l 1
308 20 m 1
 325 26 l 1
 335 35 l 1
 346 38 l 1
 339 32 l 1
 313 18 l 1
 308 20 l 1
440 146 m 1
 444 152 l 1
 449 152 l 1
 447 144 l 1
 440 137 l 1
 440 146 l 1
50 90 m 1
 58 90 l 1
 58 100 l 1
 46 91 l 1
 50 90 l 1
427 173 m 1
 430 169 l 1
 433 176 l 1
 433 183 l 1
 429 183 l 1
 427 173 l 1
72 79 m 1
 74 75 l 1
 78 75 l 1
 81 80 l 1
 76 85 l 1
 72 79 l 1
292 0 m 1
 297 9 l 1
 302 0 l 1
 292 0 l 1
222 25 m 1
 232 25 l 1
 241 29 l 1
 240 22 l 1
 222 25 l 1
144 166 m 1
 148 169 l 1
 148 147 l 1
 144 166 l 1
298 33 m 1
 292 28 l 1
 292 37 l 1
 295 38 l 1
 298 33 l 1
275 681 m 1
 275 686 l 1
 280 686 l 1
 280 681 l 1
 275 681 l 1
293 14 m 1
 293 20 l 1
 297 20 l 1
 297 14 l 1
 293 14 l 1
445 169 m 1
 449 173 l 1
 445 159 l 1
 445 169 l 1
334 181 m 1
 339 186 l 1
 337 177 l 1
 334 181 l 1
233 135 m 1
 240 137 l 1
 237 134 l 1
 233 135 l 1
121 659 m 1
 121 663 l 1
 124 662 l 1
 121 659 l 1
EndSplineSet
EndChar

StartChar: six
Encoding: 54 54 18
Width: 546
Flags: W
LayerCount: 2
Fore
SplineSet
285 -7 m 1
 271 -2 l 1
 267 -2 l 1
 255 3 l 1
 244 5 l 1
 242 8 l 1
 226 15 l 1
 195 32 l 1
 184 41 l 1
 176 45 l 1
 134 79 l 1
 93 120 l 1
 72 153 l 1
 70 148 l 1
 81 130 l 1
 82 127 l 1
 86 125 l 1
 89 112 l 1
 93 110 l 1
 102 99 l 1
 108 94 l 1
 124 76 l 1
 131 71 l 1
 132 67 l 1
 137 65 l 1
 153 52 l 1
 158 43 l 1
 164 43 l 1
 164 37 l 1
 157 41 l 1
 133 61 l 1
 84 109 l 1
 72 128 l 1
 44 183 l 1
 37 204 l 1
 30 258 l 1
 32 284 l 1
 39 297 l 1
 39 309 l 1
 42 317 l 1
 52 378 l 1
 67 418 l 1
 133 558 l 1
 142 569 l 1
 149 585 l 1
 220 661 l 1
 229 666 l 1
 262 694 l 1
 279 717 l 1
 290 719 l 1
 304 710 l 1
 312 701 l 1
 335 688 l 1
 354 662 l 1
 360 644 l 1
 360 618 l 1
 341 570 l 1
 315 536 l 1
 300 507 l 1
 296 495 l 1
 293 493 l 1
 291 487 l 1
 285 482 l 1
 260 445 l 1
 249 425 l 1
 242 403 l 1
 238 398 l 1
 227 368 l 1
 227 363 l 1
 251 377 l 1
 258 380 l 1
 293 400 l 1
 297 399 l 1
 302 402 l 1
 313 400 l 1
 315 404 l 1
 318 403 l 1
 323 406 l 1
 336 406 l 1
 346 407 l 1
 346 401 l 1
 333 397 l 1
 329 399 l 1
 329 392 l 1
 345 395 l 1
 357 396 l 1
 359 393 l 1
 364 399 l 1
 369 398 l 1
 371 393 l 1
 381 398 l 1
 381 393 l 1
 387 393 l 1
 395 389 l 1
 411 385 l 1
 435 375 l 1
 461 350 l 1
 474 335 l 1
 477 328 l 1
 479 331 l 1
 488 320 l 1
 490 316 l 1
 497 308 l 1
 508 286 l 1
 511 273 l 1
 508 256 l 1
 501 244 l 1
 499 227 l 1
 500 224 l 1
 504 219 l 1
 504 215 l 1
 508 215 l 1
 510 208 l 1
 516 208 l 1
 512 185 l 1
 488 145 l 1
 488 141 l 1
 493 141 l 1
 485 132 l 1
 476 117 l 1
 467 111 l 1
 423 60 l 1
 419 45 l 1
 401 34 l 1
 387 23 l 1
 373 15 l 1
 362 5 l 1
 349 3 l 1
 346 5 l 1
 335 5 l 1
 327 -2 l 1
 323 -9 l 1
 312 -9 l 1
 308 -7 l 1
 305 -9 l 1
 285 -7 l 1
244 125 m 1
 291 103 l 1
 318 112 l 1
 348 133 l 1
 385 190 l 1
 379 250 l 1
 369 277 l 1
 358 297 l 1
 356 304 l 1
 349 308 l 1
 341 308 l 1
 335 305 l 1
 325 304 l 1
 319 300 l 1
 316 295 l 1
 309 289 l 1
 309 282 l 1
 307 278 l 1
 296 273 l 1
 287 272 l 1
 276 266 l 1
 266 262 l 1
 259 256 l 1
 253 255 l 1
 229 242 l 1
 222 233 l 1
 218 237 l 1
 211 234 l 1
 202 224 l 1
 194 232 l 1
 191 229 l 1
 191 214 l 1
 189 211 l 1
 189 196 l 1
 195 173 l 1
 213 153 l 1
 244 125 l 1
287 -27 m 1
 287 -22 l 1
 291 -15 l 1
 301 -15 l 1
 307 -22 l 1
 304 -24 l 1
 298 -30 l 1
 291 -24 l 1
 287 -27 l 1
294 153 m 1
 294 159 l 1
 298 163 l 1
 302 161 l 1
 302 153 l 1
 294 153 l 1
294 113 m 1
 298 120 l 1
 302 120 l 1
 302 110 l 1
 297 110 l 1
 294 113 l 1
469 88 m 1
 475 95 l 1
 477 89 l 1
 472 85 l 1
 469 88 l 1
174 29 m 1
 169 37 l 1
 184 26 l 1
 174 29 l 1
379 -11 m 1
 379 -6 l 1
 384 -6 l 1
 384 -11 l 1
 379 -11 l 1
388 -8 m 1
 388 -2 l 1
 392 -2 l 1
 392 -8 l 1
 388 -8 l 1
297 404 m 1
 304 406 l 1
 308 406 l 1
 305 403 l 1
 297 404 l 1
500 132 m 1
 504 132 l 1
 504 128 l 1
 500 128 l 1
 500 132 l 1
355 -17 m 1
 357 -14 l 1
 360 -17 l 1
 357 -20 l 1
 355 -17 l 1
340 -34 m 1
 342 -26 l 1
 345 -27 l 1
 340 -34 l 1
191 22 m 1
 187 22 l 1
 188 27 l 1
 191 22 l 1
374 404 m 1
 378 404 l 1
 376 400 l 1
 374 404 l 1
EndSplineSet
EndChar

StartChar: seven
Encoding: 55 55 19
Width: 518
Flags: W
LayerCount: 2
Fore
SplineSet
87 88 m 1
 97 103 l 1
 106 123 l 1
 131 162 l 1
 135 177 l 1
 195 286 l 1
 199 296 l 1
 226 339 l 1
 227 344 l 1
 234 349 l 1
 276 420 l 1
 284 436 l 1
 303 460 l 1
 351 536 l 1
 351 543 l 1
 318 536 l 1
 311 536 l 1
 301 530 l 1
 286 527 l 1
 281 524 l 1
 257 517 l 1
 230 512 l 1
 202 509 l 1
 191 511 l 1
 181 507 l 1
 170 509 l 1
 156 507 l 1
 133 514 l 1
 121 522 l 1
 113 525 l 1
 68 563 l 1
 44 588 l 1
 39 601 l 1
 30 634 l 1
 34 641 l 1
 49 657 l 1
 75 661 l 1
 115 661 l 1
 219 679 l 1
 235 685 l 1
 257 689 l 1
 290 693 l 1
 336 692 l 1
 374 688 l 1
 419 679 l 1
 430 678 l 1
 452 671 l 1
 468 661 l 1
 481 627 l 1
 486 569 l 1
 488 565 l 1
 485 534 l 1
 479 512 l 1
 481 507 l 1
 468 453 l 1
 457 424 l 1
 445 399 l 1
 434 388 l 1
 411 353 l 1
 407 351 l 1
 396 333 l 1
 387 326 l 1
 387 322 l 1
 392 323 l 1
 389 317 l 1
 376 304 l 1
 374 297 l 1
 371 295 l 1
 368 288 l 1
 357 273 l 1
 354 263 l 1
 331 234 l 1
 327 233 l 1
 324 227 l 1
 313 219 l 1
 300 207 l 1
 300 202 l 1
 316 212 l 1
 312 201 l 1
 293 171 l 1
 287 165 l 1
 283 157 l 1
 276 150 l 1
 261 123 l 1
 256 121 l 1
 244 108 l 1
 244 103 l 1
 252 108 l 1
 247 99 l 1
 242 99 l 1
 242 91 l 1
 238 88 l 1
 227 76 l 1
 204 41 l 1
 204 36 l 1
 209 36 l 1
 220 48 l 1
 222 45 l 1
 229 52 l 1
 229 48 l 1
 219 29 l 1
 193 -1 l 1
 188 -4 l 1
 183 -20 l 1
 170 -22 l 1
 167 -19 l 1
 160 -19 l 1
 159 -33 l 1
 156 -24 l 1
 150 -28 l 1
 146 -22 l 1
 141 -23 l 1
 137 -20 l 1
 137 -15 l 1
 132 -13 l 1
 118 -12 l 1
 73 36 l 1
 67 72 l 1
 71 72 l 1
 80 65 l 1
 76 79 l 1
 79 76 l 1
 87 59 l 1
 87 67 l 1
 82 81 l 1
 87 88 l 1
170 -32 m 1
 178 -27 l 1
 170 -38 l 1
 170 -32 l 1
222 45 m 1
 225 61 l 1
 229 67 l 1
 222 45 l 1
87 76 m 1
 87 88 l 1
 90 79 l 1
 87 76 l 1
232 75 m 1
 236 77 l 1
 229 67 l 1
 232 75 l 1
EndSplineSet
EndChar

StartChar: eight
Encoding: 56 56 20
Width: 468
Flags: W
LayerCount: 2
Fore
SplineSet
229 -26 m 1
 181 -23 l 1
 158 -26 l 1
 125 -20 l 1
 94 4 l 1
 71 27 l 1
 53 59 l 1
 40 111 l 1
 42 133 l 1
 42 168 l 1
 61 225 l 1
 83 270 l 1
 132 334 l 1
 129 353 l 1
 120 364 l 1
 116 371 l 1
 99 392 l 1
 90 399 l 1
 77 413 l 1
 45 459 l 1
 32 502 l 1
 32 514 l 1
 30 535 l 1
 37 553 l 1
 40 572 l 1
 47 593 l 1
 59 608 l 1
 90 633 l 1
 120 649 l 1
 144 657 l 1
 161 659 l 1
 200 659 l 1
 223 655 l 1
 291 622 l 1
 336 590 l 1
 352 576 l 1
 362 560 l 1
 367 554 l 1
 373 554 l 1
 375 547 l 1
 381 547 l 1
 383 541 l 1
 383 528 l 1
 379 526 l 1
 379 508 l 1
 376 501 l 1
 373 476 l 1
 370 474 l 1
 369 465 l 1
 353 443 l 1
 346 428 l 1
 336 419 l 1
 327 404 l 1
 321 400 l 1
 306 382 l 1
 306 377 l 1
 333 351 l 1
 338 343 l 1
 357 321 l 1
 362 311 l 1
 363 302 l 1
 366 301 l 1
 369 306 l 1
 386 279 l 1
 400 251 l 1
 400 245 l 1
 404 244 l 1
 422 212 l 1
 434 173 l 1
 434 137 l 1
 438 122 l 1
 438 107 l 1
 430 88 l 1
 411 62 l 1
 404 50 l 1
 401 49 l 1
 395 38 l 1
 381 21 l 1
 358 7 l 1
 347 -2 l 1
 327 -11 l 1
 308 -15 l 1
 285 -23 l 1
 266 -26 l 1
 255 -26 l 1
 250 -28 l 1
 229 -26 l 1
193 65 m 1
 233 70 l 1
 257 80 l 1
 294 121 l 1
 289 132 l 1
 285 156 l 1
 251 215 l 1
 244 230 l 1
 239 234 l 1
 238 241 l 1
 236 245 l 1
 233 248 l 1
 232 254 l 1
 227 260 l 1
 227 267 l 1
 220 274 l 1
 214 262 l 1
 204 233 l 1
 200 226 l 1
 184 190 l 1
 181 178 l 1
 179 175 l 1
 174 157 l 1
 174 129 l 1
 186 82 l 1
 193 65 l 1
236 447 m 1
 261 423 l 1
 270 440 l 1
 281 470 l 1
 277 486 l 1
 263 517 l 1
 242 539 l 1
 233 533 l 1
 227 536 l 1
 224 542 l 1
 225 547 l 1
 221 553 l 1
 205 543 l 1
 190 523 l 1
 193 505 l 1
 230 453 l 1
 236 447 l 1
229 118 m 1
 229 127 l 1
 236 137 l 1
 244 137 l 1
 248 133 l 1
 248 118 l 1
 242 113 l 1
 234 113 l 1
 229 118 l 1
212 131 m 1
 212 141 l 1
 215 144 l 1
 224 144 l 1
 227 138 l 1
 227 132 l 1
 220 128 l 1
 212 131 l 1
223 175 m 1
 226 181 l 1
 229 175 l 1
 223 175 l 1
EndSplineSet
EndChar

StartChar: nine
Encoding: 57 57 21
Width: 504
Flags: W
LayerCount: 2
Fore
SplineSet
206 7 m 1
 195 14 l 1
 191 18 l 1
 181 18 l 1
 174 22 l 1
 170 21 l 1
 168 25 l 1
 157 27 l 1
 151 33 l 1
 143 37 l 1
 140 33 l 1
 140 39 l 1
 136 41 l 1
 132 46 l 1
 126 47 l 1
 123 43 l 1
 121 50 l 1
 120 44 l 1
 117 53 l 1
 110 56 l 1
 108 63 l 1
 106 59 l 1
 101 61 l 1
 101 51 l 1
 94 57 l 1
 89 86 l 1
 87 76 l 1
 83 92 l 1
 85 107 l 1
 85 128 l 1
 90 141 l 1
 104 167 l 1
 106 175 l 1
 115 183 l 1
 130 189 l 1
 156 190 l 1
 167 183 l 1
 180 184 l 1
 187 178 l 1
 189 165 l 1
 195 160 l 1
 199 159 l 1
 202 153 l 1
 202 124 l 1
 194 120 l 1
 184 118 l 1
 178 114 l 1
 168 111 l 1
 163 105 l 1
 169 96 l 1
 191 98 l 1
 204 105 l 1
 214 112 l 1
 270 125 l 1
 280 130 l 1
 317 164 l 1
 322 178 l 1
 329 209 l 1
 332 232 l 1
 333 291 l 1
 331 288 l 1
 325 286 l 1
 321 281 l 1
 303 273 l 1
 295 271 l 1
 289 267 l 1
 246 264 l 1
 209 268 l 1
 206 271 l 1
 187 272 l 1
 163 276 l 1
 157 272 l 1
 154 279 l 1
 129 285 l 1
 89 309 l 1
 71 327 l 1
 46 371 l 1
 42 380 l 1
 30 431 l 1
 30 481 l 1
 36 506 l 1
 49 543 l 1
 73 588 l 1
 88 609 l 1
 114 632 l 1
 123 638 l 1
 126 642 l 1
 168 666 l 1
 179 670 l 1
 187 670 l 1
 195 673 l 1
 210 666 l 1
 215 669 l 1
 225 660 l 1
 238 660 l 1
 249 657 l 1
 255 647 l 1
 269 637 l 1
 276 657 l 1
 288 665 l 1
 303 670 l 1
 321 667 l 1
 352 648 l 1
 376 630 l 1
 384 626 l 1
 395 615 l 1
 403 611 l 1
 416 599 l 1
 456 549 l 1
 459 540 l 1
 471 474 l 1
 471 445 l 1
 474 409 l 1
 471 391 l 1
 468 351 l 1
 466 337 l 1
 463 330 l 1
 459 294 l 1
 456 279 l 1
 453 273 l 1
 444 222 l 1
 434 190 l 1
 431 160 l 1
 427 157 l 1
 414 132 l 1
 409 126 l 1
 407 120 l 1
 402 111 l 1
 398 107 l 1
 395 99 l 1
 391 94 l 1
 384 88 l 1
 377 74 l 1
 370 71 l 1
 361 58 l 1
 348 47 l 1
 344 47 l 1
 340 43 l 1
 332 41 l 1
 325 36 l 1
 316 33 l 1
 306 26 l 1
 291 20 l 1
 267 20 l 1
 261 15 l 1
 241 5 l 1
 232 10 l 1
 220 4 l 1
 206 7 l 1
187 379 m 1
 190 376 l 1
 214 383 l 1
 246 398 l 1
 290 426 l 1
 301 447 l 1
 305 465 l 1
 291 480 l 1
 286 489 l 1
 284 504 l 1
 280 508 l 1
 273 511 l 1
 242 502 l 1
 231 493 l 1
 236 489 l 1
 229 484 l 1
 227 487 l 1
 227 491 l 1
 218 485 l 1
 210 475 l 1
 192 446 l 1
 185 416 l 1
 185 396 l 1
 187 389 l 1
 187 379 l 1
249 428 m 1
 239 438 l 1
 239 457 l 1
 246 465 l 1
 259 465 l 1
 267 456 l 1
 270 447 l 1
 267 437 l 1
 259 428 l 1
 249 428 l 1
92 204 m 1
 87 211 l 1
 87 223 l 1
 92 228 l 1
 98 228 l 1
 106 222 l 1
 108 212 l 1
 106 205 l 1
 102 202 l 1
 92 204 l 1
358 22 m 1
 353 29 l 1
 358 38 l 1
 364 41 l 1
 373 38 l 1
 374 26 l 1
 370 22 l 1
 358 22 l 1
55 326 m 1
 59 326 l 1
 59 322 l 1
 55 322 l 1
 55 326 l 1
EndSplineSet
EndChar

StartChar: colon
Encoding: 58 58 22
Width: 169
Flags: W
LayerCount: 2
Fore
SplineSet
91 358 m 1
 88 360 l 1
 67 366 l 1
 52 368 l 1
 45 371 l 1
 33 383 l 1
 30 390 l 1
 30 399 l 1
 32 407 l 1
 32 413 l 1
 34 422 l 1
 37 426 l 1
 37 435 l 1
 42 447 l 1
 45 450 l 1
 51 462 l 1
 57 466 l 1
 61 466 l 1
 65 464 l 1
 69 464 l 1
 76 462 l 1
 79 459 l 1
 86 459 l 1
 101 455 l 1
 114 448 l 1
 117 446 l 1
 130 437 l 1
 139 424 l 1
 139 400 l 1
 130 390 l 1
 128 387 l 1
 126 379 l 1
 126 366 l 1
 123 362 l 1
 107 357 l 1
 91 358 l 1
91 7 m 1
 88 9 l 1
 67 15 l 1
 52 17 l 1
 45 20 l 1
 33 32 l 1
 30 39 l 1
 30 48 l 1
 32 56 l 1
 32 62 l 1
 34 71 l 1
 37 75 l 1
 37 84 l 1
 42 96 l 1
 45 99 l 1
 51 111 l 1
 57 115 l 1
 61 115 l 1
 65 113 l 1
 69 113 l 1
 76 111 l 1
 79 108 l 1
 86 108 l 1
 101 104 l 1
 114 97 l 1
 117 95 l 1
 130 86 l 1
 139 73 l 1
 139 49 l 1
 130 39 l 1
 128 36 l 1
 126 28 l 1
 126 15 l 1
 123 11 l 1
 107 6 l 1
 91 7 l 1
EndSplineSet
EndChar

StartChar: semicolon
Encoding: 59 59 23
Width: 169
Flags: W
LayerCount: 2
Fore
SplineSet
91 358 m 1
 88 360 l 1
 67 366 l 1
 52 368 l 1
 45 371 l 1
 33 383 l 1
 30 390 l 1
 30 399 l 1
 32 407 l 1
 32 413 l 1
 34 422 l 1
 37 426 l 1
 37 435 l 1
 42 447 l 1
 45 450 l 1
 51 462 l 1
 57 466 l 1
 61 466 l 1
 65 464 l 1
 69 464 l 1
 76 462 l 1
 79 459 l 1
 86 459 l 1
 101 455 l 1
 114 448 l 1
 117 446 l 1
 130 437 l 1
 139 424 l 1
 139 400 l 1
 130 390 l 1
 128 387 l 1
 126 379 l 1
 126 366 l 1
 123 362 l 1
 107 357 l 1
 91 358 l 1
58 -100 m 1
 54 -99 l 1
 54 -92 l 1
 53 -89 l 1
 56 -81 l 1
 63 -73 l 1
 74 -70 l 1
 83 -71 l 1
 86 -68 l 1
 92 -56 l 1
 100 -30 l 1
 101 -24 l 1
 99 -14 l 1
 95 -12 l 1
 91 -16 l 1
 87 -13 l 1
 81 -15 l 1
 58 -14 l 1
 53 -11 l 1
 49 -11 l 1
 39 -5 l 1
 38 1 l 1
 34 8 l 1
 30 20 l 1
 32 43 l 1
 36 61 l 1
 51 96 l 1
 55 100 l 1
 64 99 l 1
 72 97 l 1
 76 99 l 1
 82 98 l 1
 85 96 l 1
 94 95 l 1
 100 90 l 1
 102 84 l 1
 107 82 l 1
 133 62 l 1
 141 50 l 1
 144 43 l 1
 150 14 l 1
 148 6 l 1
 148 -7 l 1
 141 -7 l 1
 133 -29 l 1
 119 -54 l 1
 116 -65 l 1
 110 -68 l 1
 109 -76 l 1
 104 -81 l 1
 98 -94 l 1
 92 -98 l 1
 91 -103 l 1
 80 -104 l 1
 66 -104 l 1
 58 -100 l 1
EndSplineSet
EndChar

StartChar: question
Encoding: 63 63 24
Width: 484
Flags: W
LayerCount: 2
Fore
SplineSet
242 136 m 1
 236 144 l 1
 232 137 l 1
 229 146 l 1
 219 147 l 1
 217 157 l 1
 213 157 l 1
 211 153 l 1
 208 163 l 1
 204 168 l 1
 203 178 l 1
 199 180 l 1
 199 187 l 1
 200 191 l 1
 197 189 l 1
 199 197 l 1
 195 224 l 1
 192 228 l 1
 197 230 l 1
 194 242 l 1
 194 255 l 1
 196 273 l 1
 200 273 l 1
 200 317 l 1
 206 333 l 1
 207 355 l 1
 219 398 l 1
 231 418 l 1
 225 418 l 1
 221 420 l 1
 218 431 l 1
 221 438 l 1
 229 444 l 1
 234 444 l 1
 243 432 l 1
 266 463 l 1
 275 472 l 1
 281 484 l 1
 302 518 l 1
 317 553 l 1
 324 577 l 1
 324 603 l 1
 305 619 l 1
 297 611 l 1
 290 607 l 1
 278 606 l 1
 255 588 l 1
 244 584 l 1
 233 572 l 1
 212 538 l 1
 202 527 l 1
 199 526 l 1
 190 519 l 1
 195 506 l 1
 206 491 l 1
 217 485 l 1
 221 469 l 1
 219 453 l 1
 212 444 l 1
 199 439 l 1
 190 439 l 1
 176 444 l 1
 160 447 l 1
 140 457 l 1
 130 464 l 1
 100 474 l 1
 89 480 l 1
 66 498 l 1
 48 528 l 1
 44 532 l 1
 39 543 l 1
 30 554 l 1
 32 557 l 1
 32 562 l 1
 35 565 l 1
 41 575 l 1
 51 606 l 1
 65 631 l 1
 78 647 l 1
 113 682 l 1
 131 695 l 1
 144 701 l 1
 149 706 l 1
 151 711 l 1
 160 712 l 1
 172 719 l 1
 181 721 l 1
 193 733 l 1
 199 734 l 1
 206 739 l 1
 222 743 l 1
 254 742 l 1
 269 739 l 1
 272 737 l 1
 291 733 l 1
 305 728 l 1
 315 722 l 1
 350 707 l 1
 392 671 l 1
 396 663 l 1
 436 613 l 1
 448 595 l 1
 448 578 l 1
 454 579 l 1
 454 554 l 1
 443 548 l 1
 440 537 l 1
 436 535 l 1
 429 517 l 1
 424 515 l 1
 423 511 l 1
 414 503 l 1
 402 482 l 1
 386 463 l 1
 385 449 l 1
 380 439 l 1
 375 434 l 1
 371 416 l 1
 358 396 l 1
 356 383 l 1
 355 366 l 1
 349 353 l 1
 340 349 l 1
 338 332 l 1
 334 327 l 1
 329 325 l 1
 314 284 l 1
 308 277 l 1
 305 278 l 1
 300 264 l 1
 295 268 l 1
 291 254 l 1
 294 240 l 1
 291 208 l 1
 292 199 l 1
 299 196 l 1
 311 178 l 1
 311 166 l 1
 302 156 l 1
 286 151 l 1
 277 154 l 1
 274 150 l 1
 268 150 l 1
 259 137 l 1
 258 140 l 1
 254 140 l 1
 248 134 l 1
 242 136 l 1
258 18 m 1
 250 13 l 1
 249 16 l 1
 243 16 l 1
 241 20 l 1
 237 20 l 1
 234 16 l 1
 228 16 l 1
 222 20 l 1
 214 22 l 1
 210 32 l 1
 207 44 l 1
 206 40 l 1
 206 47 l 1
 209 52 l 1
 210 79 l 1
 219 97 l 1
 222 98 l 1
 228 108 l 1
 238 111 l 1
 247 112 l 1
 253 111 l 1
 272 118 l 1
 287 115 l 1
 293 109 l 1
 306 107 l 1
 309 102 l 1
 311 93 l 1
 315 103 l 1
 323 76 l 1
 326 75 l 1
 326 64 l 1
 320 65 l 1
 318 62 l 1
 314 43 l 1
 306 41 l 1
 304 28 l 1
 300 23 l 1
 298 26 l 1
 293 4 l 1
 290 7 l 1
 288 16 l 1
 284 13 l 1
 277 4 l 1
 271 7 l 1
 258 18 l 1
231 509 m 1
 231 515 l 1
 234 520 l 1
 241 520 l 1
 241 511 l 1
 238 509 l 1
 231 509 l 1
225 481 m 1
 225 491 l 1
 231 494 l 1
 234 491 l 1
 234 484 l 1
 231 481 l 1
 225 481 l 1
238 547 m 1
 243 547 l 1
 243 538 l 1
 238 538 l 1
 238 547 l 1
200 364 m 1
 203 371 l 1
 206 373 l 1
 206 368 l 1
 200 359 l 1
 200 364 l 1
213 416 m 1
 218 417 l 1
 218 410 l 1
 213 409 l 1
 213 416 l 1
194 299 m 1
 192 291 l 1
 194 304 l 1
 194 299 l 1
EndSplineSet
EndChar

StartChar: at
Encoding: 64 64 25
Width: 657
Flags: W
LayerCount: 2
Fore
SplineSet
293 -2 m 1
 247 12 l 1
 172 50 l 1
 142 76 l 1
 91 145 l 1
 46 227 l 1
 34 265 l 1
 30 299 l 1
 30 336 l 1
 36 367 l 1
 36 384 l 1
 39 406 l 1
 40 435 l 1
 52 484 l 1
 67 511 l 1
 90 545 l 1
 99 563 l 1
 121 597 l 1
 148 625 l 1
 157 631 l 1
 164 631 l 1
 178 649 l 1
 217 671 l 1
 224 673 l 1
 227 678 l 1
 245 688 l 1
 288 699 l 1
 322 697 l 1
 326 699 l 1
 341 699 l 1
 436 676 l 1
 483 658 l 1
 491 653 l 1
 524 625 l 1
 527 617 l 1
 539 615 l 1
 552 604 l 1
 569 593 l 1
 587 570 l 1
 596 551 l 1
 596 533 l 1
 607 516 l 1
 615 493 l 1
 616 463 l 1
 619 471 l 1
 623 471 l 1
 627 462 l 1
 624 460 l 1
 624 443 l 1
 627 425 l 1
 615 386 l 1
 617 381 l 1
 613 377 l 1
 606 359 l 1
 606 346 l 1
 599 328 l 1
 597 317 l 1
 593 310 l 1
 591 287 l 1
 588 279 l 1
 588 263 l 1
 591 256 l 1
 576 212 l 1
 575 204 l 1
 566 194 l 1
 557 189 l 1
 544 185 l 1
 509 185 l 1
 455 191 l 1
 430 201 l 1
 391 238 l 1
 383 238 l 1
 370 233 l 1
 362 233 l 1
 328 222 l 1
 298 215 l 1
 281 217 l 1
 277 219 l 1
 271 219 l 1
 244 226 l 1
 228 233 l 1
 208 238 l 1
 191 249 l 1
 181 264 l 1
 178 280 l 1
 178 299 l 1
 181 310 l 1
 196 328 l 1
 222 348 l 1
 251 361 l 1
 263 370 l 1
 317 385 l 1
 338 393 l 1
 342 397 l 1
 353 399 l 1
 347 418 l 1
 346 439 l 1
 340 444 l 1
 292 415 l 1
 256 404 l 1
 224 410 l 1
 199 430 l 1
 191 441 l 1
 191 451 l 1
 205 476 l 1
 232 505 l 1
 249 516 l 1
 274 528 l 1
 290 531 l 1
 317 531 l 1
 329 534 l 1
 347 532 l 1
 368 524 l 1
 389 504 l 1
 413 493 l 1
 442 468 l 1
 463 432 l 1
 471 413 l 1
 471 397 l 1
 459 376 l 1
 449 366 l 1
 443 365 l 1
 432 329 l 1
 432 317 l 1
 437 291 l 1
 449 271 l 1
 456 271 l 1
 456 267 l 1
 479 247 l 1
 485 239 l 1
 505 239 l 1
 517 242 l 1
 531 254 l 1
 531 295 l 1
 525 317 l 1
 531 410 l 1
 528 432 l 1
 527 463 l 1
 529 466 l 1
 524 474 l 1
 520 475 l 1
 520 482 l 1
 515 490 l 1
 507 492 l 1
 505 503 l 1
 500 503 l 1
 500 509 l 1
 493 514 l 1
 491 520 l 1
 447 581 l 1
 438 590 l 1
 406 607 l 1
 352 624 l 1
 328 628 l 1
 315 623 l 1
 309 627 l 1
 304 624 l 1
 288 623 l 1
 272 615 l 1
 253 600 l 1
 250 604 l 1
 241 595 l 1
 236 593 l 1
 211 568 l 1
 207 561 l 1
 202 563 l 1
 195 552 l 1
 191 552 l 1
 168 523 l 1
 154 495 l 1
 154 487 l 1
 147 485 l 1
 137 462 l 1
 136 451 l 1
 127 421 l 1
 124 403 l 1
 118 385 l 1
 117 358 l 1
 112 344 l 1
 110 314 l 1
 106 305 l 1
 106 268 l 1
 111 231 l 1
 118 215 l 1
 142 173 l 1
 145 171 l 1
 185 106 l 1
 205 88 l 1
 224 75 l 1
 268 60 l 1
 323 63 l 1
 392 75 l 1
 416 82 l 1
 455 129 l 1
 484 145 l 1
 503 145 l 1
 511 143 l 1
 521 136 l 1
 523 131 l 1
 541 114 l 1
 544 99 l 1
 539 91 l 1
 530 86 l 1
 518 83 l 1
 514 71 l 1
 506 61 l 1
 497 55 l 1
 497 51 l 1
 485 42 l 1
 483 38 l 1
 473 31 l 1
 467 31 l 1
 459 25 l 1
 430 13 l 1
 380 0 l 1
 350 -4 l 1
 306 -5 l 1
 293 -2 l 1
244 271 m 1
 255 271 l 1
 292 286 l 1
 317 293 l 1
 341 307 l 1
 355 310 l 1
 356 350 l 1
 341 348 l 1
 320 340 l 1
 306 337 l 1
 288 329 l 1
 286 326 l 1
 244 293 l 1
 239 282 l 1
 244 271 l 1
441 620 m 1
 449 618 l 1
 427 630 l 1
 403 638 l 1
 381 640 l 1
 387 637 l 1
 403 634 l 1
 435 624 l 1
 441 620 l 1
496 526 m 1
 497 533 l 1
 491 544 l 1
 476 558 l 1
 476 550 l 1
 482 548 l 1
 479 546 l 1
 491 534 l 1
 496 526 l 1
236 678 m 1
 249 679 l 1
 260 685 l 1
 260 689 l 1
 254 689 l 1
 236 678 l 1
359 595 m 1
 359 601 l 1
 365 603 l 1
 370 601 l 1
 370 594 l 1
 359 595 l 1
503 598 m 1
 503 602 l 1
 485 626 l 1
 476 628 l 1
 488 620 l 1
 503 598 l 1
382 569 m 1
 385 571 l 1
 389 571 l 1
 389 566 l 1
 383 566 l 1
 382 569 l 1
499 406 m 1
 503 408 l 1
 507 408 l 1
 507 402 l 1
 499 406 l 1
392 588 m 1
 397 588 l 1
 397 583 l 1
 392 583 l 1
 392 588 l 1
396 517 m 1
 403 522 l 1
 403 515 l 1
 396 517 l 1
428 522 m 1
 430 526 l 1
 435 526 l 1
 435 522 l 1
 428 522 l 1
371 581 m 1
 375 585 l 1
 378 583 l 1
 378 579 l 1
 371 581 l 1
173 425 m 1
 178 426 l 1
 178 422 l 1
 175 421 l 1
 173 425 l 1
397 143 m 1
 400 140 l 1
 397 134 l 1
 397 143 l 1
509 498 m 1
 513 495 l 1
 506 505 l 1
 509 498 l 1
517 440 m 1
 520 443 l 1
 520 438 l 1
 517 440 l 1
EndSplineSet
EndChar

StartChar: A
Encoding: 65 65 26
Width: 573
Flags: W
LayerCount: 2
Fore
SplineSet
131 -32 m 1
 119 -27 l 1
 111 -19 l 1
 102 -1 l 1
 102 62 l 1
 114 129 l 1
 114 140 l 1
 105 142 l 1
 99 146 l 1
 89 146 l 1
 66 165 l 1
 49 170 l 1
 39 179 l 1
 34 181 l 1
 30 190 l 1
 30 203 l 1
 40 215 l 1
 58 225 l 1
 70 227 l 1
 82 236 l 1
 102 245 l 1
 110 251 l 1
 119 253 l 1
 123 257 l 1
 146 446 l 1
 155 493 l 1
 156 506 l 1
 167 561 l 1
 182 617 l 1
 187 627 l 1
 187 633 l 1
 177 651 l 1
 165 663 l 1
 165 674 l 1
 167 687 l 1
 182 697 l 1
 188 697 l 1
 191 695 l 1
 217 686 l 1
 227 686 l 1
 236 683 l 1
 263 670 l 1
 276 657 l 1
 301 641 l 1
 307 634 l 1
 325 622 l 1
 362 554 l 1
 372 539 l 1
 376 523 l 1
 382 516 l 1
 384 496 l 1
 379 490 l 1
 383 487 l 1
 383 477 l 1
 392 451 l 1
 392 445 l 1
 396 441 l 1
 398 428 l 1
 393 416 l 1
 404 399 l 1
 416 370 l 1
 422 367 l 1
 419 361 l 1
 426 347 l 1
 432 343 l 1
 448 347 l 1
 466 354 l 1
 476 351 l 1
 489 342 l 1
 496 334 l 1
 503 332 l 1
 505 323 l 1
 512 318 l 1
 510 298 l 1
 508 304 l 1
 504 304 l 1
 506 292 l 1
 512 292 l 1
 518 297 l 1
 531 289 l 1
 531 283 l 1
 517 283 l 1
 520 280 l 1
 525 280 l 1
 527 276 l 1
 520 276 l 1
 508 282 l 1
 508 277 l 1
 514 273 l 1
 514 269 l 1
 506 269 l 1
 502 267 l 1
 495 267 l 1
 476 273 l 1
 466 268 l 1
 462 263 l 1
 458 248 l 1
 455 245 l 1
 455 234 l 1
 462 234 l 1
 462 240 l 1
 466 250 l 1
 468 244 l 1
 468 236 l 1
 462 232 l 1
 462 228 l 1
 465 226 l 1
 469 234 l 1
 473 234 l 1
 473 244 l 1
 476 232 l 1
 469 227 l 1
 473 226 l 1
 469 219 l 1
 466 217 l 1
 470 215 l 1
 478 219 l 1
 480 205 l 1
 478 202 l 1
 478 188 l 1
 482 176 l 1
 484 190 l 1
 488 195 l 1
 491 190 l 1
 491 186 l 1
 487 180 l 1
 490 175 l 1
 490 162 l 1
 491 171 l 1
 498 158 l 1
 504 155 l 1
 502 140 l 1
 514 133 l 1
 522 121 l 1
 522 106 l 1
 519 95 l 1
 525 91 l 1
 529 98 l 1
 535 93 l 1
 535 85 l 1
 527 71 l 1
 527 59 l 1
 518 51 l 1
 516 45 l 1
 511 39 l 1
 502 42 l 1
 483 33 l 1
 479 35 l 1
 474 33 l 1
 464 41 l 1
 461 56 l 1
 468 66 l 1
 464 72 l 1
 459 69 l 1
 462 75 l 1
 460 83 l 1
 457 85 l 1
 441 117 l 1
 437 121 l 1
 417 156 l 1
 412 158 l 1
 405 168 l 1
 399 168 l 1
 390 164 l 1
 380 146 l 1
 377 125 l 1
 372 123 l 1
 362 123 l 1
 357 127 l 1
 357 141 l 1
 365 148 l 1
 369 148 l 1
 387 181 l 1
 401 183 l 1
 393 198 l 1
 392 203 l 1
 384 215 l 1
 382 221 l 1
 370 242 l 1
 355 242 l 1
 341 230 l 1
 339 224 l 1
 334 218 l 1
 313 207 l 1
 294 188 l 1
 277 182 l 1
 267 176 l 1
 263 168 l 1
 257 168 l 1
 243 154 l 1
 236 152 l 1
 234 148 l 1
 222 144 l 1
 215 133 l 1
 210 118 l 1
 235 118 l 1
 246 115 l 1
 262 99 l 1
 268 71 l 1
 268 39 l 1
 262 18 l 1
 252 -6 l 1
 244 -15 l 1
 234 -20 l 1
 213 -24 l 1
 185 -25 l 1
 181 -30 l 1
 169 -30 l 1
 162 -32 l 1
 134 -34 l 1
 131 -32 l 1
276 317 m 1
 276 300 l 1
 332 332 l 1
 324 345 l 1
 321 347 l 1
 321 351 l 1
 324 353 l 1
 310 426 l 1
 284 484 l 1
 276 317 l 1
379 43 m 1
 370 52 l 1
 374 64 l 1
 383 67 l 1
 395 63 l 1
 405 54 l 1
 405 44 l 1
 391 40 l 1
 379 43 l 1
344 61 m 1
 334 70 l 1
 334 83 l 1
 344 91 l 1
 351 91 l 1
 357 85 l 1
 357 70 l 1
 348 61 l 1
 344 61 l 1
305 86 m 1
 301 94 l 1
 301 104 l 1
 309 111 l 1
 317 111 l 1
 322 104 l 1
 322 90 l 1
 315 83 l 1
 305 86 l 1
529 215 m 1
 529 219 l 1
 533 223 l 1
 540 223 l 1
 543 219 l 1
 543 212 l 1
 533 212 l 1
 529 215 l 1
491 218 m 1
 491 226 l 1
 496 230 l 1
 502 226 l 1
 502 219 l 1
 498 214 l 1
 491 218 l 1
529 342 m 1
 536 353 l 1
 541 353 l 1
 541 345 l 1
 533 339 l 1
 529 342 l 1
503 243 m 1
 500 246 l 1
 504 250 l 1
 509 250 l 1
 510 240 l 1
 503 243 l 1
489 198 m 1
 489 209 l 1
 496 209 l 1
 496 204 l 1
 489 198 l 1
527 402 m 1
 531 405 l 1
 535 405 l 1
 535 397 l 1
 531 397 l 1
 527 402 l 1
456 47 m 1
 460 50 l 1
 460 39 l 1
 456 47 l 1
526 299 m 1
 528 302 l 1
 531 297 l 1
 526 299 l 1
517 313 m 1
 522 313 l 1
 520 310 l 1
 517 313 l 1
EndSplineSet
EndChar

StartChar: B
Encoding: 66 66 27
Width: 571
Flags: W
LayerCount: 2
Fore
SplineSet
158 -70 m 1
 141 -68 l 1
 135 -55 l 1
 135 -48 l 1
 127 -36 l 1
 125 -39 l 1
 116 -43 l 1
 99 -61 l 1
 91 -66 l 1
 88 -64 l 1
 79 -70 l 1
 77 -64 l 1
 72 -67 l 1
 60 -51 l 1
 60 -40 l 1
 63 -32 l 1
 75 -19 l 1
 85 -19 l 1
 122 9 l 1
 114 76 l 1
 114 161 l 1
 111 175 l 1
 105 257 l 1
 100 257 l 1
 96 284 l 1
 97 334 l 1
 120 559 l 1
 111 565 l 1
 86 569 l 1
 64 583 l 1
 56 591 l 1
 47 595 l 1
 30 612 l 1
 30 626 l 1
 33 627 l 1
 34 633 l 1
 41 636 l 1
 45 643 l 1
 84 654 l 1
 102 665 l 1
 132 679 l 1
 206 684 l 1
 217 690 l 1
 242 695 l 1
 284 697 l 1
 332 694 l 1
 349 692 l 1
 399 677 l 1
 423 666 l 1
 439 654 l 1
 446 640 l 1
 487 586 l 1
 496 561 l 1
 501 554 l 1
 506 539 l 1
 506 520 l 1
 501 514 l 1
 495 514 l 1
 486 510 l 1
 467 516 l 1
 458 508 l 1
 452 497 l 1
 443 493 l 1
 441 490 l 1
 433 488 l 1
 420 476 l 1
 407 475 l 1
 401 468 l 1
 396 471 l 1
 386 461 l 1
 382 461 l 1
 368 460 l 1
 368 444 l 1
 387 439 l 1
 391 436 l 1
 396 441 l 1
 398 434 l 1
 405 432 l 1
 414 420 l 1
 420 426 l 1
 425 420 l 1
 442 411 l 1
 448 414 l 1
 448 408 l 1
 452 405 l 1
 456 405 l 1
 460 399 l 1
 463 385 l 1
 469 390 l 1
 469 374 l 1
 474 369 l 1
 477 370 l 1
 477 376 l 1
 472 384 l 1
 476 388 l 1
 484 375 l 1
 490 359 l 1
 495 356 l 1
 495 342 l 1
 490 337 l 1
 490 326 l 1
 501 330 l 1
 505 324 l 1
 520 329 l 1
 523 322 l 1
 528 318 l 1
 533 305 l 1
 533 299 l 1
 529 298 l 1
 523 292 l 1
 518 292 l 1
 522 261 l 1
 526 254 l 1
 530 269 l 1
 534 257 l 1
 533 248 l 1
 527 240 l 1
 527 248 l 1
 523 248 l 1
 520 245 l 1
 519 224 l 1
 514 219 l 1
 514 215 l 1
 519 206 l 1
 519 200 l 1
 516 196 l 1
 510 180 l 1
 513 176 l 1
 523 179 l 1
 517 162 l 1
 510 167 l 1
 501 150 l 1
 497 146 l 1
 495 131 l 1
 488 117 l 1
 485 118 l 1
 491 132 l 1
 491 139 l 1
 483 125 l 1
 469 114 l 1
 468 111 l 1
 458 102 l 1
 447 102 l 1
 443 98 l 1
 438 97 l 1
 436 93 l 1
 430 88 l 1
 420 83 l 1
 420 87 l 1
 425 91 l 1
 424 98 l 1
 417 90 l 1
 411 93 l 1
 418 104 l 1
 418 110 l 1
 413 110 l 1
 409 102 l 1
 404 102 l 1
 392 87 l 1
 392 97 l 1
 387 97 l 1
 387 114 l 1
 382 109 l 1
 380 97 l 1
 377 100 l 1
 374 97 l 1
 357 97 l 1
 346 96 l 1
 334 76 l 1
 325 66 l 1
 309 61 l 1
 306 64 l 1
 295 57 l 1
 276 39 l 1
 274 33 l 1
 268 29 l 1
 256 28 l 1
 255 24 l 1
 249 26 l 1
 246 23 l 1
 244 8 l 1
 242 23 l 1
 236 19 l 1
 236 10 l 1
 252 -15 l 1
 238 -26 l 1
 235 -32 l 1
 230 -36 l 1
 227 -46 l 1
 221 -46 l 1
 217 -51 l 1
 215 -59 l 1
 208 -59 l 1
 206 -66 l 1
 188 -66 l 1
 184 -69 l 1
 181 -67 l 1
 174 -76 l 1
 170 -76 l 1
 158 -70 l 1
240 111 m 1
 241 104 l 1
 244 110 l 1
 244 117 l 1
 248 126 l 1
 253 126 l 1
 259 110 l 1
 293 137 l 1
 303 156 l 1
 306 154 l 1
 307 158 l 1
 318 168 l 1
 328 190 l 1
 334 197 l 1
 363 247 l 1
 382 271 l 1
 388 284 l 1
 382 303 l 1
 374 316 l 1
 368 322 l 1
 348 326 l 1
 339 326 l 1
 312 345 l 1
 294 355 l 1
 291 347 l 1
 280 290 l 1
 279 276 l 1
 270 282 l 1
 263 276 l 1
 259 282 l 1
 259 276 l 1
 254 269 l 1
 258 256 l 1
 250 242 l 1
 250 211 l 1
 253 204 l 1
 247 183 l 1
 246 165 l 1
 238 132 l 1
 238 114 l 1
 240 111 l 1
315 520 m 1
 315 510 l 1
 320 510 l 1
 360 531 l 1
 368 538 l 1
 372 569 l 1
 352 575 l 1
 347 571 l 1
 324 561 l 1
 320 556 l 1
 317 525 l 1
 315 520 l 1
434 -74 m 1
 422 -58 l 1
 422 -46 l 1
 430 -39 l 1
 441 -35 l 1
 447 -37 l 1
 452 -43 l 1
 458 -55 l 1
 458 -67 l 1
 456 -74 l 1
 448 -77 l 1
 434 -74 l 1
301 240 m 1
 301 245 l 1
 311 257 l 1
 323 266 l 1
 331 262 l 1
 334 253 l 1
 323 238 l 1
 317 234 l 1
 307 234 l 1
 301 240 l 1
428 -9 m 1
 428 -4 l 1
 431 -1 l 1
 433 8 l 1
 451 11 l 1
 458 4 l 1
 458 -5 l 1
 450 -10 l 1
 439 -1 l 1
 439 -11 l 1
 431 -11 l 1
 428 -9 l 1
423 -34 m 1
 420 -28 l 1
 425 -22 l 1
 431 -28 l 1
 431 -32 l 1
 428 -36 l 1
 423 -34 l 1
528 288 m 1
 533 294 l 1
 534 298 l 1
 536 287 l 1
 528 282 l 1
 528 288 l 1
535 94 m 1
 535 101 l 1
 541 102 l 1
 541 95 l 1
 535 94 l 1
399 451 m 1
 403 451 l 1
 403 441 l 1
 399 441 l 1
 399 451 l 1
495 110 m 1
 509 129 l 1
 495 106 l 1
 495 110 l 1
479 114 m 1
 483 117 l 1
 483 112 l 1
 479 110 l 1
 479 114 l 1
511 133 m 1
 517 144 l 1
 517 138 l 1
 511 133 l 1
512 259 m 1
 514 251 l 1
 514 265 l 1
 512 259 l 1
514 240 m 1
 516 228 l 1
 516 236 l 1
 514 240 l 1
75 49 m 1
 79 46 l 1
 75 45 l 1
 75 49 l 1
268 265 m 1
 272 265 l 1
 268 261 l 1
 268 265 l 1
272 176 m 1
 274 179 l 1
 276 175 l 1
 272 176 l 1
EndSplineSet
EndChar

StartChar: C
Encoding: 67 67 28
Width: 610
Flags: W
LayerCount: 2
Fore
SplineSet
230 43 m 1
 225 55 l 1
 221 55 l 1
 219 66 l 1
 209 68 l 1
 207 58 l 1
 198 58 l 1
 195 66 l 1
 195 77 l 1
 170 96 l 1
 170 90 l 1
 176 83 l 1
 176 76 l 1
 174 79 l 1
 170 76 l 1
 163 88 l 1
 160 102 l 1
 148 117 l 1
 143 117 l 1
 143 106 l 1
 151 98 l 1
 149 94 l 1
 142 102 l 1
 136 105 l 1
 133 111 l 1
 126 114 l 1
 120 123 l 1
 120 135 l 1
 113 142 l 1
 110 138 l 1
 108 149 l 1
 83 190 l 1
 81 202 l 1
 72 219 l 1
 71 226 l 1
 65 240 l 1
 63 268 l 1
 61 263 l 1
 54 278 l 1
 56 281 l 1
 62 269 l 1
 62 284 l 1
 53 298 l 1
 50 309 l 1
 45 310 l 1
 43 300 l 1
 39 309 l 1
 39 334 l 1
 36 337 l 1
 34 326 l 1
 32 332 l 1
 34 339 l 1
 34 366 l 1
 30 373 l 1
 30 389 l 1
 32 393 l 1
 32 418 l 1
 42 468 l 1
 53 499 l 1
 70 537 l 1
 98 581 l 1
 101 583 l 1
 113 597 l 1
 133 627 l 1
 139 630 l 1
 149 640 l 1
 163 650 l 1
 172 659 l 1
 178 661 l 1
 193 673 l 1
 198 674 l 1
 202 678 l 1
 205 677 l 1
 220 688 l 1
 227 697 l 1
 235 698 l 1
 248 707 l 1
 269 713 l 1
 288 713 l 1
 296 715 l 1
 325 718 l 1
 348 718 l 1
 361 721 l 1
 379 721 l 1
 382 719 l 1
 387 722 l 1
 419 696 l 1
 421 689 l 1
 426 682 l 1
 436 682 l 1
 442 678 l 1
 442 673 l 1
 448 673 l 1
 448 667 l 1
 452 659 l 1
 461 656 l 1
 474 647 l 1
 478 638 l 1
 488 636 l 1
 485 633 l 1
 491 626 l 1
 496 613 l 1
 507 602 l 1
 507 594 l 1
 509 590 l 1
 505 588 l 1
 507 579 l 1
 501 587 l 1
 494 584 l 1
 498 573 l 1
 493 566 l 1
 483 562 l 1
 483 554 l 1
 479 553 l 1
 467 557 l 1
 445 549 l 1
 440 552 l 1
 431 554 l 1
 384 583 l 1
 324 557 l 1
 300 542 l 1
 298 538 l 1
 283 523 l 1
 273 510 l 1
 269 499 l 1
 262 489 l 1
 240 443 l 1
 235 428 l 1
 231 422 l 1
 222 397 l 1
 212 334 l 1
 212 310 l 1
 216 304 l 1
 219 290 l 1
 228 280 l 1
 228 267 l 1
 239 255 l 1
 239 251 l 1
 235 245 l 1
 226 243 l 1
 228 233 l 1
 233 221 l 1
 233 212 l 1
 243 188 l 1
 252 176 l 1
 275 162 l 1
 298 154 l 1
 315 154 l 1
 327 158 l 1
 342 159 l 1
 355 162 l 1
 369 185 l 1
 390 204 l 1
 384 216 l 1
 386 219 l 1
 386 238 l 1
 392 247 l 1
 392 253 l 1
 397 253 l 1
 405 258 l 1
 413 254 l 1
 423 263 l 1
 421 253 l 1
 426 253 l 1
 434 260 l 1
 443 251 l 1
 440 248 l 1
 438 251 l 1
 436 247 l 1
 444 247 l 1
 450 253 l 1
 452 261 l 1
 456 265 l 1
 459 261 l 1
 462 271 l 1
 462 259 l 1
 469 261 l 1
 476 269 l 1
 495 267 l 1
 490 261 l 1
 490 253 l 1
 487 249 l 1
 495 245 l 1
 494 259 l 1
 498 263 l 1
 498 271 l 1
 502 275 l 1
 505 268 l 1
 515 268 l 1
 518 263 l 1
 521 265 l 1
 522 255 l 1
 526 252 l 1
 537 258 l 1
 537 254 l 1
 532 248 l 1
 539 248 l 1
 542 251 l 1
 547 251 l 1
 554 245 l 1
 553 240 l 1
 558 240 l 1
 571 233 l 1
 574 224 l 1
 580 223 l 1
 576 218 l 1
 580 217 l 1
 580 213 l 1
 576 213 l 1
 572 209 l 1
 572 202 l 1
 575 195 l 1
 572 192 l 1
 570 198 l 1
 566 198 l 1
 564 190 l 1
 563 194 l 1
 559 194 l 1
 551 162 l 1
 547 150 l 1
 543 145 l 1
 549 135 l 1
 549 126 l 1
 547 123 l 1
 540 123 l 1
 532 126 l 1
 495 87 l 1
 465 73 l 1
 432 70 l 1
 403 61 l 1
 397 63 l 1
 390 56 l 1
 380 56 l 1
 380 62 l 1
 366 59 l 1
 361 52 l 1
 356 56 l 1
 358 61 l 1
 351 63 l 1
 348 61 l 1
 351 55 l 1
 346 53 l 1
 344 44 l 1
 340 49 l 1
 333 51 l 1
 338 54 l 1
 337 58 l 1
 335 55 l 1
 308 57 l 1
 302 54 l 1
 305 66 l 1
 314 66 l 1
 332 68 l 1
 353 76 l 1
 348 79 l 1
 344 79 l 1
 340 82 l 1
 320 79 l 1
 311 75 l 1
 310 70 l 1
 301 72 l 1
 293 67 l 1
 284 69 l 1
 281 66 l 1
 273 68 l 1
 258 68 l 1
 255 70 l 1
 226 76 l 1
 226 71 l 1
 229 70 l 1
 232 66 l 1
 248 61 l 1
 252 58 l 1
 240 56 l 1
 246 47 l 1
 240 46 l 1
 237 40 l 1
 230 43 l 1
461 321 m 1
 457 329 l 1
 460 336 l 1
 470 341 l 1
 478 339 l 1
 482 334 l 1
 482 326 l 1
 478 320 l 1
 470 317 l 1
 461 321 l 1
344 258 m 1
 344 269 l 1
 348 274 l 1
 359 274 l 1
 364 269 l 1
 364 261 l 1
 358 254 l 1
 350 254 l 1
 344 258 l 1
332 90 m 1
 344 83 l 1
 361 85 l 1
 361 90 l 1
 350 90 l 1
 335 93 l 1
 332 90 l 1
323 333 m 1
 323 342 l 1
 326 345 l 1
 334 345 l 1
 337 337 l 1
 332 333 l 1
 323 333 l 1
216 71 m 1
 219 68 l 1
 221 71 l 1
 217 79 l 1
 212 81 l 1
 208 79 l 1
 208 75 l 1
 212 71 l 1
 216 71 l 1
185 68 m 1
 184 73 l 1
 180 79 l 1
 183 83 l 1
 190 74 l 1
 189 66 l 1
 185 68 l 1
486 28 m 1
 486 33 l 1
 489 37 l 1
 494 37 l 1
 494 31 l 1
 489 26 l 1
 486 28 l 1
260 213 m 1
 255 226 l 1
 260 226 l 1
 262 223 l 1
 262 217 l 1
 260 213 l 1
229 49 m 1
 233 46 l 1
 233 60 l 1
 229 60 l 1
 229 49 l 1
45 292 m 1
 47 299 l 1
 50 292 l 1
 51 283 l 1
 45 292 l 1
155 90 m 1
 154 93 l 1
 154 104 l 1
 157 97 l 1
 157 85 l 1
 155 90 l 1
440 257 m 1
 447 271 l 1
 443 255 l 1
 440 257 l 1
315 47 m 1
 319 49 l 1
 323 49 l 1
 318 43 l 1
 315 47 l 1
248 81 m 1
 255 77 l 1
 255 83 l 1
 248 81 l 1
261 61 m 1
 269 56 l 1
 261 56 l 1
 261 61 l 1
252 54 m 1
 257 51 l 1
 252 47 l 1
 252 54 l 1
34 247 m 1
 34 251 l 1
 38 251 l 1
 38 247 l 1
 34 247 l 1
EndSplineSet
EndChar

StartChar: D
Encoding: 68 68 29
Width: 596
Flags: W
LayerCount: 2
Fore
SplineSet
131 -25 m 1
 129 -18 l 1
 124 -12 l 1
 124 10 l 1
 121 17 l 1
 117 38 l 1
 115 63 l 1
 108 65 l 1
 108 56 l 1
 104 54 l 1
 102 59 l 1
 84 59 l 1
 89 54 l 1
 88 50 l 1
 87 53 l 1
 82 57 l 1
 79 52 l 1
 75 68 l 1
 72 71 l 1
 61 72 l 1
 45 71 l 1
 42 73 l 1
 30 84 l 1
 30 109 l 1
 42 109 l 1
 47 112 l 1
 56 112 l 1
 60 114 l 1
 67 114 l 1
 64 120 l 1
 74 113 l 1
 80 116 l 1
 90 117 l 1
 100 122 l 1
 111 125 l 1
 115 131 l 1
 113 154 l 1
 110 171 l 1
 113 177 l 1
 107 210 l 1
 107 287 l 1
 110 297 l 1
 125 530 l 1
 135 598 l 1
 134 601 l 1
 87 624 l 1
 80 631 l 1
 76 641 l 1
 79 643 l 1
 79 648 l 1
 84 653 l 1
 88 663 l 1
 96 667 l 1
 108 671 l 1
 151 674 l 1
 154 693 l 1
 154 708 l 1
 152 714 l 1
 158 719 l 1
 159 726 l 1
 166 737 l 1
 174 741 l 1
 182 741 l 1
 187 737 l 1
 195 736 l 1
 208 728 l 1
 235 723 l 1
 256 706 l 1
 269 699 l 1
 287 681 l 1
 322 676 l 1
 338 675 l 1
 375 667 l 1
 445 643 l 1
 466 632 l 1
 489 614 l 1
 514 589 l 1
 519 579 l 1
 537 555 l 1
 549 533 l 1
 549 520 l 1
 553 523 l 1
 554 504 l 1
 558 491 l 1
 560 498 l 1
 564 487 l 1
 565 480 l 1
 561 476 l 1
 561 438 l 1
 557 427 l 1
 557 409 l 1
 554 401 l 1
 553 387 l 1
 554 380 l 1
 550 367 l 1
 545 357 l 1
 548 350 l 1
 551 360 l 1
 553 354 l 1
 550 339 l 1
 545 327 l 1
 545 299 l 1
 543 285 l 1
 540 283 l 1
 540 264 l 1
 534 264 l 1
 531 259 l 1
 534 255 l 1
 534 250 l 1
 530 249 l 1
 529 237 l 1
 523 225 l 1
 519 225 l 1
 516 216 l 1
 507 213 l 1
 505 207 l 1
 501 207 l 1
 497 197 l 1
 488 192 l 1
 482 192 l 1
 471 185 l 1
 467 190 l 1
 464 186 l 1
 458 185 l 1
 456 181 l 1
 444 171 l 1
 442 174 l 1
 439 164 l 1
 428 158 l 1
 425 151 l 1
 424 155 l 1
 416 151 l 1
 411 146 l 1
 409 150 l 1
 402 146 l 1
 407 157 l 1
 402 157 l 1
 400 152 l 1
 393 143 l 1
 388 144 l 1
 381 135 l 1
 379 140 l 1
 375 136 l 1
 373 127 l 1
 369 122 l 1
 368 108 l 1
 366 120 l 1
 358 117 l 1
 358 108 l 1
 349 96 l 1
 343 94 l 1
 334 86 l 1
 315 80 l 1
 326 91 l 1
 341 97 l 1
 351 108 l 1
 351 114 l 1
 355 123 l 1
 351 127 l 1
 345 107 l 1
 342 105 l 1
 342 112 l 1
 348 122 l 1
 346 125 l 1
 339 111 l 1
 334 107 l 1
 333 100 l 1
 325 98 l 1
 316 89 l 1
 310 99 l 1
 302 93 l 1
 300 80 l 1
 292 80 l 1
 292 84 l 1
 297 92 l 1
 292 92 l 1
 287 87 l 1
 285 73 l 1
 278 73 l 1
 273 65 l 1
 271 71 l 1
 263 67 l 1
 259 67 l 1
 257 62 l 1
 250 59 l 1
 246 59 l 1
 230 45 l 1
 225 45 l 1
 218 38 l 1
 202 35 l 1
 201 17 l 1
 191 -4 l 1
 173 -22 l 1
 154 -28 l 1
 142 -24 l 1
 131 -25 l 1
233 186 m 1
 256 187 l 1
 262 192 l 1
 267 192 l 1
 272 197 l 1
 276 197 l 1
 281 200 l 1
 288 198 l 1
 297 203 l 1
 301 200 l 1
 306 206 l 1
 311 201 l 1
 315 194 l 1
 338 215 l 1
 348 229 l 1
 358 236 l 1
 370 252 l 1
 398 283 l 1
 408 290 l 1
 413 297 l 1
 427 332 l 1
 428 342 l 1
 423 345 l 1
 431 367 l 1
 428 370 l 1
 428 381 l 1
 436 434 l 1
 433 441 l 1
 433 458 l 1
 432 468 l 1
 431 515 l 1
 417 536 l 1
 399 548 l 1
 360 558 l 1
 343 560 l 1
 334 562 l 1
 326 557 l 1
 315 561 l 1
 303 559 l 1
 299 555 l 1
 295 513 l 1
 293 508 l 1
 290 467 l 1
 287 458 l 1
 282 421 l 1
 279 415 l 1
 274 379 l 1
 271 369 l 1
 273 359 l 1
 271 339 l 1
 268 335 l 1
 264 323 l 1
 264 316 l 1
 259 313 l 1
 263 323 l 1
 257 342 l 1
 253 342 l 1
 252 325 l 1
 248 310 l 1
 247 302 l 1
 243 290 l 1
 238 285 l 1
 236 279 l 1
 240 262 l 1
 246 265 l 1
 242 253 l 1
 242 244 l 1
 244 235 l 1
 240 237 l 1
 242 222 l 1
 237 189 l 1
 233 186 l 1
220 180 m 1
 227 192 l 1
 227 204 l 1
 231 212 l 1
 233 246 l 1
 231 268 l 1
 227 262 l 1
 227 245 l 1
 225 240 l 1
 221 240 l 1
 220 221 l 1
 218 224 l 1
 219 218 l 1
 216 199 l 1
 220 190 l 1
 220 180 l 1
473 195 m 1
 475 192 l 1
 482 198 l 1
 490 202 l 1
 496 207 l 1
 505 223 l 1
 511 226 l 1
 514 230 l 1
 508 242 l 1
 504 242 l 1
 498 230 l 1
 491 227 l 1
 489 217 l 1
 479 202 l 1
 473 195 l 1
259 285 m 1
 263 299 l 1
 263 304 l 1
 267 315 l 1
 267 303 l 1
 264 293 l 1
 260 268 l 1
 264 268 l 1
 264 244 l 1
 261 214 l 1
 253 224 l 1
 255 244 l 1
 257 255 l 1
 257 276 l 1
 261 279 l 1
 259 285 l 1
406 503 m 1
 406 507 l 1
 412 513 l 1
 418 513 l 1
 418 502 l 1
 411 499 l 1
 406 503 l 1
221 214 m 1
 229 237 l 1
 228 216 l 1
 222 201 l 1
 221 214 l 1
543 267 m 1
 550 280 l 1
 553 292 l 1
 558 304 l 1
 556 290 l 1
 548 268 l 1
 543 260 l 1
 543 267 l 1
553 319 m 1
 558 330 l 1
 560 337 l 1
 565 334 l 1
 562 332 l 1
 559 317 l 1
 553 312 l 1
 553 319 l 1
71 590 m 1
 76 595 l 1
 79 592 l 1
 79 585 l 1
 74 578 l 1
 71 590 l 1
560 270 m 1
 560 282 l 1
 566 282 l 1
 566 272 l 1
 560 270 l 1
447 161 m 1
 453 165 l 1
 453 157 l 1
 447 148 l 1
 447 161 l 1
378 492 m 1
 383 499 l 1
 386 497 l 1
 386 490 l 1
 383 488 l 1
 378 492 l 1
561 355 m 1
 564 362 l 1
 566 373 l 1
 565 360 l 1
 561 343 l 1
 561 355 l 1
232 277 m 1
 235 273 l 1
 235 282 l 1
 232 277 l 1
389 130 m 1
 393 136 l 1
 393 131 l 1
 389 130 l 1
306 87 m 1
 310 92 l 1
 310 87 l 1
 306 87 l 1
90 237 m 1
 94 240 l 1
 92 234 l 1
 90 237 l 1
80 485 m 1
 82 490 l 1
 84 487 l 1
 80 485 l 1
459 171 m 1
 461 174 l 1
 466 174 l 1
 459 171 l 1
EndSplineSet
EndChar

StartChar: E
Encoding: 69 69 30
Width: 599
Flags: W
LayerCount: 2
Fore
SplineSet
227 -29 m 1
 220 -24 l 1
 208 -22 l 1
 185 -11 l 1
 180 -5 l 1
 174 -4 l 1
 166 1 l 1
 97 31 l 1
 93 36 l 1
 93 50 l 1
 103 72 l 1
 113 84 l 1
 126 92 l 1
 133 99 l 1
 147 103 l 1
 153 114 l 1
 157 117 l 1
 166 116 l 1
 178 121 l 1
 178 135 l 1
 171 207 l 1
 165 239 l 1
 163 275 l 1
 161 279 l 1
 161 312 l 1
 151 338 l 1
 146 374 l 1
 143 421 l 1
 141 429 l 1
 140 453 l 1
 136 470 l 1
 136 498 l 1
 131 554 l 1
 111 551 l 1
 95 553 l 1
 74 559 l 1
 43 582 l 1
 38 596 l 1
 30 604 l 1
 33 613 l 1
 50 622 l 1
 81 631 l 1
 89 631 l 1
 94 633 l 1
 103 632 l 1
 121 633 l 1
 131 635 l 1
 135 658 l 1
 143 676 l 1
 150 683 l 1
 161 683 l 1
 174 677 l 1
 188 674 l 1
 194 671 l 1
 215 670 l 1
 226 667 l 1
 233 663 l 1
 266 675 l 1
 322 690 l 1
 368 696 l 1
 417 696 l 1
 449 698 l 1
 457 701 l 1
 460 699 l 1
 477 702 l 1
 525 701 l 1
 542 679 l 1
 546 665 l 1
 544 660 l 1
 545 646 l 1
 551 646 l 1
 546 642 l 1
 551 640 l 1
 555 635 l 1
 556 626 l 1
 551 623 l 1
 563 610 l 1
 562 600 l 1
 557 591 l 1
 551 587 l 1
 551 583 l 1
 556 576 l 1
 555 560 l 1
 552 555 l 1
 550 546 l 1
 545 541 l 1
 537 528 l 1
 528 522 l 1
 517 526 l 1
 519 522 l 1
 516 520 l 1
 508 523 l 1
 506 527 l 1
 499 530 l 1
 487 530 l 1
 487 535 l 1
 492 542 l 1
 485 545 l 1
 483 541 l 1
 481 545 l 1
 484 548 l 1
 478 551 l 1
 474 548 l 1
 472 554 l 1
 466 551 l 1
 450 567 l 1
 429 583 l 1
 422 583 l 1
 401 590 l 1
 399 587 l 1
 381 583 l 1
 371 584 l 1
 369 577 l 1
 366 576 l 1
 357 563 l 1
 349 562 l 1
 347 556 l 1
 335 554 l 1
 314 553 l 1
 319 397 l 1
 386 408 l 1
 409 408 l 1
 415 410 l 1
 426 407 l 1
 428 410 l 1
 434 408 l 1
 441 395 l 1
 447 393 l 1
 438 393 l 1
 435 389 l 1
 457 383 l 1
 462 370 l 1
 458 360 l 1
 462 360 l 1
 462 365 l 1
 465 363 l 1
 471 365 l 1
 477 360 l 1
 478 352 l 1
 472 346 l 1
 472 342 l 1
 485 330 l 1
 479 328 l 1
 482 323 l 1
 474 315 l 1
 463 326 l 1
 466 333 l 1
 470 330 l 1
 469 352 l 1
 471 358 l 1
 464 358 l 1
 457 353 l 1
 455 346 l 1
 453 353 l 1
 449 352 l 1
 451 348 l 1
 450 339 l 1
 446 335 l 1
 454 334 l 1
 451 332 l 1
 449 323 l 1
 434 322 l 1
 411 323 l 1
 404 320 l 1
 388 320 l 1
 377 311 l 1
 368 310 l 1
 361 305 l 1
 345 300 l 1
 326 297 l 1
 318 293 l 1
 311 292 l 1
 301 287 l 1
 299 264 l 1
 292 247 l 1
 289 233 l 1
 289 217 l 1
 293 213 l 1
 293 207 l 1
 289 203 l 1
 291 197 l 1
 291 177 l 1
 295 177 l 1
 296 185 l 1
 301 189 l 1
 302 192 l 1
 308 192 l 1
 308 180 l 1
 304 178 l 1
 304 173 l 1
 313 176 l 1
 319 182 l 1
 325 182 l 1
 329 187 l 1
 336 189 l 1
 339 192 l 1
 345 192 l 1
 345 187 l 1
 341 184 l 1
 335 173 l 1
 349 168 l 1
 388 179 l 1
 372 217 l 1
 366 225 l 1
 359 225 l 1
 356 213 l 1
 351 207 l 1
 342 204 l 1
 336 210 l 1
 336 215 l 1
 338 218 l 1
 344 220 l 1
 350 228 l 1
 354 241 l 1
 366 241 l 1
 373 233 l 1
 374 227 l 1
 379 224 l 1
 392 190 l 1
 401 181 l 1
 416 184 l 1
 434 184 l 1
 451 187 l 1
 457 192 l 1
 464 190 l 1
 469 192 l 1
 477 192 l 1
 492 198 l 1
 527 207 l 1
 552 205 l 1
 569 182 l 1
 565 177 l 1
 567 171 l 1
 565 157 l 1
 562 162 l 1
 557 157 l 1
 553 148 l 1
 540 129 l 1
 540 125 l 1
 544 123 l 1
 541 119 l 1
 536 120 l 1
 525 120 l 1
 494 107 l 1
 490 102 l 1
 478 99 l 1
 466 99 l 1
 455 94 l 1
 453 91 l 1
 443 87 l 1
 435 85 l 1
 429 74 l 1
 428 68 l 1
 424 65 l 1
 411 59 l 1
 392 54 l 1
 383 54 l 1
 371 46 l 1
 371 56 l 1
 366 53 l 1
 368 42 l 1
 364 32 l 1
 359 30 l 1
 357 27 l 1
 353 27 l 1
 351 24 l 1
 342 22 l 1
 329 16 l 1
 316 7 l 1
 251 -32 l 1
 238 -37 l 1
 227 -29 l 1
387 521 m 1
 385 525 l 1
 387 534 l 1
 392 537 l 1
 398 537 l 1
 400 533 l 1
 400 525 l 1
 394 520 l 1
 387 521 l 1
479 203 m 1
 479 211 l 1
 486 213 l 1
 494 213 l 1
 494 207 l 1
 487 198 l 1
 479 203 l 1
441 360 m 1
 451 375 l 1
 451 379 l 1
 447 376 l 1
 439 385 l 1
 435 380 l 1
 436 372 l 1
 441 378 l 1
 441 360 l 1
436 250 m 1
 436 260 l 1
 443 260 l 1
 447 248 l 1
 443 244 l 1
 436 250 l 1
489 369 m 1
 489 377 l 1
 499 377 l 1
 499 369 l 1
 493 367 l 1
 489 369 l 1
451 227 m 1
 451 235 l 1
 459 235 l 1
 459 227 l 1
 455 225 l 1
 451 227 l 1
497 213 m 1
 497 220 l 1
 504 220 l 1
 504 211 l 1
 497 213 l 1
513 277 m 1
 513 282 l 1
 519 282 l 1
 521 278 l 1
 520 275 l 1
 513 277 l 1
527 300 m 1
 534 302 l 1
 534 297 l 1
 529 297 l 1
 527 300 l 1
508 246 m 1
 514 248 l 1
 514 244 l 1
 510 242 l 1
 508 246 l 1
534 276 m 1
 536 279 l 1
 540 279 l 1
 540 275 l 1
 534 276 l 1
548 665 m 1
 551 667 l 1
 551 659 l 1
 548 665 l 1
368 302 m 1
 372 302 l 1
 372 297 l 1
 368 302 l 1
394 32 m 1
 394 37 l 1
 397 36 l 1
 394 32 l 1
554 268 m 1
 549 264 l 1
 555 270 l 1
 556 264 l 1
 554 268 l 1
435 268 m 1
 435 272 l 1
 438 270 l 1
 435 268 l 1
EndSplineSet
EndChar

StartChar: F
Encoding: 70 70 31
Width: 538
Flags: W
LayerCount: 2
Fore
SplineSet
473 508 m 1
 483 508 l 1
 487 513 l 1
 490 526 l 1
 487 523 l 1
 477 525 l 1
 483 528 l 1
 488 534 l 1
 483 533 l 1
 470 522 l 1
 465 522 l 1
 475 533 l 1
 475 538 l 1
 482 548 l 1
 477 548 l 1
 470 542 l 1
 467 535 l 1
 460 531 l 1
 459 542 l 1
 454 542 l 1
 449 528 l 1
 449 523 l 1
 437 523 l 1
 439 527 l 1
 437 530 l 1
 433 530 l 1
 429 533 l 1
 428 540 l 1
 415 540 l 1
 407 538 l 1
 404 535 l 1
 400 535 l 1
 407 545 l 1
 401 545 l 1
 397 537 l 1
 394 538 l 1
 393 534 l 1
 388 530 l 1
 385 540 l 1
 382 530 l 1
 378 530 l 1
 374 528 l 1
 380 535 l 1
 372 534 l 1
 369 528 l 1
 358 528 l 1
 354 525 l 1
 350 525 l 1
 344 520 l 1
 339 522 l 1
 337 518 l 1
 329 518 l 1
 326 520 l 1
 323 514 l 1
 302 510 l 1
 299 507 l 1
 278 502 l 1
 274 498 l 1
 265 453 l 1
 265 444 l 1
 272 444 l 1
 288 449 l 1
 309 452 l 1
 316 455 l 1
 326 453 l 1
 332 441 l 1
 349 417 l 1
 355 403 l 1
 365 394 l 1
 363 383 l 1
 366 378 l 1
 372 357 l 1
 372 346 l 1
 366 333 l 1
 354 327 l 1
 337 325 l 1
 334 322 l 1
 316 315 l 1
 314 319 l 1
 314 310 l 1
 302 300 l 1
 300 304 l 1
 296 297 l 1
 289 295 l 1
 263 279 l 1
 249 279 l 1
 240 276 l 1
 231 279 l 1
 225 261 l 1
 220 256 l 1
 226 281 l 1
 223 285 l 1
 221 282 l 1
 217 262 l 1
 217 244 l 1
 212 235 l 1
 210 215 l 1
 204 215 l 1
 206 227 l 1
 209 230 l 1
 207 241 l 1
 209 248 l 1
 207 260 l 1
 204 244 l 1
 198 237 l 1
 198 213 l 1
 192 182 l 1
 191 169 l 1
 187 147 l 1
 184 142 l 1
 184 122 l 1
 187 117 l 1
 187 109 l 1
 194 107 l 1
 192 125 l 1
 198 147 l 1
 198 114 l 1
 195 102 l 1
 191 94 l 1
 190 77 l 1
 197 89 l 1
 198 85 l 1
 201 87 l 1
 208 73 l 1
 211 81 l 1
 218 72 l 1
 221 50 l 1
 224 45 l 1
 225 50 l 1
 227 44 l 1
 222 36 l 1
 226 26 l 1
 230 24 l 1
 227 14 l 1
 220 17 l 1
 216 12 l 1
 207 12 l 1
 209 7 l 1
 204 -8 l 1
 204 -17 l 1
 195 -24 l 1
 194 -29 l 1
 191 -32 l 1
 183 -32 l 1
 170 -34 l 1
 167 -42 l 1
 154 -39 l 1
 152 -44 l 1
 145 -52 l 1
 142 -45 l 1
 134 -46 l 1
 131 -53 l 1
 129 -49 l 1
 126 -47 l 1
 131 -41 l 1
 129 -36 l 1
 127 -39 l 1
 123 -39 l 1
 121 -43 l 1
 116 -43 l 1
 111 -28 l 1
 99 -14 l 1
 94 -18 l 1
 94 -26 l 1
 97 -29 l 1
 99 -41 l 1
 97 -36 l 1
 93 -31 l 1
 89 -18 l 1
 85 -13 l 1
 85 59 l 1
 81 72 l 1
 77 74 l 1
 77 172 l 1
 69 167 l 1
 59 166 l 1
 54 171 l 1
 54 179 l 1
 59 185 l 1
 69 185 l 1
 76 184 l 1
 78 218 l 1
 75 223 l 1
 73 232 l 1
 77 260 l 1
 75 263 l 1
 79 283 l 1
 79 292 l 1
 84 343 l 1
 85 395 l 1
 90 400 l 1
 86 412 l 1
 92 429 l 1
 92 448 l 1
 96 457 l 1
 97 485 l 1
 99 496 l 1
 99 529 l 1
 89 535 l 1
 64 561 l 1
 58 562 l 1
 43 574 l 1
 37 582 l 1
 34 583 l 1
 30 589 l 1
 36 597 l 1
 37 602 l 1
 49 611 l 1
 77 613 l 1
 85 609 l 1
 85 615 l 1
 91 618 l 1
 99 618 l 1
 103 633 l 1
 106 660 l 1
 113 688 l 1
 119 691 l 1
 121 698 l 1
 127 703 l 1
 134 705 l 1
 137 708 l 1
 143 708 l 1
 159 696 l 1
 174 688 l 1
 191 683 l 1
 207 681 l 1
 216 676 l 1
 232 670 l 1
 246 660 l 1
 269 664 l 1
 284 664 l 1
 342 673 l 1
 365 675 l 1
 404 681 l 1
 415 681 l 1
 418 678 l 1
 427 678 l 1
 435 675 l 1
 441 678 l 1
 456 671 l 1
 456 667 l 1
 449 667 l 1
 457 664 l 1
 477 664 l 1
 491 640 l 1
 498 637 l 1
 487 630 l 1
 490 625 l 1
 484 616 l 1
 489 616 l 1
 491 606 l 1
 496 604 l 1
 493 596 l 1
 496 590 l 1
 488 590 l 1
 490 586 l 1
 494 572 l 1
 491 569 l 1
 492 565 l 1
 505 566 l 1
 505 542 l 1
 502 537 l 1
 508 535 l 1
 508 528 l 1
 505 526 l 1
 508 522 l 1
 508 518 l 1
 500 513 l 1
 480 505 l 1
 473 499 l 1
 473 508 l 1
394 338 m 1
 394 342 l 1
 400 345 l 1
 407 343 l 1
 407 339 l 1
 401 335 l 1
 397 320 l 1
 394 338 l 1
460 502 m 1
 457 508 l 1
 465 513 l 1
 472 520 l 1
 480 520 l 1
 479 516 l 1
 475 518 l 1
 469 512 l 1
 470 507 l 1
 473 505 l 1
 463 507 l 1
 460 502 l 1
220 243 m 1
 224 252 l 1
 225 259 l 1
 228 255 l 1
 225 245 l 1
 225 230 l 1
 222 227 l 1
 220 243 l 1
209 195 m 1
 218 214 l 1
 214 192 l 1
 206 174 l 1
 206 182 l 1
 212 194 l 1
 209 195 l 1
225 189 m 1
 227 198 l 1
 233 198 l 1
 236 189 l 1
 232 185 l 1
 229 184 l 1
 225 189 l 1
292 194 m 1
 292 202 l 1
 300 202 l 1
 302 198 l 1
 302 190 l 1
 296 190 l 1
 292 194 l 1
210 270 m 1
 213 266 l 1
 217 273 l 1
 217 287 l 1
 213 287 l 1
 210 270 l 1
357 188 m 1
 355 192 l 1
 355 197 l 1
 359 200 l 1
 365 192 l 1
 365 186 l 1
 360 186 l 1
 357 188 l 1
261 185 m 1
 261 192 l 1
 267 192 l 1
 271 190 l 1
 271 184 l 1
 265 180 l 1
 261 185 l 1
267 207 m 1
 267 215 l 1
 272 217 l 1
 276 213 l 1
 276 206 l 1
 271 204 l 1
 267 207 l 1
262 162 m 1
 262 169 l 1
 268 169 l 1
 271 164 l 1
 271 160 l 1
 267 157 l 1
 262 162 l 1
480 558 m 1
 480 553 l 1
 487 555 l 1
 492 562 l 1
 484 562 l 1
 480 558 l 1
217 -5 m 1
 224 3 l 1
 226 8 l 1
 225 -4 l 1
 217 -9 l 1
 217 -5 l 1
462 548 m 1
 460 545 l 1
 465 545 l 1
 472 548 l 1
 474 554 l 1
 462 548 l 1
198 94 m 1
 204 107 l 1
 204 94 l 1
 202 91 l 1
 198 94 l 1
307 184 m 1
 307 189 l 1
 311 189 l 1
 315 185 l 1
 309 180 l 1
 307 184 l 1
72 153 m 1
 74 167 l 1
 76 162 l 1
 74 146 l 1
 72 153 l 1
212 164 m 1
 212 175 l 1
 216 175 l 1
 214 161 l 1
 212 164 l 1
178 242 m 1
 182 242 l 1
 181 252 l 1
 178 242 l 1
492 506 m 1
 497 506 l 1
 485 499 l 1
 492 506 l 1
409 530 m 1
 413 533 l 1
 415 530 l 1
 412 528 l 1
 409 530 l 1
115 -33 m 1
 121 -37 l 1
 121 -33 l 1
 115 -33 l 1
211 249 m 1
 211 242 l 1
 214 245 l 1
 211 249 l 1
121 -52 m 1
 126 -56 l 1
 121 -56 l 1
 121 -52 l 1
237 195 m 1
 241 197 l 1
 239 192 l 1
 237 195 l 1
454 529 m 1
 460 525 l 1
 456 525 l 1
 454 529 l 1
375 211 m 1
 372 208 l 1
 374 215 l 1
 375 211 l 1
346 176 m 1
 349 178 l 1
 350 174 l 1
 346 176 l 1
EndSplineSet
EndChar

StartChar: G
Encoding: 71 71 32
Width: 714
Flags: W
LayerCount: 2
Fore
SplineSet
254 -12 m 1
 251 -5 l 1
 243 -3 l 1
 241 5 l 1
 235 10 l 1
 232 7 l 1
 226 5 l 1
 223 0 l 1
 216 0 l 1
 219 8 l 1
 216 6 l 1
 209 -2 l 1
 213 1 l 1
 213 -3 l 1
 208 -4 l 1
 206 6 l 1
 203 -3 l 1
 203 -10 l 1
 198 -10 l 1
 194 -6 l 1
 200 -3 l 1
 195 3 l 1
 193 10 l 1
 191 7 l 1
 187 10 l 1
 178 1 l 1
 174 10 l 1
 181 12 l 1
 181 16 l 1
 185 15 l 1
 194 15 l 1
 196 24 l 1
 190 19 l 1
 187 23 l 1
 174 23 l 1
 170 18 l 1
 166 23 l 1
 156 18 l 1
 157 11 l 1
 150 7 l 1
 150 13 l 1
 148 16 l 1
 148 21 l 1
 155 27 l 1
 147 27 l 1
 147 23 l 1
 144 29 l 1
 139 25 l 1
 142 21 l 1
 138 21 l 1
 132 25 l 1
 135 27 l 1
 135 33 l 1
 130 41 l 1
 121 46 l 1
 128 53 l 1
 130 56 l 1
 133 50 l 1
 136 62 l 1
 122 72 l 1
 117 72 l 1
 125 63 l 1
 123 56 l 1
 120 55 l 1
 119 47 l 1
 117 50 l 1
 117 65 l 1
 112 72 l 1
 112 82 l 1
 100 100 l 1
 100 93 l 1
 105 86 l 1
 101 82 l 1
 100 89 l 1
 97 94 l 1
 97 107 l 1
 90 125 l 1
 90 138 l 1
 80 159 l 1
 75 172 l 1
 71 172 l 1
 72 184 l 1
 70 187 l 1
 64 187 l 1
 64 194 l 1
 67 196 l 1
 67 204 l 1
 63 224 l 1
 62 250 l 1
 59 252 l 1
 57 247 l 1
 57 239 l 1
 53 230 l 1
 59 232 l 1
 57 229 l 1
 57 220 l 1
 52 224 l 1
 46 224 l 1
 39 216 l 1
 36 209 l 1
 33 213 l 1
 36 226 l 1
 40 230 l 1
 40 234 l 1
 33 237 l 1
 33 244 l 1
 44 255 l 1
 44 301 l 1
 39 306 l 1
 44 306 l 1
 43 325 l 1
 46 340 l 1
 52 348 l 1
 55 378 l 1
 48 370 l 1
 55 390 l 1
 57 385 l 1
 60 388 l 1
 60 396 l 1
 55 396 l 1
 54 393 l 1
 50 385 l 1
 46 383 l 1
 47 390 l 1
 54 401 l 1
 54 411 l 1
 59 419 l 1
 63 420 l 1
 88 486 l 1
 100 504 l 1
 138 542 l 1
 147 558 l 1
 222 621 l 1
 232 627 l 1
 248 634 l 1
 269 645 l 1
 281 649 l 1
 297 650 l 1
 302 653 l 1
 308 653 l 1
 314 655 l 1
 317 658 l 1
 323 656 l 1
 326 658 l 1
 335 663 l 1
 364 665 l 1
 367 667 l 1
 385 667 l 1
 398 669 l 1
 408 664 l 1
 417 664 l 1
 419 660 l 1
 420 664 l 1
 425 664 l 1
 441 655 l 1
 460 632 l 1
 480 612 l 1
 493 612 l 1
 515 601 l 1
 521 595 l 1
 525 594 l 1
 534 586 l 1
 545 581 l 1
 549 570 l 1
 553 566 l 1
 566 557 l 1
 571 547 l 1
 569 523 l 1
 561 512 l 1
 556 502 l 1
 556 491 l 1
 553 482 l 1
 553 476 l 1
 548 464 l 1
 523 455 l 1
 501 453 l 1
 482 457 l 1
 458 469 l 1
 446 483 l 1
 439 486 l 1
 436 492 l 1
 427 496 l 1
 425 500 l 1
 411 503 l 1
 401 499 l 1
 385 498 l 1
 373 495 l 1
 364 484 l 1
 342 476 l 1
 305 448 l 1
 298 446 l 1
 292 441 l 1
 284 429 l 1
 279 428 l 1
 270 418 l 1
 235 384 l 1
 213 354 l 1
 203 325 l 1
 194 307 l 1
 191 293 l 1
 185 288 l 1
 185 278 l 1
 180 251 l 1
 183 223 l 1
 183 194 l 1
 188 168 l 1
 190 142 l 1
 203 110 l 1
 218 109 l 1
 223 107 l 1
 238 107 l 1
 241 109 l 1
 244 107 l 1
 253 109 l 1
 270 111 l 1
 284 116 l 1
 291 116 l 1
 310 126 l 1
 307 118 l 1
 311 116 l 1
 339 120 l 1
 350 127 l 1
 364 134 l 1
 372 134 l 1
 372 139 l 1
 345 156 l 1
 332 162 l 1
 324 168 l 1
 289 184 l 1
 266 193 l 1
 259 199 l 1
 259 232 l 1
 263 237 l 1
 273 245 l 1
 283 256 l 1
 291 260 l 1
 298 270 l 1
 319 288 l 1
 325 290 l 1
 337 299 l 1
 384 325 l 1
 400 332 l 1
 402 335 l 1
 408 335 l 1
 420 340 l 1
 435 341 l 1
 449 347 l 1
 477 355 l 1
 490 357 l 1
 513 367 l 1
 542 367 l 1
 584 383 l 1
 591 383 l 1
 601 386 l 1
 607 390 l 1
 628 390 l 1
 646 381 l 1
 658 367 l 1
 664 342 l 1
 669 330 l 1
 674 322 l 1
 674 317 l 1
 678 310 l 1
 684 283 l 1
 679 278 l 1
 683 268 l 1
 676 249 l 1
 664 241 l 1
 643 240 l 1
 631 231 l 1
 628 216 l 1
 616 214 l 1
 616 206 l 1
 613 200 l 1
 611 188 l 1
 601 169 l 1
 595 146 l 1
 599 136 l 1
 604 99 l 1
 604 63 l 1
 606 56 l 1
 606 30 l 1
 595 17 l 1
 584 22 l 1
 571 15 l 1
 565 10 l 1
 557 20 l 1
 552 20 l 1
 548 16 l 1
 543 15 l 1
 540 12 l 1
 532 18 l 1
 528 15 l 1
 523 16 l 1
 519 12 l 1
 514 16 l 1
 517 32 l 1
 515 53 l 1
 508 65 l 1
 500 59 l 1
 500 63 l 1
 503 72 l 1
 495 69 l 1
 490 55 l 1
 486 55 l 1
 480 48 l 1
 480 41 l 1
 475 35 l 1
 473 44 l 1
 470 40 l 1
 469 43 l 1
 466 38 l 1
 458 38 l 1
 458 33 l 1
 453 33 l 1
 453 40 l 1
 458 44 l 1
 460 48 l 1
 469 56 l 1
 475 65 l 1
 470 65 l 1
 459 51 l 1
 445 38 l 1
 434 31 l 1
 429 31 l 1
 425 27 l 1
 418 15 l 1
 418 20 l 1
 415 17 l 1
 415 13 l 1
 405 8 l 1
 405 15 l 1
 411 18 l 1
 414 26 l 1
 397 24 l 1
 390 8 l 1
 387 11 l 1
 384 3 l 1
 380 1 l 1
 384 15 l 1
 385 23 l 1
 392 23 l 1
 406 37 l 1
 401 42 l 1
 399 36 l 1
 395 35 l 1
 385 25 l 1
 377 22 l 1
 376 16 l 1
 370 16 l 1
 364 7 l 1
 362 -5 l 1
 354 -5 l 1
 356 -2 l 1
 349 -1 l 1
 357 6 l 1
 352 6 l 1
 345 13 l 1
 342 3 l 1
 331 -10 l 1
 328 -7 l 1
 332 -3 l 1
 335 4 l 1
 343 16 l 1
 335 11 l 1
 330 11 l 1
 328 7 l 1
 322 7 l 1
 308 1 l 1
 307 -5 l 1
 298 -14 l 1
 300 -2 l 1
 291 -2 l 1
 291 -8 l 1
 286 -10 l 1
 279 -8 l 1
 283 -7 l 1
 283 -2 l 1
 274 -5 l 1
 274 -14 l 1
 264 -12 l 1
 269 -8 l 1
 269 -4 l 1
 264 -4 l 1
 254 -17 l 1
 254 -12 l 1
395 75 m 1
 395 71 l 1
 406 74 l 1
 415 85 l 1
 422 85 l 1
 424 95 l 1
 430 101 l 1
 437 112 l 1
 439 103 l 1
 437 91 l 1
 448 95 l 1
 454 104 l 1
 457 100 l 1
 465 105 l 1
 473 119 l 1
 486 133 l 1
 486 127 l 1
 482 120 l 1
 477 116 l 1
 476 113 l 1
 489 119 l 1
 492 127 l 1
 497 127 l 1
 500 129 l 1
 500 136 l 1
 495 129 l 1
 488 131 l 1
 493 141 l 1
 500 148 l 1
 498 154 l 1
 501 166 l 1
 498 168 l 1
 496 175 l 1
 494 170 l 1
 495 159 l 1
 490 159 l 1
 481 166 l 1
 472 154 l 1
 467 154 l 1
 465 147 l 1
 470 148 l 1
 467 142 l 1
 463 142 l 1
 459 136 l 1
 466 134 l 1
 475 141 l 1
 469 133 l 1
 465 119 l 1
 450 107 l 1
 450 113 l 1
 453 121 l 1
 453 129 l 1
 457 141 l 1
 458 147 l 1
 447 139 l 1
 444 134 l 1
 440 134 l 1
 431 126 l 1
 436 119 l 1
 432 107 l 1
 428 103 l 1
 429 126 l 1
 426 116 l 1
 422 113 l 1
 420 122 l 1
 415 119 l 1
 412 112 l 1
 415 110 l 1
 411 107 l 1
 407 111 l 1
 401 98 l 1
 402 80 l 1
 395 75 l 1
254 284 m 1
 251 295 l 1
 248 292 l 1
 241 295 l 1
 240 288 l 1
 231 289 l 1
 231 295 l 1
 233 298 l 1
 241 297 l 1
 241 303 l 1
 249 309 l 1
 253 305 l 1
 254 299 l 1
 264 300 l 1
 270 298 l 1
 270 288 l 1
 267 283 l 1
 259 279 l 1
 254 284 l 1
30 325 m 1
 36 330 l 1
 33 338 l 1
 41 340 l 1
 44 335 l 1
 42 330 l 1
 35 323 l 1
 36 315 l 1
 30 299 l 1
 30 325 l 1
209 20 m 1
 209 16 l 1
 216 18 l 1
 221 16 l 1
 223 25 l 1
 220 34 l 1
 217 36 l 1
 213 32 l 1
 215 22 l 1
 209 20 l 1
439 110 m 1
 439 116 l 1
 442 120 l 1
 438 123 l 1
 441 130 l 1
 449 134 l 1
 448 123 l 1
 445 120 l 1
 442 104 l 1
 439 110 l 1
225 254 m 1
 225 264 l 1
 230 269 l 1
 236 266 l 1
 236 255 l 1
 231 252 l 1
 225 254 l 1
213 -12 m 1
 228 3 l 1
 229 -2 l 1
 226 -4 l 1
 222 -14 l 1
 213 -12 l 1
98 72 m 1
 92 79 l 1
 99 79 l 1
 103 72 l 1
 102 55 l 1
 98 72 l 1
41 370 m 1
 46 368 l 1
 40 354 l 1
 36 354 l 1
 41 370 l 1
62 534 m 1
 62 541 l 1
 66 543 l 1
 70 540 l 1
 70 536 l 1
 66 533 l 1
 62 534 l 1
204 299 m 1
 202 304 l 1
 207 309 l 1
 213 302 l 1
 204 299 l 1
36 287 m 1
 35 295 l 1
 41 282 l 1
 36 272 l 1
 36 287 l 1
37 176 m 1
 37 184 l 1
 40 185 l 1
 42 179 l 1
 40 171 l 1
 37 176 l 1
146 44 m 1
 152 44 l 1
 150 53 l 1
 146 48 l 1
 146 44 l 1
62 137 m 1
 67 139 l 1
 67 135 l 1
 60 129 l 1
 62 137 l 1
168 0 m 1
 168 6 l 1
 173 6 l 1
 171 -3 l 1
 168 0 l 1
62 99 m 1
 60 107 l 1
 62 111 l 1
 65 100 l 1
 62 99 l 1
55 156 m 1
 63 156 l 1
 59 152 l 1
 55 151 l 1
 55 156 l 1
432 378 m 1
 437 378 l 1
 437 373 l 1
 432 373 l 1
 432 378 l 1
35 263 m 1
 39 265 l 1
 41 261 l 1
 35 258 l 1
 35 263 l 1
59 204 m 1
 59 219 l 1
 62 216 l 1
 59 204 l 1
325 129 m 1
 329 127 l 1
 325 124 l 1
 321 126 l 1
 325 129 l 1
69 122 m 1
 72 129 l 1
 72 116 l 1
 69 122 l 1
59 120 m 1
 62 123 l 1
 63 120 l 1
 59 114 l 1
 59 120 l 1
46 156 m 1
 49 147 l 1
 47 142 l 1
 46 156 l 1
472 151 m 1
 480 148 l 1
 476 148 l 1
 472 146 l 1
 472 151 l 1
613 612 m 1
 617 612 l 1
 617 608 l 1
 613 608 l 1
 613 612 l 1
168 15 m 1
 170 11 l 1
 168 7 l 1
 168 15 l 1
177 121 m 1
 180 119 l 1
 180 123 l 1
 177 121 l 1
EndSplineSet
EndChar

StartChar: H
Encoding: 72 72 33
Width: 624
Flags: W
LayerCount: 2
Fore
SplineSet
202 -12 m 1
 192 -7 l 1
 188 -7 l 1
 186 -10 l 1
 176 -6 l 1
 174 0 l 1
 169 0 l 1
 168 14 l 1
 172 14 l 1
 174 9 l 1
 187 9 l 1
 190 20 l 1
 188 31 l 1
 168 49 l 1
 164 55 l 1
 156 59 l 1
 151 71 l 1
 150 66 l 1
 147 69 l 1
 147 85 l 1
 138 104 l 1
 135 123 l 1
 133 172 l 1
 130 178 l 1
 126 237 l 1
 123 243 l 1
 123 247 l 1
 117 277 l 1
 53 277 l 1
 40 281 l 1
 36 285 l 1
 30 303 l 1
 34 311 l 1
 39 331 l 1
 50 344 l 1
 69 357 l 1
 98 368 l 1
 106 373 l 1
 105 398 l 1
 90 484 l 1
 90 551 l 1
 114 672 l 1
 116 690 l 1
 130 717 l 1
 133 719 l 1
 182 709 l 1
 205 700 l 1
 217 691 l 1
 231 685 l 1
 243 675 l 1
 247 660 l 1
 250 656 l 1
 258 633 l 1
 260 621 l 1
 263 614 l 1
 272 574 l 1
 267 525 l 1
 263 509 l 1
 259 468 l 1
 252 435 l 1
 255 427 l 1
 282 431 l 1
 320 431 l 1
 329 429 l 1
 382 429 l 1
 387 434 l 1
 376 471 l 1
 376 485 l 1
 370 521 l 1
 368 524 l 1
 368 543 l 1
 365 555 l 1
 365 577 l 1
 371 628 l 1
 371 652 l 1
 379 670 l 1
 389 685 l 1
 400 691 l 1
 423 678 l 1
 427 673 l 1
 430 679 l 1
 436 675 l 1
 454 668 l 1
 468 659 l 1
 474 651 l 1
 483 645 l 1
 503 623 l 1
 509 612 l 1
 511 593 l 1
 519 582 l 1
 520 559 l 1
 514 533 l 1
 512 520 l 1
 517 512 l 1
 515 509 l 1
 517 504 l 1
 520 511 l 1
 522 505 l 1
 526 503 l 1
 520 496 l 1
 520 488 l 1
 517 479 l 1
 522 471 l 1
 527 480 l 1
 527 468 l 1
 522 464 l 1
 520 460 l 1
 512 465 l 1
 512 457 l 1
 517 447 l 1
 512 442 l 1
 511 432 l 1
 516 422 l 1
 513 418 l 1
 517 413 l 1
 520 405 l 1
 521 432 l 1
 518 442 l 1
 522 457 l 1
 522 445 l 1
 527 436 l 1
 527 416 l 1
 518 400 l 1
 518 393 l 1
 532 410 l 1
 536 422 l 1
 534 425 l 1
 530 434 l 1
 530 454 l 1
 534 455 l 1
 533 442 l 1
 536 440 l 1
 537 432 l 1
 540 429 l 1
 540 411 l 1
 546 388 l 1
 556 383 l 1
 554 363 l 1
 551 366 l 1
 550 353 l 1
 555 361 l 1
 565 351 l 1
 563 345 l 1
 557 345 l 1
 556 337 l 1
 553 334 l 1
 553 319 l 1
 551 308 l 1
 551 282 l 1
 548 279 l 1
 549 274 l 1
 545 248 l 1
 549 253 l 1
 551 250 l 1
 546 244 l 1
 546 237 l 1
 538 232 l 1
 542 240 l 1
 537 244 l 1
 534 263 l 1
 531 267 l 1
 527 265 l 1
 520 238 l 1
 520 220 l 1
 522 211 l 1
 527 211 l 1
 530 214 l 1
 532 229 l 1
 534 211 l 1
 539 211 l 1
 537 189 l 1
 539 180 l 1
 542 172 l 1
 549 176 l 1
 551 166 l 1
 557 161 l 1
 569 167 l 1
 568 155 l 1
 575 148 l 1
 575 138 l 1
 571 136 l 1
 571 123 l 1
 574 120 l 1
 581 120 l 1
 583 113 l 1
 580 109 l 1
 574 119 l 1
 575 105 l 1
 570 100 l 1
 572 97 l 1
 579 95 l 1
 577 82 l 1
 573 78 l 1
 568 80 l 1
 564 86 l 1
 554 94 l 1
 554 80 l 1
 553 68 l 1
 549 59 l 1
 542 65 l 1
 537 60 l 1
 535 54 l 1
 531 56 l 1
 530 48 l 1
 527 45 l 1
 527 39 l 1
 518 42 l 1
 517 47 l 1
 508 42 l 1
 508 34 l 1
 503 34 l 1
 484 29 l 1
 482 34 l 1
 473 43 l 1
 471 54 l 1
 455 60 l 1
 442 73 l 1
 431 94 l 1
 428 128 l 1
 423 140 l 1
 413 156 l 1
 413 171 l 1
 409 187 l 1
 403 220 l 1
 400 226 l 1
 392 321 l 1
 387 326 l 1
 343 323 l 1
 332 319 l 1
 322 319 l 1
 256 292 l 1
 256 279 l 1
 259 277 l 1
 253 262 l 1
 253 254 l 1
 245 235 l 1
 240 228 l 1
 239 232 l 1
 244 238 l 1
 244 245 l 1
 240 256 l 1
 236 256 l 1
 235 245 l 1
 235 269 l 1
 237 272 l 1
 245 280 l 1
 245 290 l 1
 232 285 l 1
 229 280 l 1
 229 266 l 1
 226 248 l 1
 229 251 l 1
 229 234 l 1
 234 227 l 1
 234 216 l 1
 229 208 l 1
 229 200 l 1
 234 199 l 1
 234 180 l 1
 240 173 l 1
 242 182 l 1
 242 206 l 1
 246 210 l 1
 251 219 l 1
 251 208 l 1
 247 208 l 1
 246 173 l 1
 250 177 l 1
 253 168 l 1
 254 142 l 1
 257 145 l 1
 255 161 l 1
 257 175 l 1
 260 183 l 1
 262 199 l 1
 266 175 l 1
 270 187 l 1
 271 178 l 1
 268 174 l 1
 271 165 l 1
 271 172 l 1
 276 177 l 1
 279 165 l 1
 285 174 l 1
 292 174 l 1
 292 169 l 1
 285 168 l 1
 285 162 l 1
 295 154 l 1
 295 160 l 1
 298 163 l 1
 301 174 l 1
 306 173 l 1
 310 171 l 1
 314 172 l 1
 312 169 l 1
 315 151 l 1
 320 151 l 1
 317 159 l 1
 317 172 l 1
 320 175 l 1
 324 175 l 1
 327 166 l 1
 323 159 l 1
 325 153 l 1
 328 156 l 1
 329 148 l 1
 333 143 l 1
 337 143 l 1
 337 150 l 1
 329 163 l 1
 333 165 l 1
 336 162 l 1
 339 156 l 1
 340 159 l 1
 343 156 l 1
 340 153 l 1
 340 133 l 1
 337 123 l 1
 337 109 l 1
 342 106 l 1
 337 106 l 1
 335 90 l 1
 332 100 l 1
 328 93 l 1
 324 75 l 1
 319 70 l 1
 317 76 l 1
 311 73 l 1
 311 63 l 1
 307 56 l 1
 301 51 l 1
 298 39 l 1
 292 37 l 1
 292 46 l 1
 289 49 l 1
 284 44 l 1
 286 36 l 1
 283 17 l 1
 281 24 l 1
 276 30 l 1
 271 30 l 1
 271 22 l 1
 266 25 l 1
 265 16 l 1
 268 11 l 1
 263 5 l 1
 263 11 l 1
 257 17 l 1
 253 12 l 1
 253 0 l 1
 245 -7 l 1
 237 -6 l 1
 232 -11 l 1
 225 -11 l 1
 218 -14 l 1
 202 -12 l 1
322 455 m 1
 319 464 l 1
 322 474 l 1
 334 474 l 1
 338 469 l 1
 338 461 l 1
 335 455 l 1
 328 452 l 1
 322 455 l 1
534 340 m 1
 534 322 l 1
 542 329 l 1
 542 377 l 1
 539 380 l 1
 534 367 l 1
 541 347 l 1
 534 340 l 1
402 20 m 1
 402 24 l 1
 405 30 l 1
 409 32 l 1
 417 24 l 1
 421 14 l 1
 415 8 l 1
 402 20 l 1
339 237 m 1
 336 254 l 1
 333 257 l 1
 337 257 l 1
 348 254 l 1
 348 245 l 1
 344 237 l 1
 339 237 l 1
586 107 m 1
 588 116 l 1
 588 130 l 1
 593 125 l 1
 591 99 l 1
 588 97 l 1
 586 107 l 1
545 218 m 1
 549 228 l 1
 551 202 l 1
 548 205 l 1
 545 218 l 1
551 174 m 1
 553 180 l 1
 553 185 l 1
 558 185 l 1
 555 166 l 1
 551 174 l 1
584 82 m 1
 584 90 l 1
 591 90 l 1
 594 87 l 1
 591 83 l 1
 584 82 l 1
349 219 m 1
 355 225 l 1
 359 222 l 1
 357 216 l 1
 352 216 l 1
 349 219 l 1
363 188 m 1
 369 195 l 1
 371 190 l 1
 369 182 l 1
 363 188 l 1
366 164 m 1
 368 168 l 1
 374 168 l 1
 374 160 l 1
 366 164 l 1
497 648 m 1
 497 654 l 1
 502 654 l 1
 502 648 l 1
 497 648 l 1
323 285 m 1
 323 291 l 1
 328 291 l 1
 328 285 l 1
 323 285 l 1
562 368 m 1
 569 368 l 1
 562 362 l 1
 562 368 l 1
520 534 m 1
 525 540 l 1
 522 531 l 1
 520 534 l 1
530 359 m 1
 530 354 l 1
 533 357 l 1
 531 362 l 1
 530 359 l 1
543 48 m 1
 545 45 l 1
 543 40 l 1
 543 48 l 1
383 42 m 1
 389 34 l 1
 385 37 l 1
 383 42 l 1
357 73 m 1
 360 71 l 1
 357 69 l 1
 357 73 l 1
EndSplineSet
EndChar

StartChar: I
Encoding: 73 73 34
Width: 277
Flags: W
LayerCount: 2
Fore
SplineSet
90 26 m 1
 85 31 l 1
 81 28 l 1
 84 25 l 1
 84 19 l 1
 77 22 l 1
 70 37 l 1
 67 55 l 1
 60 68 l 1
 54 71 l 1
 48 83 l 1
 48 87 l 1
 47 115 l 1
 45 125 l 1
 48 180 l 1
 46 183 l 1
 47 235 l 1
 43 231 l 1
 35 231 l 1
 33 235 l 1
 33 245 l 1
 50 250 l 1
 47 369 l 1
 54 429 l 1
 54 440 l 1
 57 455 l 1
 57 466 l 1
 67 524 l 1
 68 542 l 1
 70 545 l 1
 78 605 l 1
 87 643 l 1
 97 675 l 1
 106 684 l 1
 110 684 l 1
 144 668 l 1
 164 664 l 1
 208 643 l 1
 234 622 l 1
 242 605 l 1
 244 588 l 1
 242 572 l 1
 247 557 l 1
 245 524 l 1
 241 497 l 1
 238 495 l 1
 238 482 l 1
 228 449 l 1
 223 445 l 1
 220 439 l 1
 220 428 l 1
 216 363 l 1
 210 357 l 1
 212 346 l 1
 209 343 l 1
 204 346 l 1
 204 328 l 1
 200 320 l 1
 200 297 l 1
 194 291 l 1
 194 277 l 1
 188 274 l 1
 192 268 l 1
 199 283 l 1
 203 283 l 1
 207 256 l 1
 205 241 l 1
 202 245 l 1
 199 244 l 1
 200 231 l 1
 194 225 l 1
 194 219 l 1
 198 217 l 1
 194 180 l 1
 199 168 l 1
 202 166 l 1
 199 157 l 1
 199 140 l 1
 202 128 l 1
 204 137 l 1
 204 128 l 1
 198 116 l 1
 200 100 l 1
 200 74 l 1
 197 67 l 1
 187 59 l 1
 176 52 l 1
 168 52 l 1
 160 45 l 1
 148 39 l 1
 136 36 l 1
 113 36 l 1
 111 22 l 1
 105 22 l 1
 99 31 l 1
 97 20 l 1
 93 14 l 1
 90 26 l 1
30 310 m 1
 33 320 l 1
 36 317 l 1
 34 312 l 1
 30 310 l 1
34 288 m 1
 39 288 l 1
 39 283 l 1
 34 283 l 1
 34 288 l 1
202 214 m 1
 204 199 l 1
 202 196 l 1
 202 214 l 1
100 690 m 1
 106 694 l 1
 106 688 l 1
 100 690 l 1
220 311 m 1
 226 306 l 1
 220 306 l 1
 220 311 l 1
60 52 m 1
 60 59 l 1
 63 54 l 1
 60 52 l 1
56 515 m 1
 51 517 l 1
 51 521 l 1
 56 515 l 1
205 303 m 1
 207 307 l 1
 207 300 l 1
 205 303 l 1
65 46 m 1
 63 54 l 1
 65 51 l 1
 65 46 l 1
EndSplineSet
EndChar

StartChar: J
Encoding: 74 74 35
Width: 383
Flags: W
LayerCount: 2
Fore
SplineSet
68 -76 m 1
 62 -69 l 1
 62 -61 l 1
 57 -52 l 1
 45 -38 l 1
 43 -22 l 1
 37 -14 l 1
 36 -7 l 1
 30 6 l 1
 30 57 l 1
 33 65 l 1
 33 81 l 1
 37 87 l 1
 37 94 l 1
 42 104 l 1
 67 123 l 1
 75 132 l 1
 79 128 l 1
 85 130 l 1
 88 133 l 1
 106 130 l 1
 115 136 l 1
 117 123 l 1
 123 123 l 1
 128 120 l 1
 130 123 l 1
 136 117 l 1
 146 116 l 1
 148 105 l 1
 155 108 l 1
 162 91 l 1
 162 82 l 1
 167 77 l 1
 173 77 l 1
 173 65 l 1
 168 57 l 1
 173 59 l 1
 179 69 l 1
 182 79 l 1
 191 88 l 1
 191 102 l 1
 193 111 l 1
 196 162 l 1
 194 166 l 1
 198 187 l 1
 196 194 l 1
 196 208 l 1
 191 236 l 1
 191 269 l 1
 188 274 l 1
 187 287 l 1
 185 292 l 1
 185 314 l 1
 183 317 l 1
 177 351 l 1
 173 436 l 1
 171 440 l 1
 171 463 l 1
 163 509 l 1
 160 517 l 1
 160 524 l 1
 155 545 l 1
 155 559 l 1
 149 571 l 1
 145 599 l 1
 140 617 l 1
 136 626 l 1
 134 637 l 1
 131 643 l 1
 131 651 l 1
 133 654 l 1
 135 667 l 1
 143 683 l 1
 162 694 l 1
 173 694 l 1
 186 689 l 1
 254 654 l 1
 271 649 l 1
 280 643 l 1
 299 625 l 1
 302 617 l 1
 316 608 l 1
 320 599 l 1
 320 568 l 1
 326 545 l 1
 329 539 l 1
 329 520 l 1
 325 518 l 1
 329 512 l 1
 325 508 l 1
 326 489 l 1
 329 484 l 1
 326 458 l 1
 323 452 l 1
 326 450 l 1
 322 446 l 1
 325 445 l 1
 326 426 l 1
 322 417 l 1
 317 400 l 1
 315 386 l 1
 311 373 l 1
 306 365 l 1
 303 343 l 1
 312 364 l 1
 316 366 l 1
 320 383 l 1
 320 394 l 1
 326 405 l 1
 328 388 l 1
 326 379 l 1
 323 376 l 1
 323 352 l 1
 327 351 l 1
 329 362 l 1
 337 362 l 1
 337 357 l 1
 332 354 l 1
 334 349 l 1
 328 340 l 1
 328 332 l 1
 325 326 l 1
 326 310 l 1
 332 305 l 1
 332 295 l 1
 328 294 l 1
 325 288 l 1
 319 282 l 1
 323 271 l 1
 325 260 l 1
 325 240 l 1
 323 229 l 1
 319 227 l 1
 319 213 l 1
 325 178 l 1
 323 169 l 1
 326 139 l 1
 328 136 l 1
 323 136 l 1
 319 123 l 1
 317 98 l 1
 320 90 l 1
 317 85 l 1
 320 69 l 1
 323 90 l 1
 329 102 l 1
 328 105 l 1
 325 103 l 1
 329 109 l 1
 331 106 l 1
 331 99 l 1
 326 80 l 1
 325 62 l 1
 320 62 l 1
 319 57 l 1
 315 51 l 1
 317 36 l 1
 315 30 l 1
 310 22 l 1
 304 19 l 1
 302 11 l 1
 293 13 l 1
 289 -4 l 1
 284 -9 l 1
 283 -15 l 1
 278 -21 l 1
 278 -31 l 1
 268 -45 l 1
 262 -48 l 1
 270 -36 l 1
 268 -33 l 1
 260 -42 l 1
 257 -54 l 1
 252 -57 l 1
 254 -45 l 1
 259 -39 l 1
 251 -32 l 1
 249 -45 l 1
 245 -51 l 1
 240 -67 l 1
 234 -61 l 1
 236 -48 l 1
 231 -46 l 1
 224 -39 l 1
 218 -39 l 1
 220 -60 l 1
 215 -78 l 1
 211 -78 l 1
 208 -81 l 1
 203 -81 l 1
 205 -77 l 1
 205 -69 l 1
 209 -61 l 1
 206 -45 l 1
 196 -53 l 1
 192 -61 l 1
 185 -65 l 1
 185 -73 l 1
 179 -73 l 1
 177 -78 l 1
 171 -74 l 1
 169 -80 l 1
 162 -83 l 1
 167 -74 l 1
 160 -74 l 1
 160 -67 l 1
 152 -61 l 1
 148 -63 l 1
 134 -52 l 1
 123 -52 l 1
 120 -49 l 1
 116 -54 l 1
 108 -54 l 1
 106 -58 l 1
 102 -58 l 1
 100 -51 l 1
 89 -43 l 1
 89 -51 l 1
 103 -70 l 1
 97 -70 l 1
 93 -74 l 1
 86 -67 l 1
 85 -55 l 1
 76 -52 l 1
 73 -57 l 1
 80 -64 l 1
 80 -76 l 1
 74 -81 l 1
 71 -87 l 1
 68 -76 l 1
101 -13 m 1
 106 -11 l 1
 125 -11 l 1
 130 -7 l 1
 139 5 l 1
 142 11 l 1
 152 14 l 1
 155 22 l 1
 163 31 l 1
 165 40 l 1
 158 38 l 1
 155 46 l 1
 148 42 l 1
 139 34 l 1
 134 39 l 1
 132 44 l 1
 123 35 l 1
 106 39 l 1
 103 37 l 1
 91 39 l 1
 85 37 l 1
 80 25 l 1
 80 12 l 1
 83 3 l 1
 88 2 l 1
 90 -7 l 1
 101 -13 l 1
322 220 m 1
 327 228 l 1
 329 223 l 1
 331 231 l 1
 332 244 l 1
 329 248 l 1
 329 254 l 1
 333 259 l 1
 329 273 l 1
 334 279 l 1
 335 269 l 1
 339 272 l 1
 342 276 l 1
 342 271 l 1
 337 262 l 1
 342 260 l 1
 337 253 l 1
 340 248 l 1
 339 240 l 1
 343 243 l 1
 343 226 l 1
 339 228 l 1
 335 226 l 1
 331 215 l 1
 326 217 l 1
 322 214 l 1
 322 220 l 1
171 100 m 1
 166 100 l 1
 168 115 l 1
 174 120 l 1
 185 120 l 1
 188 117 l 1
 190 111 l 1
 186 100 l 1
 176 96 l 1
 171 100 l 1
134 230 m 1
 130 232 l 1
 130 244 l 1
 133 247 l 1
 140 247 l 1
 143 245 l 1
 152 245 l 1
 156 242 l 1
 154 237 l 1
 145 229 l 1
 134 230 l 1
300 294 m 1
 306 291 l 1
 306 298 l 1
 310 310 l 1
 306 322 l 1
 302 322 l 1
 299 316 l 1
 302 311 l 1
 300 308 l 1
 300 294 l 1
167 224 m 1
 167 234 l 1
 170 237 l 1
 177 237 l 1
 180 234 l 1
 180 225 l 1
 177 222 l 1
 171 222 l 1
 167 224 l 1
159 197 m 1
 159 209 l 1
 170 209 l 1
 173 203 l 1
 173 199 l 1
 168 194 l 1
 159 197 l 1
110 256 m 1
 110 260 l 1
 113 266 l 1
 120 266 l 1
 127 260 l 1
 119 253 l 1
 113 254 l 1
 110 256 l 1
342 160 m 1
 346 178 l 1
 345 196 l 1
 347 217 l 1
 348 180 l 1
 347 166 l 1
 342 156 l 1
 342 160 l 1
151 216 m 1
 151 222 l 1
 157 222 l 1
 160 220 l 1
 157 213 l 1
 154 211 l 1
 151 216 l 1
339 283 m 1
 342 289 l 1
 337 297 l 1
 343 303 l 1
 343 283 l 1
 340 280 l 1
 339 283 l 1
49 158 m 1
 54 166 l 1
 57 163 l 1
 57 157 l 1
 54 154 l 1
 51 153 l 1
 49 158 l 1
348 274 m 1
 353 286 l 1
 351 264 l 1
 348 262 l 1
 348 274 l 1
152 -69 m 1
 157 -69 l 1
 157 -80 l 1
 152 -80 l 1
 152 -69 l 1
302 37 m 1
 302 22 l 1
 305 27 l 1
 306 42 l 1
 302 37 l 1
126 -87 m 1
 129 -80 l 1
 123 -78 l 1
 136 -74 l 1
 131 -78 l 1
 131 -86 l 1
 126 -87 l 1
334 502 m 1
 334 521 l 1
 337 512 l 1
 337 499 l 1
 334 502 l 1
329 408 m 1
 326 415 l 1
 331 417 l 1
 331 401 l 1
 329 408 l 1
329 142 m 1
 331 163 l 1
 332 139 l 1
 329 142 l 1
340 316 m 1
 342 329 l 1
 343 307 l 1
 340 316 l 1
302 -6 m 1
 303 -3 l 1
 308 2 l 1
 303 -11 l 1
 302 -6 l 1
43 85 m 1
 49 83 l 1
 51 90 l 1
 43 85 l 1
345 259 m 1
 347 244 l 1
 345 237 l 1
 345 259 l 1
195 -71 m 1
 201 -69 l 1
 198 -77 l 1
 195 -71 l 1
325 211 m 1
 328 205 l 1
 325 199 l 1
 325 211 l 1
351 123 m 1
 353 130 l 1
 353 120 l 1
 351 116 l 1
 351 123 l 1
148 37 m 1
 152 37 l 1
 152 33 l 1
 148 37 l 1
345 77 m 1
 347 83 l 1
 346 74 l 1
 345 77 l 1
EndSplineSet
EndChar

StartChar: K
Encoding: 75 75 36
Width: 677
Flags: W
LayerCount: 2
Fore
SplineSet
276 49 m 1
 276 37 l 1
 283 39 l 1
 289 22 l 1
 295 20 l 1
 295 16 l 1
 292 13 l 1
 292 3 l 1
 299 5 l 1
 302 3 l 1
 302 -4 l 1
 293 -5 l 1
 292 -11 l 1
 287 -11 l 1
 288 4 l 1
 286 8 l 1
 285 -1 l 1
 277 -11 l 1
 278 2 l 1
 273 2 l 1
 272 -8 l 1
 274 -11 l 1
 274 -21 l 1
 267 -24 l 1
 261 -28 l 1
 257 -35 l 1
 251 -38 l 1
 250 -43 l 1
 233 -45 l 1
 226 -50 l 1
 216 -53 l 1
 213 -51 l 1
 203 -59 l 1
 196 -59 l 1
 193 -56 l 1
 191 -59 l 1
 189 -63 l 1
 181 -63 l 1
 188 -57 l 1
 185 -55 l 1
 179 -62 l 1
 168 -64 l 1
 166 -61 l 1
 156 -58 l 1
 142 -45 l 1
 126 0 l 1
 118 27 l 1
 115 93 l 1
 101 148 l 1
 94 165 l 1
 81 259 l 1
 75 266 l 1
 78 286 l 1
 75 301 l 1
 46 309 l 1
 39 316 l 1
 37 323 l 1
 40 330 l 1
 40 335 l 1
 45 336 l 1
 46 343 l 1
 63 353 l 1
 61 372 l 1
 57 381 l 1
 57 396 l 1
 51 405 l 1
 52 417 l 1
 46 450 l 1
 39 597 l 1
 40 618 l 1
 30 675 l 1
 38 697 l 1
 41 701 l 1
 44 702 l 1
 48 707 l 1
 63 707 l 1
 69 703 l 1
 80 700 l 1
 95 693 l 1
 125 689 l 1
 139 689 l 1
 167 673 l 1
 202 645 l 1
 215 616 l 1
 216 595 l 1
 221 579 l 1
 221 559 l 1
 225 507 l 1
 225 487 l 1
 226 474 l 1
 255 525 l 1
 285 566 l 1
 357 653 l 1
 390 668 l 1
 410 680 l 1
 410 675 l 1
 416 672 l 1
 422 674 l 1
 431 674 l 1
 464 655 l 1
 467 648 l 1
 471 646 l 1
 478 646 l 1
 483 639 l 1
 487 628 l 1
 490 625 l 1
 492 617 l 1
 495 619 l 1
 497 605 l 1
 506 603 l 1
 514 597 l 1
 511 595 l 1
 508 586 l 1
 506 591 l 1
 504 588 l 1
 499 588 l 1
 501 580 l 1
 498 578 l 1
 498 568 l 1
 494 563 l 1
 482 561 l 1
 472 552 l 1
 470 544 l 1
 466 541 l 1
 463 532 l 1
 455 532 l 1
 455 526 l 1
 448 523 l 1
 445 516 l 1
 445 509 l 1
 432 497 l 1
 429 489 l 1
 425 486 l 1
 424 482 l 1
 419 477 l 1
 418 470 l 1
 412 467 l 1
 411 461 l 1
 409 468 l 1
 406 466 l 1
 403 456 l 1
 368 416 l 1
 346 402 l 1
 346 393 l 1
 355 382 l 1
 363 370 l 1
 364 364 l 1
 381 334 l 1
 398 312 l 1
 405 310 l 1
 431 277 l 1
 443 246 l 1
 451 236 l 1
 454 224 l 1
 448 216 l 1
 451 195 l 1
 458 183 l 1
 460 163 l 1
 468 148 l 1
 474 144 l 1
 483 143 l 1
 488 139 l 1
 500 135 l 1
 513 143 l 1
 522 136 l 1
 525 123 l 1
 530 133 l 1
 533 127 l 1
 547 125 l 1
 551 119 l 1
 561 114 l 1
 564 107 l 1
 570 111 l 1
 577 107 l 1
 589 104 l 1
 590 96 l 1
 600 91 l 1
 607 91 l 1
 617 84 l 1
 621 66 l 1
 621 49 l 1
 618 33 l 1
 615 31 l 1
 610 21 l 1
 606 20 l 1
 602 14 l 1
 593 20 l 1
 588 11 l 1
 584 11 l 1
 579 20 l 1
 573 7 l 1
 570 9 l 1
 569 15 l 1
 562 25 l 1
 556 22 l 1
 549 13 l 1
 547 5 l 1
 537 14 l 1
 530 6 l 1
 525 6 l 1
 512 17 l 1
 506 8 l 1
 503 12 l 1
 500 9 l 1
 497 -1 l 1
 495 9 l 1
 488 13 l 1
 483 13 l 1
 478 8 l 1
 474 13 l 1
 471 -1 l 1
 467 -1 l 1
 467 5 l 1
 470 9 l 1
 470 13 l 1
 462 10 l 1
 458 7 l 1
 446 7 l 1
 438 19 l 1
 436 32 l 1
 437 80 l 1
 434 92 l 1
 407 112 l 1
 404 103 l 1
 400 104 l 1
 402 113 l 1
 378 142 l 1
 377 146 l 1
 367 155 l 1
 366 159 l 1
 334 202 l 1
 319 225 l 1
 261 326 l 1
 253 345 l 1
 250 347 l 1
 240 333 l 1
 236 323 l 1
 235 315 l 1
 238 318 l 1
 239 302 l 1
 236 300 l 1
 235 291 l 1
 243 297 l 1
 241 288 l 1
 237 287 l 1
 238 277 l 1
 234 277 l 1
 234 248 l 1
 238 257 l 1
 241 260 l 1
 244 269 l 1
 250 263 l 1
 245 255 l 1
 248 250 l 1
 258 241 l 1
 269 233 l 1
 273 233 l 1
 278 229 l 1
 272 221 l 1
 270 214 l 1
 262 208 l 1
 257 211 l 1
 255 206 l 1
 255 199 l 1
 251 195 l 1
 254 189 l 1
 254 183 l 1
 259 180 l 1
 261 169 l 1
 264 163 l 1
 266 152 l 1
 263 145 l 1
 263 126 l 1
 261 120 l 1
 264 117 l 1
 269 122 l 1
 262 99 l 1
 264 90 l 1
 267 94 l 1
 267 87 l 1
 259 85 l 1
 257 71 l 1
 259 67 l 1
 258 55 l 1
 263 57 l 1
 264 71 l 1
 274 77 l 1
 273 56 l 1
 276 49 l 1
482 -136 m 1
 483 -120 l 1
 489 -116 l 1
 498 -116 l 1
 503 -103 l 1
 508 -103 l 1
 514 -110 l 1
 511 -116 l 1
 502 -126 l 1
 500 -136 l 1
 495 -140 l 1
 487 -140 l 1
 482 -136 l 1
289 161 m 1
 285 170 l 1
 279 179 l 1
 280 189 l 1
 291 188 l 1
 292 179 l 1
 299 179 l 1
 302 176 l 1
 308 174 l 1
 304 165 l 1
 299 161 l 1
 289 161 l 1
331 -115 m 1
 329 -107 l 1
 333 -98 l 1
 347 -98 l 1
 351 -104 l 1
 350 -114 l 1
 342 -118 l 1
 331 -115 l 1
235 198 m 1
 237 195 l 1
 245 205 l 1
 242 210 l 1
 239 222 l 1
 241 230 l 1
 240 234 l 1
 233 245 l 1
 232 215 l 1
 235 206 l 1
 235 198 l 1
444 -150 m 1
 442 -144 l 1
 442 -135 l 1
 444 -132 l 1
 452 -132 l 1
 456 -138 l 1
 456 -148 l 1
 451 -153 l 1
 444 -150 l 1
389 -97 m 1
 387 -92 l 1
 387 -78 l 1
 397 -78 l 1
 400 -91 l 1
 400 -100 l 1
 389 -97 l 1
448 -116 m 1
 449 -112 l 1
 449 -107 l 1
 453 -104 l 1
 455 -98 l 1
 460 -98 l 1
 460 -106 l 1
 453 -109 l 1
 458 -119 l 1
 455 -122 l 1
 448 -122 l 1
 448 -116 l 1
479 -95 m 1
 479 -85 l 1
 485 -85 l 1
 491 -91 l 1
 491 -95 l 1
 485 -98 l 1
 479 -95 l 1
274 196 m 1
 274 206 l 1
 279 206 l 1
 283 200 l 1
 279 196 l 1
 274 196 l 1
317 169 m 1
 320 171 l 1
 324 176 l 1
 328 172 l 1
 326 169 l 1
 321 169 l 1
 320 166 l 1
 317 169 l 1
639 43 m 1
 643 50 l 1
 647 50 l 1
 647 45 l 1
 644 44 l 1
 639 43 l 1
361 137 m 1
 366 136 l 1
 366 132 l 1
 361 133 l 1
 361 137 l 1
434 421 m 1
 436 424 l 1
 439 422 l 1
 437 417 l 1
 434 421 l 1
324 191 m 1
 324 195 l 1
 328 195 l 1
 328 190 l 1
 324 191 l 1
393 83 m 1
 397 86 l 1
 397 81 l 1
 393 83 l 1
483 676 m 1
 486 675 l 1
 483 672 l 1
 483 676 l 1
EndSplineSet
EndChar

StartChar: L
Encoding: 76 76 37
Width: 518
Flags: W
LayerCount: 2
Fore
SplineSet
109 -28 m 1
 95 -18 l 1
 88 -17 l 1
 82 -6 l 1
 82 26 l 1
 77 37 l 1
 73 78 l 1
 67 91 l 1
 65 101 l 1
 57 121 l 1
 48 171 l 1
 49 206 l 1
 35 251 l 1
 30 279 l 1
 55 488 l 1
 53 494 l 1
 57 498 l 1
 74 599 l 1
 82 620 l 1
 84 629 l 1
 103 651 l 1
 111 651 l 1
 118 657 l 1
 128 657 l 1
 141 646 l 1
 170 629 l 1
 183 617 l 1
 206 612 l 1
 220 602 l 1
 228 599 l 1
 246 587 l 1
 258 571 l 1
 265 550 l 1
 265 537 l 1
 263 517 l 1
 259 512 l 1
 259 505 l 1
 251 470 l 1
 251 441 l 1
 242 408 l 1
 237 396 l 1
 236 383 l 1
 230 362 l 1
 230 351 l 1
 224 337 l 1
 215 327 l 1
 215 320 l 1
 212 310 l 1
 207 306 l 1
 207 299 l 1
 210 292 l 1
 204 286 l 1
 204 272 l 1
 207 263 l 1
 201 253 l 1
 209 252 l 1
 208 247 l 1
 205 245 l 1
 207 241 l 1
 207 234 l 1
 200 217 l 1
 199 203 l 1
 197 200 l 1
 200 191 l 1
 204 195 l 1
 202 181 l 1
 201 162 l 1
 206 149 l 1
 205 132 l 1
 210 132 l 1
 248 147 l 1
 263 154 l 1
 303 165 l 1
 313 170 l 1
 333 174 l 1
 337 177 l 1
 343 221 l 1
 350 239 l 1
 356 249 l 1
 386 258 l 1
 408 250 l 1
 421 240 l 1
 423 231 l 1
 427 230 l 1
 430 220 l 1
 433 219 l 1
 438 206 l 1
 444 198 l 1
 448 186 l 1
 453 186 l 1
 459 189 l 1
 461 184 l 1
 466 181 l 1
 466 174 l 1
 473 164 l 1
 479 161 l 1
 481 153 l 1
 488 143 l 1
 477 128 l 1
 477 120 l 1
 472 108 l 1
 467 100 l 1
 466 91 l 1
 461 90 l 1
 453 84 l 1
 402 73 l 1
 397 70 l 1
 376 64 l 1
 375 53 l 1
 368 53 l 1
 365 60 l 1
 361 60 l 1
 356 56 l 1
 351 56 l 1
 321 42 l 1
 314 33 l 1
 308 33 l 1
 301 36 l 1
 282 22 l 1
 255 -2 l 1
 235 -13 l 1
 221 -18 l 1
 173 -19 l 1
 113 -26 l 1
 109 -28 l 1
264 195 m 1
 264 204 l 1
 272 204 l 1
 275 195 l 1
 271 191 l 1
 264 195 l 1
350 43 m 1
 350 52 l 1
 356 51 l 1
 358 48 l 1
 358 39 l 1
 350 43 l 1
215 201 m 1
 215 207 l 1
 224 207 l 1
 224 199 l 1
 215 201 l 1
455 56 m 1
 456 64 l 1
 463 64 l 1
 462 56 l 1
 455 56 l 1
249 153 m 1
 249 160 l 1
 255 160 l 1
 255 153 l 1
 249 153 l 1
356 516 m 1
 356 521 l 1
 362 520 l 1
 362 515 l 1
 358 513 l 1
 356 516 l 1
263 351 m 1
 270 353 l 1
 270 347 l 1
 265 347 l 1
 263 351 l 1
277 241 m 1
 280 238 l 1
 277 222 l 1
 277 241 l 1
461 199 m 1
 469 196 l 1
 466 194 l 1
 461 194 l 1
 461 199 l 1
265 252 m 1
 271 253 l 1
 267 249 l 1
 265 252 l 1
EndSplineSet
EndChar

StartChar: M
Encoding: 77 77 38
Width: 752
Flags: W
LayerCount: 2
Fore
SplineSet
675 39 m 1
 672 38 l 1
 664 39 l 1
 655 44 l 1
 654 47 l 1
 649 47 l 1
 637 79 l 1
 629 90 l 1
 625 79 l 1
 625 88 l 1
 628 101 l 1
 620 113 l 1
 607 148 l 1
 602 146 l 1
 605 155 l 1
 596 183 l 1
 592 183 l 1
 590 200 l 1
 587 207 l 1
 582 224 l 1
 573 271 l 1
 567 329 l 1
 567 354 l 1
 562 353 l 1
 566 358 l 1
 563 371 l 1
 563 358 l 1
 557 350 l 1
 557 354 l 1
 553 357 l 1
 553 339 l 1
 559 332 l 1
 557 327 l 1
 560 319 l 1
 556 319 l 1
 553 331 l 1
 550 328 l 1
 552 318 l 1
 551 311 l 1
 552 303 l 1
 545 297 l 1
 543 302 l 1
 539 292 l 1
 541 285 l 1
 542 294 l 1
 543 285 l 1
 539 269 l 1
 537 276 l 1
 533 276 l 1
 533 253 l 1
 528 244 l 1
 528 250 l 1
 531 257 l 1
 526 265 l 1
 523 262 l 1
 523 244 l 1
 527 238 l 1
 527 230 l 1
 515 232 l 1
 513 245 l 1
 511 222 l 1
 513 214 l 1
 511 203 l 1
 507 197 l 1
 500 197 l 1
 499 204 l 1
 496 201 l 1
 496 188 l 1
 491 178 l 1
 484 175 l 1
 479 175 l 1
 471 172 l 1
 429 175 l 1
 426 179 l 1
 420 176 l 1
 406 184 l 1
 401 185 l 1
 399 190 l 1
 393 187 l 1
 393 201 l 1
 386 201 l 1
 383 203 l 1
 376 203 l 1
 371 200 l 1
 369 205 l 1
 358 191 l 1
 354 199 l 1
 350 195 l 1
 356 188 l 1
 356 177 l 1
 352 171 l 1
 360 158 l 1
 360 129 l 1
 352 120 l 1
 345 120 l 1
 340 125 l 1
 337 134 l 1
 333 167 l 1
 325 169 l 1
 319 176 l 1
 319 189 l 1
 325 195 l 1
 337 198 l 1
 340 206 l 1
 345 211 l 1
 342 215 l 1
 342 224 l 1
 349 224 l 1
 353 221 l 1
 355 227 l 1
 362 229 l 1
 360 236 l 1
 361 246 l 1
 365 251 l 1
 345 285 l 1
 334 285 l 1
 336 297 l 1
 310 330 l 1
 300 347 l 1
 291 376 l 1
 281 380 l 1
 277 389 l 1
 283 398 l 1
 275 414 l 1
 256 433 l 1
 251 392 l 1
 253 387 l 1
 251 381 l 1
 251 356 l 1
 247 351 l 1
 250 346 l 1
 251 338 l 1
 251 319 l 1
 254 313 l 1
 257 311 l 1
 257 300 l 1
 273 298 l 1
 279 286 l 1
 278 274 l 1
 274 265 l 1
 263 259 l 1
 253 259 l 1
 249 254 l 1
 251 249 l 1
 250 218 l 1
 244 213 l 1
 239 180 l 1
 237 177 l 1
 231 145 l 1
 232 137 l 1
 224 88 l 1
 214 73 l 1
 203 63 l 1
 181 54 l 1
 121 55 l 1
 99 60 l 1
 41 62 l 1
 33 66 l 1
 30 72 l 1
 37 94 l 1
 41 112 l 1
 41 141 l 1
 48 170 l 1
 52 196 l 1
 60 231 l 1
 63 236 l 1
 69 255 l 1
 69 265 l 1
 73 271 l 1
 73 283 l 1
 79 375 l 1
 88 443 l 1
 88 461 l 1
 96 553 l 1
 93 569 l 1
 94 597 l 1
 90 607 l 1
 92 623 l 1
 96 626 l 1
 103 652 l 1
 111 667 l 1
 111 673 l 1
 116 675 l 1
 118 682 l 1
 135 688 l 1
 160 688 l 1
 195 673 l 1
 224 657 l 1
 275 625 l 1
 289 610 l 1
 312 581 l 1
 333 546 l 1
 361 491 l 1
 364 488 l 1
 367 473 l 1
 360 465 l 1
 357 457 l 1
 352 451 l 1
 351 419 l 1
 354 401 l 1
 360 375 l 1
 366 358 l 1
 391 330 l 1
 403 359 l 1
 406 374 l 1
 411 390 l 1
 425 425 l 1
 415 427 l 1
 408 431 l 1
 406 441 l 1
 411 451 l 1
 421 454 l 1
 432 451 l 1
 433 457 l 1
 453 516 l 1
 466 543 l 1
 473 566 l 1
 498 608 l 1
 507 617 l 1
 518 644 l 1
 530 662 l 1
 539 671 l 1
 550 673 l 1
 565 668 l 1
 575 668 l 1
 588 659 l 1
 591 655 l 1
 599 651 l 1
 627 628 l 1
 632 627 l 1
 646 612 l 1
 666 600 l 1
 670 600 l 1
 686 588 l 1
 688 578 l 1
 694 568 l 1
 692 563 l 1
 678 547 l 1
 657 541 l 1
 657 533 l 1
 669 520 l 1
 671 515 l 1
 681 506 l 1
 691 488 l 1
 698 471 l 1
 702 450 l 1
 706 441 l 1
 711 417 l 1
 715 388 l 1
 715 337 l 1
 709 314 l 1
 709 275 l 1
 706 266 l 1
 709 263 l 1
 706 258 l 1
 710 247 l 1
 705 207 l 1
 704 171 l 1
 708 147 l 1
 713 151 l 1
 707 162 l 1
 710 165 l 1
 714 174 l 1
 715 137 l 1
 718 128 l 1
 717 125 l 1
 719 118 l 1
 718 83 l 1
 722 78 l 1
 722 65 l 1
 716 62 l 1
 713 45 l 1
 709 41 l 1
 702 43 l 1
 699 40 l 1
 697 34 l 1
 692 38 l 1
 684 34 l 1
 679 49 l 1
 675 39 l 1
400 113 m 1
 392 121 l 1
 390 147 l 1
 383 153 l 1
 383 161 l 1
 394 167 l 1
 401 167 l 1
 398 158 l 1
 398 149 l 1
 410 148 l 1
 418 139 l 1
 420 123 l 1
 414 114 l 1
 406 111 l 1
 400 113 l 1
516 300 m 1
 520 274 l 1
 529 278 l 1
 529 284 l 1
 521 285 l 1
 517 300 l 1
 523 302 l 1
 525 315 l 1
 530 317 l 1
 531 327 l 1
 537 337 l 1
 535 369 l 1
 529 362 l 1
 531 347 l 1
 531 340 l 1
 528 335 l 1
 524 320 l 1
 520 314 l 1
 517 307 l 1
 516 318 l 1
 523 339 l 1
 521 349 l 1
 518 346 l 1
 515 326 l 1
 511 315 l 1
 514 310 l 1
 516 300 l 1
547 107 m 1
 537 117 l 1
 537 125 l 1
 546 131 l 1
 543 140 l 1
 552 144 l 1
 555 141 l 1
 555 136 l 1
 551 131 l 1
 560 125 l 1
 562 118 l 1
 562 104 l 1
 554 104 l 1
 547 107 l 1
433 57 m 1
 424 67 l 1
 424 79 l 1
 428 83 l 1
 437 82 l 1
 443 73 l 1
 443 62 l 1
 438 57 l 1
 433 57 l 1
233 322 m 1
 240 322 l 1
 245 325 l 1
 245 339 l 1
 243 344 l 1
 241 354 l 1
 236 354 l 1
 232 351 l 1
 233 322 l 1
331 61 m 1
 329 64 l 1
 329 72 l 1
 331 76 l 1
 342 76 l 1
 347 70 l 1
 347 60 l 1
 331 61 l 1
226 42 m 1
 226 49 l 1
 228 52 l 1
 240 52 l 1
 243 44 l 1
 240 36 l 1
 230 37 l 1
 226 42 l 1
526 294 m 1
 531 291 l 1
 537 296 l 1
 540 304 l 1
 537 322 l 1
 531 312 l 1
 534 298 l 1
 526 294 l 1
596 118 m 1
 590 127 l 1
 594 130 l 1
 602 130 l 1
 604 118 l 1
 596 118 l 1
252 34 m 1
 252 43 l 1
 264 44 l 1
 264 35 l 1
 257 32 l 1
 252 34 l 1
293 226 m 1
 295 233 l 1
 301 233 l 1
 304 228 l 1
 301 222 l 1
 297 222 l 1
 293 226 l 1
257 318 m 1
 258 326 l 1
 264 326 l 1
 263 318 l 1
 257 318 l 1
330 649 m 1
 330 654 l 1
 334 654 l 1
 334 649 l 1
 330 649 l 1
385 351 m 1
 385 355 l 1
 388 353 l 1
 385 351 l 1
EndSplineSet
EndChar

StartChar: N
Encoding: 78 78 39
Width: 650
Flags: W
LayerCount: 2
Fore
SplineSet
80 -18 m 1
 70 -4 l 1
 66 11 l 1
 73 168 l 1
 68 242 l 1
 70 286 l 1
 87 393 l 1
 88 415 l 1
 91 424 l 1
 91 446 l 1
 109 589 l 1
 112 600 l 1
 91 612 l 1
 87 616 l 1
 82 617 l 1
 48 634 l 1
 30 645 l 1
 36 657 l 1
 40 675 l 1
 46 680 l 1
 49 696 l 1
 61 707 l 1
 70 712 l 1
 85 712 l 1
 143 696 l 1
 163 686 l 1
 175 682 l 1
 216 662 l 1
 259 631 l 1
 290 614 l 1
 304 599 l 1
 311 595 l 1
 320 584 l 1
 340 563 l 1
 347 560 l 1
 392 504 l 1
 404 467 l 1
 417 443 l 1
 420 434 l 1
 424 430 l 1
 430 404 l 1
 437 385 l 1
 448 365 l 1
 458 336 l 1
 458 330 l 1
 462 319 l 1
 465 363 l 1
 468 375 l 1
 462 447 l 1
 463 479 l 1
 465 486 l 1
 461 497 l 1
 465 524 l 1
 465 552 l 1
 469 569 l 1
 469 582 l 1
 467 590 l 1
 469 625 l 1
 479 641 l 1
 493 643 l 1
 500 653 l 1
 506 653 l 1
 510 657 l 1
 510 665 l 1
 529 664 l 1
 542 668 l 1
 574 666 l 1
 595 653 l 1
 600 646 l 1
 602 633 l 1
 608 630 l 1
 605 625 l 1
 607 595 l 1
 601 590 l 1
 594 586 l 1
 592 575 l 1
 584 560 l 1
 580 556 l 1
 578 519 l 1
 574 513 l 1
 572 504 l 1
 571 489 l 1
 567 471 l 1
 562 461 l 1
 562 482 l 1
 566 487 l 1
 566 492 l 1
 564 495 l 1
 561 489 l 1
 561 483 l 1
 557 470 l 1
 559 456 l 1
 565 457 l 1
 570 460 l 1
 570 450 l 1
 563 436 l 1
 566 417 l 1
 565 388 l 1
 567 383 l 1
 565 372 l 1
 565 366 l 1
 562 372 l 1
 562 391 l 1
 565 393 l 1
 562 399 l 1
 559 396 l 1
 558 389 l 1
 556 394 l 1
 558 399 l 1
 559 406 l 1
 553 405 l 1
 551 395 l 1
 552 383 l 1
 554 380 l 1
 568 345 l 1
 566 338 l 1
 562 344 l 1
 562 332 l 1
 554 315 l 1
 555 297 l 1
 558 303 l 1
 559 297 l 1
 564 297 l 1
 565 310 l 1
 570 306 l 1
 570 310 l 1
 564 314 l 1
 568 327 l 1
 574 310 l 1
 574 301 l 1
 572 297 l 1
 572 283 l 1
 579 276 l 1
 572 260 l 1
 571 269 l 1
 570 252 l 1
 575 243 l 1
 574 227 l 1
 571 214 l 1
 577 208 l 1
 581 209 l 1
 587 214 l 1
 587 201 l 1
 589 196 l 1
 587 189 l 1
 588 177 l 1
 578 157 l 1
 581 125 l 1
 585 120 l 1
 587 135 l 1
 591 135 l 1
 592 125 l 1
 594 119 l 1
 590 66 l 1
 592 61 l 1
 592 44 l 1
 588 35 l 1
 592 30 l 1
 589 22 l 1
 584 32 l 1
 584 24 l 1
 575 12 l 1
 575 0 l 1
 572 -5 l 1
 562 -5 l 1
 553 1 l 1
 543 -2 l 1
 533 1 l 1
 533 12 l 1
 529 8 l 1
 528 4 l 1
 522 4 l 1
 517 8 l 1
 513 17 l 1
 507 17 l 1
 507 24 l 1
 510 31 l 1
 507 33 l 1
 499 26 l 1
 504 13 l 1
 502 6 l 1
 493 11 l 1
 490 30 l 1
 485 25 l 1
 483 38 l 1
 476 24 l 1
 472 25 l 1
 469 19 l 1
 468 25 l 1
 468 38 l 1
 463 42 l 1
 463 65 l 1
 456 92 l 1
 446 112 l 1
 436 150 l 1
 428 160 l 1
 424 160 l 1
 399 189 l 1
 395 201 l 1
 402 190 l 1
 402 194 l 1
 389 212 l 1
 387 208 l 1
 381 222 l 1
 374 229 l 1
 360 251 l 1
 317 343 l 1
 291 387 l 1
 278 413 l 1
 269 398 l 1
 260 362 l 1
 264 362 l 1
 265 371 l 1
 272 373 l 1
 269 369 l 1
 265 358 l 1
 264 347 l 1
 262 341 l 1
 259 338 l 1
 259 334 l 1
 258 337 l 1
 255 331 l 1
 247 308 l 1
 246 293 l 1
 242 277 l 1
 236 276 l 1
 231 271 l 1
 233 249 l 1
 238 249 l 1
 231 242 l 1
 233 230 l 1
 231 212 l 1
 227 203 l 1
 224 201 l 1
 220 194 l 1
 220 137 l 1
 218 133 l 1
 217 112 l 1
 213 105 l 1
 218 93 l 1
 212 91 l 1
 217 86 l 1
 214 79 l 1
 213 67 l 1
 217 60 l 1
 217 52 l 1
 213 46 l 1
 218 41 l 1
 218 37 l 1
 214 32 l 1
 210 34 l 1
 208 29 l 1
 202 32 l 1
 199 31 l 1
 207 25 l 1
 210 19 l 1
 216 19 l 1
 216 12 l 1
 204 20 l 1
 203 13 l 1
 207 9 l 1
 213 8 l 1
 225 3 l 1
 225 -1 l 1
 213 2 l 1
 207 2 l 1
 207 -6 l 1
 212 -9 l 1
 207 -14 l 1
 204 -9 l 1
 200 -13 l 1
 200 -17 l 1
 183 -17 l 1
 176 -13 l 1
 170 -13 l 1
 168 -16 l 1
 159 -17 l 1
 159 -13 l 1
 153 -13 l 1
 148 -18 l 1
 92 -20 l 1
 80 -18 l 1
529 310 m 1
 535 308 l 1
 539 315 l 1
 539 331 l 1
 537 334 l 1
 536 343 l 1
 542 337 l 1
 544 344 l 1
 540 347 l 1
 543 353 l 1
 539 379 l 1
 537 386 l 1
 533 393 l 1
 534 378 l 1
 530 384 l 1
 525 380 l 1
 529 375 l 1
 528 362 l 1
 524 342 l 1
 527 327 l 1
 522 327 l 1
 522 318 l 1
 524 312 l 1
 529 310 l 1
544 426 m 1
 544 419 l 1
 550 424 l 1
 548 441 l 1
 548 453 l 1
 545 461 l 1
 545 466 l 1
 541 474 l 1
 535 469 l 1
 535 451 l 1
 544 445 l 1
 547 431 l 1
 544 426 l 1
532 223 m 1
 533 236 l 1
 535 241 l 1
 535 249 l 1
 533 253 l 1
 530 276 l 1
 524 280 l 1
 524 271 l 1
 526 266 l 1
 532 223 l 1
238 340 m 1
 240 321 l 1
 247 335 l 1
 249 347 l 1
 243 353 l 1
 243 349 l 1
 238 340 l 1
494 469 m 1
 498 465 l 1
 502 465 l 1
 500 479 l 1
 494 483 l 1
 494 469 l 1
210 283 m 1
 218 283 l 1
 213 301 l 1
 210 297 l 1
 210 283 l 1
575 186 m 1
 579 181 l 1
 582 194 l 1
 578 200 l 1
 575 196 l 1
 575 186 l 1
221 98 m 1
 225 120 l 1
 225 98 l 1
 221 98 l 1
591 155 m 1
 594 167 l 1
 596 164 l 1
 596 155 l 1
 591 155 l 1
587 437 m 1
 584 450 l 1
 584 457 l 1
 587 448 l 1
 587 437 l 1
617 625 m 1
 614 631 l 1
 616 634 l 1
 620 630 l 1
 617 625 l 1
614 617 m 1
 614 621 l 1
 619 621 l 1
 619 616 l 1
 614 617 l 1
529 347 m 1
 532 356 l 1
 532 343 l 1
 529 347 l 1
402 189 m 1
 413 181 l 1
 406 189 l 1
 402 189 l 1
560 28 m 1
 565 24 l 1
 562 31 l 1
 560 28 l 1
530 317 m 1
 532 321 l 1
 532 314 l 1
 530 317 l 1
590 215 m 1
 592 212 l 1
 590 208 l 1
 590 215 l 1
554 24 m 1
 558 22 l 1
 557 26 l 1
 554 24 l 1
238 227 m 1
 238 221 l 1
 236 216 l 1
 238 227 l 1
EndSplineSet
EndChar

StartChar: O
Encoding: 79 79 40
Width: 582
Flags: W
LayerCount: 2
Fore
SplineSet
279 120 m 1
 276 125 l 1
 268 125 l 1
 267 120 l 1
 263 120 l 1
 261 125 l 1
 255 125 l 1
 248 122 l 1
 246 125 l 1
 212 128 l 1
 214 133 l 1
 213 142 l 1
 205 142 l 1
 205 132 l 1
 187 138 l 1
 187 145 l 1
 183 147 l 1
 180 153 l 1
 172 155 l 1
 165 159 l 1
 157 159 l 1
 154 163 l 1
 144 168 l 1
 139 168 l 1
 138 174 l 1
 125 181 l 1
 124 178 l 1
 125 168 l 1
 121 176 l 1
 121 183 l 1
 117 188 l 1
 108 188 l 1
 106 198 l 1
 99 205 l 1
 89 208 l 1
 82 222 l 1
 80 233 l 1
 75 235 l 1
 55 281 l 1
 50 276 l 1
 52 269 l 1
 56 271 l 1
 58 262 l 1
 57 257 l 1
 61 249 l 1
 52 258 l 1
 45 273 l 1
 45 287 l 1
 51 302 l 1
 52 312 l 1
 45 327 l 1
 45 319 l 1
 47 314 l 1
 47 306 l 1
 42 308 l 1
 38 320 l 1
 43 331 l 1
 38 345 l 1
 40 349 l 1
 38 353 l 1
 35 384 l 1
 38 387 l 1
 36 395 l 1
 41 461 l 1
 47 480 l 1
 51 484 l 1
 67 532 l 1
 78 546 l 1
 88 564 l 1
 98 573 l 1
 105 575 l 1
 122 595 l 1
 130 596 l 1
 139 603 l 1
 143 610 l 1
 146 612 l 1
 152 625 l 1
 156 625 l 1
 178 637 l 1
 195 655 l 1
 231 679 l 1
 248 688 l 1
 279 697 l 1
 303 710 l 1
 366 713 l 1
 353 710 l 1
 350 707 l 1
 347 708 l 1
 340 705 l 1
 363 704 l 1
 379 691 l 1
 390 684 l 1
 394 684 l 1
 398 688 l 1
 398 692 l 1
 387 698 l 1
 390 692 l 1
 384 692 l 1
 382 697 l 1
 377 697 l 1
 379 705 l 1
 375 710 l 1
 385 712 l 1
 385 704 l 1
 411 686 l 1
 417 691 l 1
 425 683 l 1
 430 688 l 1
 436 688 l 1
 454 672 l 1
 458 664 l 1
 466 664 l 1
 471 656 l 1
 480 649 l 1
 480 642 l 1
 488 634 l 1
 493 631 l 1
 500 631 l 1
 497 624 l 1
 497 614 l 1
 501 610 l 1
 508 610 l 1
 513 614 l 1
 513 607 l 1
 510 601 l 1
 513 603 l 1
 515 597 l 1
 517 602 l 1
 523 599 l 1
 523 594 l 1
 520 589 l 1
 524 586 l 1
 526 579 l 1
 526 570 l 1
 523 564 l 1
 523 559 l 1
 527 559 l 1
 527 552 l 1
 533 546 l 1
 539 555 l 1
 536 546 l 1
 537 533 l 1
 543 549 l 1
 548 543 l 1
 543 535 l 1
 546 517 l 1
 548 530 l 1
 552 530 l 1
 552 518 l 1
 549 514 l 1
 549 507 l 1
 551 502 l 1
 547 502 l 1
 543 495 l 1
 539 500 l 1
 539 487 l 1
 541 490 l 1
 550 486 l 1
 552 501 l 1
 552 466 l 1
 548 457 l 1
 549 448 l 1
 552 441 l 1
 552 419 l 1
 547 422 l 1
 549 415 l 1
 548 399 l 1
 552 412 l 1
 552 395 l 1
 548 385 l 1
 542 383 l 1
 547 364 l 1
 552 360 l 1
 552 338 l 1
 546 323 l 1
 545 315 l 1
 539 310 l 1
 532 301 l 1
 532 295 l 1
 521 277 l 1
 519 258 l 1
 513 257 l 1
 515 273 l 1
 510 270 l 1
 510 262 l 1
 500 251 l 1
 498 242 l 1
 493 238 l 1
 493 232 l 1
 487 232 l 1
 491 240 l 1
 494 256 l 1
 492 259 l 1
 489 254 l 1
 488 247 l 1
 478 234 l 1
 478 223 l 1
 473 219 l 1
 472 229 l 1
 469 228 l 1
 467 234 l 1
 459 225 l 1
 459 216 l 1
 469 216 l 1
 474 213 l 1
 466 202 l 1
 462 199 l 1
 458 194 l 1
 452 179 l 1
 452 183 l 1
 451 192 l 1
 454 205 l 1
 452 202 l 1
 449 207 l 1
 445 205 l 1
 441 201 l 1
 449 213 l 1
 446 228 l 1
 441 218 l 1
 435 211 l 1
 430 186 l 1
 430 173 l 1
 424 170 l 1
 424 166 l 1
 421 160 l 1
 411 151 l 1
 412 155 l 1
 419 164 l 1
 414 166 l 1
 418 169 l 1
 415 179 l 1
 418 183 l 1
 408 181 l 1
 405 174 l 1
 399 168 l 1
 401 161 l 1
 395 144 l 1
 391 144 l 1
 390 155 l 1
 386 159 l 1
 385 155 l 1
 379 150 l 1
 375 135 l 1
 375 146 l 1
 368 146 l 1
 359 137 l 1
 353 137 l 1
 344 129 l 1
 331 124 l 1
 334 126 l 1
 334 141 l 1
 330 141 l 1
 321 137 l 1
 319 125 l 1
 316 122 l 1
 312 126 l 1
 312 133 l 1
 304 133 l 1
 302 128 l 1
 296 133 l 1
 289 130 l 1
 286 118 l 1
 279 120 l 1
443 398 m 1
 445 412 l 1
 449 419 l 1
 449 435 l 1
 445 435 l 1
 439 478 l 1
 440 494 l 1
 434 522 l 1
 425 543 l 1
 408 560 l 1
 392 569 l 1
 389 562 l 1
 404 559 l 1
 408 555 l 1
 404 555 l 1
 388 559 l 1
 384 557 l 1
 372 555 l 1
 362 542 l 1
 357 540 l 1
 347 530 l 1
 329 521 l 1
 316 518 l 1
 308 509 l 1
 303 507 l 1
 279 481 l 1
 273 467 l 1
 255 453 l 1
 231 428 l 1
 218 400 l 1
 201 351 l 1
 201 289 l 1
 209 268 l 1
 209 260 l 1
 213 254 l 1
 237 232 l 1
 251 215 l 1
 259 219 l 1
 270 216 l 1
 294 216 l 1
 314 221 l 1
 316 227 l 1
 324 227 l 1
 329 229 l 1
 342 229 l 1
 355 234 l 1
 359 234 l 1
 371 240 l 1
 374 248 l 1
 382 251 l 1
 398 266 l 1
 431 322 l 1
 437 328 l 1
 437 338 l 1
 434 336 l 1
 428 328 l 1
 428 337 l 1
 432 350 l 1
 436 369 l 1
 439 372 l 1
 443 398 l 1
528 260 m 1
 528 270 l 1
 533 270 l 1
 534 279 l 1
 541 286 l 1
 538 296 l 1
 541 303 l 1
 548 310 l 1
 552 321 l 1
 552 308 l 1
 544 269 l 1
 534 257 l 1
 533 253 l 1
 527 251 l 1
 528 260 l 1
368 679 m 1
 386 679 l 1
 386 684 l 1
 381 684 l 1
 368 696 l 1
 359 691 l 1
 359 695 l 1
 356 697 l 1
 353 694 l 1
 343 690 l 1
 343 685 l 1
 365 685 l 1
 368 679 l 1
471 605 m 1
 475 601 l 1
 478 605 l 1
 478 611 l 1
 476 615 l 1
 469 618 l 1
 466 623 l 1
 471 625 l 1
 466 637 l 1
 457 644 l 1
 453 637 l 1
 459 623 l 1
 465 617 l 1
 465 612 l 1
 469 612 l 1
 471 605 l 1
441 651 m 1
 450 640 l 1
 452 643 l 1
 454 651 l 1
 439 659 l 1
 435 657 l 1
 441 651 l 1
421 640 m 1
 424 646 l 1
 421 649 l 1
 417 651 l 1
 414 655 l 1
 405 657 l 1
 405 661 l 1
 398 659 l 1
 402 655 l 1
 411 651 l 1
 415 646 l 1
 421 644 l 1
 421 640 l 1
458 612 m 1
 463 610 l 1
 456 620 l 1
 446 628 l 1
 442 623 l 1
 458 612 l 1
54 286 m 1
 60 284 l 1
 61 295 l 1
 56 302 l 1
 52 299 l 1
 54 286 l 1
436 167 m 1
 432 179 l 1
 434 188 l 1
 439 185 l 1
 439 170 l 1
 441 167 l 1
 436 167 l 1
292 228 m 1
 296 235 l 1
 307 232 l 1
 298 223 l 1
 294 222 l 1
 292 228 l 1
421 660 m 1
 423 657 l 1
 427 657 l 1
 431 664 l 1
 425 664 l 1
 424 669 l 1
 419 673 l 1
 418 664 l 1
 421 660 l 1
532 334 m 1
 539 363 l 1
 534 363 l 1
 532 360 l 1
 532 334 l 1
425 688 m 1
 415 695 l 1
 406 705 l 1
 417 703 l 1
 417 699 l 1
 425 688 l 1
397 712 m 1
 390 714 l 1
 387 717 l 1
 381 713 l 1
 378 716 l 1
 382 720 l 1
 395 714 l 1
 402 714 l 1
 397 712 l 1
432 679 m 1
 440 671 l 1
 445 672 l 1
 440 678 l 1
 432 679 l 1
296 122 m 1
 296 127 l 1
 307 122 l 1
 300 119 l 1
 296 122 l 1
506 244 m 1
 510 253 l 1
 511 247 l 1
 507 235 l 1
 506 244 l 1
517 247 m 1
 520 251 l 1
 524 260 l 1
 524 252 l 1
 519 244 l 1
 517 247 l 1
426 643 m 1
 428 636 l 1
 433 637 l 1
 431 643 l 1
 426 643 l 1
324 145 m 1
 327 142 l 1
 331 144 l 1
 331 150 l 1
 324 145 l 1
325 703 m 1
 325 699 l 1
 330 699 l 1
 330 707 l 1
 325 703 l 1
38 290 m 1
 38 295 l 1
 44 288 l 1
 40 285 l 1
 38 290 l 1
148 153 m 1
 156 153 l 1
 159 146 l 1
 148 153 l 1
409 516 m 1
 413 521 l 1
 416 517 l 1
 411 513 l 1
 409 516 l 1
333 147 m 1
 336 146 l 1
 340 146 l 1
 340 152 l 1
 333 147 l 1
357 124 m 1
 365 128 l 1
 370 137 l 1
 368 128 l 1
 357 124 l 1
30 418 m 1
 34 431 l 1
 34 424 l 1
 32 421 l 1
 30 413 l 1
 30 418 l 1
387 707 m 1
 390 710 l 1
 395 705 l 1
 387 707 l 1
530 247 m 1
 533 241 l 1
 528 241 l 1
 530 247 l 1
432 376 m 1
 434 379 l 1
 434 375 l 1
 432 366 l 1
 432 376 l 1
327 125 m 1
 327 116 l 1
 324 105 l 1
 327 125 l 1
460 174 m 1
 462 170 l 1
 459 167 l 1
 460 174 l 1
460 631 m 1
 463 634 l 1
 465 630 l 1
 460 631 l 1
441 629 m 1
 445 629 l 1
 443 633 l 1
 441 629 l 1
362 710 m 1
 366 712 l 1
 366 708 l 1
 362 710 l 1
411 681 m 1
 408 677 l 1
 411 676 l 1
 411 681 l 1
99 186 m 1
 102 188 l 1
 99 181 l 1
 99 186 l 1
473 608 m 1
 475 611 l 1
 475 605 l 1
 473 608 l 1
502 614 m 1
 506 614 l 1
 504 611 l 1
 502 614 l 1
536 371 m 1
 536 366 l 1
 537 363 l 1
 536 371 l 1
EndSplineSet
EndChar

StartChar: P
Encoding: 80 80 41
Width: 456
Flags: W
LayerCount: 2
Fore
SplineSet
202 -60 m 1
 186 -52 l 1
 172 -35 l 1
 158 -9 l 1
 156 3 l 1
 158 7 l 1
 156 11 l 1
 160 11 l 1
 157 22 l 1
 151 62 l 1
 151 72 l 1
 149 76 l 1
 146 100 l 1
 141 126 l 1
 138 131 l 1
 135 162 l 1
 130 183 l 1
 128 206 l 1
 123 236 l 1
 122 252 l 1
 124 258 l 1
 120 290 l 1
 118 343 l 1
 108 350 l 1
 103 358 l 1
 97 359 l 1
 86 369 l 1
 92 374 l 1
 92 387 l 1
 103 400 l 1
 107 408 l 1
 113 410 l 1
 117 415 l 1
 117 447 l 1
 113 464 l 1
 116 581 l 1
 113 585 l 1
 98 586 l 1
 36 596 l 1
 30 602 l 1
 30 610 l 1
 34 619 l 1
 39 625 l 1
 43 626 l 1
 44 631 l 1
 62 639 l 1
 75 641 l 1
 89 646 l 1
 97 646 l 1
 126 654 l 1
 126 674 l 1
 130 685 l 1
 136 692 l 1
 144 695 l 1
 166 695 l 1
 196 689 l 1
 253 689 l 1
 269 685 l 1
 309 685 l 1
 324 681 l 1
 377 642 l 1
 391 630 l 1
 389 625 l 1
 395 620 l 1
 399 609 l 1
 402 607 l 1
 404 600 l 1
 406 610 l 1
 411 610 l 1
 406 594 l 1
 410 587 l 1
 415 587 l 1
 415 595 l 1
 419 587 l 1
 417 577 l 1
 420 569 l 1
 419 553 l 1
 425 557 l 1
 425 551 l 1
 423 548 l 1
 423 542 l 1
 422 539 l 1
 416 539 l 1
 413 529 l 1
 417 522 l 1
 420 528 l 1
 422 525 l 1
 426 525 l 1
 423 514 l 1
 419 513 l 1
 411 500 l 1
 409 485 l 1
 402 474 l 1
 401 481 l 1
 396 483 l 1
 395 469 l 1
 398 467 l 1
 401 461 l 1
 397 459 l 1
 389 461 l 1
 386 459 l 1
 384 454 l 1
 376 441 l 1
 373 439 l 1
 371 432 l 1
 366 425 l 1
 363 416 l 1
 355 409 l 1
 338 397 l 1
 343 395 l 1
 334 395 l 1
 330 389 l 1
 322 387 l 1
 315 379 l 1
 306 375 l 1
 308 380 l 1
 313 382 l 1
 309 382 l 1
 309 387 l 1
 306 388 l 1
 289 376 l 1
 284 364 l 1
 284 370 l 1
 281 373 l 1
 274 366 l 1
 274 359 l 1
 271 356 l 1
 277 353 l 1
 277 346 l 1
 270 340 l 1
 258 336 l 1
 256 343 l 1
 254 359 l 1
 258 364 l 1
 262 365 l 1
 262 371 l 1
 253 365 l 1
 249 355 l 1
 240 350 l 1
 240 313 l 1
 242 306 l 1
 240 288 l 1
 242 279 l 1
 240 269 l 1
 243 256 l 1
 243 231 l 1
 246 223 l 1
 248 203 l 1
 253 186 l 1
 258 164 l 1
 262 172 l 1
 267 166 l 1
 267 131 l 1
 274 115 l 1
 279 115 l 1
 286 108 l 1
 288 92 l 1
 295 72 l 1
 302 65 l 1
 306 55 l 1
 313 54 l 1
 314 42 l 1
 319 27 l 1
 315 6 l 1
 314 -9 l 1
 306 -14 l 1
 306 -18 l 1
 299 -23 l 1
 298 -29 l 1
 284 -32 l 1
 266 -43 l 1
 223 -60 l 1
 202 -60 l 1
232 446 m 1
 235 444 l 1
 245 454 l 1
 268 473 l 1
 279 509 l 1
 284 558 l 1
 281 584 l 1
 276 593 l 1
 270 593 l 1
 241 589 l 1
 225 584 l 1
 225 549 l 1
 230 533 l 1
 230 480 l 1
 232 446 l 1
376 279 m 1
 373 285 l 1
 373 293 l 1
 387 299 l 1
 392 293 l 1
 392 284 l 1
 386 277 l 1
 380 277 l 1
 376 279 l 1
360 662 m 1
 358 667 l 1
 363 670 l 1
 368 668 l 1
 368 661 l 1
 360 662 l 1
380 374 m 1
 382 380 l 1
 388 380 l 1
 388 372 l 1
 383 372 l 1
 380 374 l 1
377 354 m 1
 381 354 l 1
 385 350 l 1
 381 347 l 1
 377 347 l 1
 377 354 l 1
374 313 m 1
 374 318 l 1
 380 318 l 1
 382 312 l 1
 377 315 l 1
 374 313 l 1
375 383 m 1
 380 385 l 1
 381 382 l 1
 379 377 l 1
 375 383 l 1
EndSplineSet
EndChar

StartChar: Q
Encoding: 81 81 42
Width: 547
Flags: W
LayerCount: 2
Fore
SplineSet
463 45 m 1
 458 47 l 1
 434 52 l 1
 419 59 l 1
 414 59 l 1
 406 66 l 1
 391 72 l 1
 383 73 l 1
 380 77 l 1
 376 77 l 1
 370 87 l 1
 363 87 l 1
 359 90 l 1
 360 95 l 1
 355 95 l 1
 334 114 l 1
 333 106 l 1
 328 107 l 1
 325 103 l 1
 314 103 l 1
 314 98 l 1
 304 90 l 1
 308 101 l 1
 303 101 l 1
 298 92 l 1
 291 93 l 1
 284 87 l 1
 270 80 l 1
 271 87 l 1
 266 95 l 1
 263 88 l 1
 263 78 l 1
 258 78 l 1
 253 80 l 1
 247 77 l 1
 248 96 l 1
 244 93 l 1
 237 95 l 1
 223 93 l 1
 222 90 l 1
 203 90 l 1
 200 84 l 1
 197 90 l 1
 191 90 l 1
 187 88 l 1
 184 91 l 1
 176 94 l 1
 178 84 l 1
 183 84 l 1
 198 80 l 1
 201 82 l 1
 211 83 l 1
 229 88 l 1
 223 81 l 1
 219 83 l 1
 214 75 l 1
 209 75 l 1
 209 79 l 1
 193 75 l 1
 181 75 l 1
 176 80 l 1
 168 82 l 1
 171 88 l 1
 171 93 l 1
 166 98 l 1
 151 100 l 1
 155 104 l 1
 148 104 l 1
 145 110 l 1
 142 106 l 1
 142 113 l 1
 138 113 l 1
 135 111 l 1
 137 114 l 1
 132 114 l 1
 132 110 l 1
 126 114 l 1
 126 121 l 1
 123 124 l 1
 123 129 l 1
 126 127 l 1
 129 131 l 1
 129 139 l 1
 119 152 l 1
 112 158 l 1
 109 155 l 1
 107 160 l 1
 84 182 l 1
 75 199 l 1
 71 201 l 1
 68 200 l 1
 68 206 l 1
 63 209 l 1
 61 217 l 1
 56 258 l 1
 50 269 l 1
 50 287 l 1
 45 299 l 1
 40 302 l 1
 38 323 l 1
 35 333 l 1
 32 336 l 1
 33 346 l 1
 30 355 l 1
 36 365 l 1
 36 389 l 1
 35 401 l 1
 38 405 l 1
 38 417 l 1
 45 430 l 1
 42 440 l 1
 47 447 l 1
 51 455 l 1
 53 474 l 1
 61 500 l 1
 82 543 l 1
 87 559 l 1
 104 594 l 1
 113 606 l 1
 103 613 l 1
 100 618 l 1
 104 623 l 1
 107 632 l 1
 111 629 l 1
 125 644 l 1
 135 646 l 1
 160 647 l 1
 170 654 l 1
 177 652 l 1
 224 652 l 1
 235 649 l 1
 287 642 l 1
 315 631 l 1
 330 623 l 1
 335 613 l 1
 340 617 l 1
 345 617 l 1
 343 610 l 1
 348 600 l 1
 360 600 l 1
 360 593 l 1
 358 587 l 1
 363 590 l 1
 363 601 l 1
 368 601 l 1
 371 597 l 1
 371 589 l 1
 376 580 l 1
 375 559 l 1
 371 554 l 1
 371 547 l 1
 373 543 l 1
 376 530 l 1
 385 542 l 1
 388 539 l 1
 380 522 l 1
 380 513 l 1
 384 522 l 1
 390 528 l 1
 395 547 l 1
 393 550 l 1
 393 566 l 1
 397 565 l 1
 401 565 l 1
 397 561 l 1
 397 551 l 1
 401 554 l 1
 399 544 l 1
 399 528 l 1
 400 515 l 1
 394 516 l 1
 393 495 l 1
 388 495 l 1
 385 498 l 1
 385 490 l 1
 393 487 l 1
 393 474 l 1
 391 469 l 1
 391 441 l 1
 394 456 l 1
 400 461 l 1
 401 474 l 1
 406 477 l 1
 409 484 l 1
 414 503 l 1
 417 490 l 1
 408 466 l 1
 409 452 l 1
 415 456 l 1
 413 461 l 1
 415 467 l 1
 419 469 l 1
 421 479 l 1
 425 484 l 1
 428 495 l 1
 428 480 l 1
 422 465 l 1
 425 461 l 1
 422 457 l 1
 422 451 l 1
 416 428 l 1
 412 426 l 1
 409 419 l 1
 406 422 l 1
 410 433 l 1
 404 435 l 1
 397 421 l 1
 391 421 l 1
 391 413 l 1
 393 416 l 1
 394 405 l 1
 397 403 l 1
 392 402 l 1
 391 398 l 1
 392 384 l 1
 396 387 l 1
 399 379 l 1
 397 375 l 1
 397 364 l 1
 394 361 l 1
 397 358 l 1
 400 362 l 1
 401 377 l 1
 406 383 l 1
 409 393 l 1
 409 402 l 1
 413 409 l 1
 411 412 l 1
 421 439 l 1
 427 446 l 1
 427 440 l 1
 422 434 l 1
 422 429 l 1
 417 420 l 1
 420 416 l 1
 417 413 l 1
 417 406 l 1
 422 403 l 1
 414 385 l 1
 414 372 l 1
 407 350 l 1
 403 343 l 1
 412 343 l 1
 416 374 l 1
 422 380 l 1
 424 384 l 1
 432 389 l 1
 429 384 l 1
 427 377 l 1
 420 370 l 1
 417 360 l 1
 420 355 l 1
 420 321 l 1
 422 318 l 1
 420 313 l 1
 420 306 l 1
 415 298 l 1
 415 290 l 1
 408 281 l 1
 405 252 l 1
 401 256 l 1
 397 247 l 1
 397 233 l 1
 400 217 l 1
 397 209 l 1
 394 195 l 1
 407 182 l 1
 428 157 l 1
 440 149 l 1
 448 141 l 1
 454 131 l 1
 470 126 l 1
 478 121 l 1
 485 119 l 1
 489 115 l 1
 505 114 l 1
 513 106 l 1
 513 93 l 1
 517 85 l 1
 506 69 l 1
 496 60 l 1
 467 39 l 1
 463 45 l 1
201 224 m 1
 208 220 l 1
 199 237 l 1
 202 241 l 1
 205 265 l 1
 207 269 l 1
 207 280 l 1
 215 301 l 1
 224 303 l 1
 240 299 l 1
 249 303 l 1
 256 298 l 1
 284 294 l 1
 297 298 l 1
 312 299 l 1
 330 298 l 1
 330 305 l 1
 334 305 l 1
 336 302 l 1
 334 298 l 1
 345 298 l 1
 348 311 l 1
 356 333 l 1
 356 366 l 1
 361 384 l 1
 361 393 l 1
 363 399 l 1
 360 402 l 1
 355 395 l 1
 349 424 l 1
 342 430 l 1
 334 428 l 1
 330 432 l 1
 330 439 l 1
 326 444 l 1
 325 441 l 1
 328 439 l 1
 324 430 l 1
 322 437 l 1
 322 467 l 1
 326 482 l 1
 319 484 l 1
 316 483 l 1
 310 507 l 1
 307 513 l 1
 302 534 l 1
 291 557 l 1
 277 571 l 1
 249 535 l 1
 230 494 l 1
 228 483 l 1
 219 469 l 1
 208 429 l 1
 201 410 l 1
 193 382 l 1
 192 365 l 1
 189 359 l 1
 189 330 l 1
 191 303 l 1
 193 298 l 1
 189 293 l 1
 192 282 l 1
 192 288 l 1
 195 274 l 1
 192 259 l 1
 193 251 l 1
 196 247 l 1
 194 243 l 1
 197 232 l 1
 201 224 l 1
310 308 m 1
 306 313 l 1
 301 316 l 1
 304 321 l 1
 294 336 l 1
 286 344 l 1
 278 349 l 1
 265 349 l 1
 257 343 l 1
 250 343 l 1
 243 347 l 1
 243 358 l 1
 253 364 l 1
 259 361 l 1
 264 363 l 1
 278 360 l 1
 286 354 l 1
 290 346 l 1
 310 331 l 1
 314 334 l 1
 322 328 l 1
 325 321 l 1
 325 313 l 1
 319 308 l 1
 310 308 l 1
219 180 m 1
 236 183 l 1
 227 193 l 1
 221 196 l 1
 202 214 l 1
 197 220 l 1
 197 209 l 1
 202 202 l 1
 204 195 l 1
 219 180 l 1
243 310 m 1
 243 321 l 1
 248 326 l 1
 255 326 l 1
 260 321 l 1
 260 313 l 1
 257 307 l 1
 248 305 l 1
 243 310 l 1
405 216 m 1
 407 226 l 1
 408 242 l 1
 406 248 l 1
 411 254 l 1
 415 255 l 1
 416 270 l 1
 419 255 l 1
 417 241 l 1
 412 236 l 1
 410 219 l 1
 405 216 l 1
337 467 m 1
 341 463 l 1
 343 469 l 1
 343 482 l 1
 340 485 l 1
 336 498 l 1
 327 500 l 1
 334 488 l 1
 334 474 l 1
 337 467 l 1
115 106 m 1
 110 115 l 1
 110 136 l 1
 114 134 l 1
 115 115 l 1
 119 111 l 1
 120 106 l 1
 123 104 l 1
 120 100 l 1
 115 106 l 1
420 282 m 1
 426 293 l 1
 430 303 l 1
 430 293 l 1
 424 283 l 1
 424 277 l 1
 420 276 l 1
 420 282 l 1
397 495 m 1
 397 505 l 1
 403 507 l 1
 404 500 l 1
 401 498 l 1
 399 490 l 1
 394 490 l 1
 397 495 l 1
423 389 m 1
 427 401 l 1
 430 406 l 1
 435 408 l 1
 434 401 l 1
 423 389 l 1
422 354 m 1
 422 367 l 1
 427 369 l 1
 424 349 l 1
 422 354 l 1
430 220 m 1
 431 225 l 1
 434 228 l 1
 437 224 l 1
 436 218 l 1
 431 217 l 1
 430 220 l 1
216 106 m 1
 222 101 l 1
 227 106 l 1
 222 106 l 1
 222 110 l 1
 216 110 l 1
 216 106 l 1
425 329 m 1
 427 336 l 1
 431 344 l 1
 431 336 l 1
 428 330 l 1
 427 321 l 1
 425 329 l 1
435 321 m 1
 435 326 l 1
 438 328 l 1
 442 327 l 1
 442 321 l 1
 435 321 l 1
187 128 m 1
 194 123 l 1
 199 123 l 1
 200 129 l 1
 190 127 l 1
 187 128 l 1
324 377 m 1
 324 382 l 1
 329 384 l 1
 332 377 l 1
 324 377 l 1
90 158 m 1
 87 160 l 1
 89 165 l 1
 95 152 l 1
 91 151 l 1
 90 158 l 1
445 19 m 1
 451 19 l 1
 451 13 l 1
 445 13 l 1
 445 19 l 1
227 76 m 1
 227 80 l 1
 231 80 l 1
 228 64 l 1
 227 76 l 1
408 530 m 1
 405 536 l 1
 408 542 l 1
 409 533 l 1
 414 528 l 1
 408 530 l 1
422 425 m 1
 431 437 l 1
 431 433 l 1
 427 429 l 1
 425 423 l 1
 422 425 l 1
319 342 m 1
 319 347 l 1
 325 347 l 1
 325 342 l 1
 319 342 l 1
401 406 m 1
 407 417 l 1
 405 408 l 1
 407 403 l 1
 401 406 l 1
84 137 m 1
 87 143 l 1
 90 131 l 1
 84 137 l 1
304 392 m 1
 305 396 l 1
 311 393 l 1
 310 389 l 1
 304 392 l 1
215 129 m 1
 200 129 l 1
 204 126 l 1
 215 129 l 1
327 429 m 1
 331 420 l 1
 327 418 l 1
 327 429 l 1
335 362 m 1
 335 366 l 1
 340 366 l 1
 340 362 l 1
 335 362 l 1
99 142 m 1
 104 144 l 1
 104 136 l 1
 99 142 l 1
243 113 m 1
 245 108 l 1
 253 106 l 1
 243 113 l 1
430 459 m 1
 434 459 l 1
 432 451 l 1
 430 459 l 1
134 90 m 1
 137 93 l 1
 142 88 l 1
 134 90 l 1
314 119 m 1
 314 113 l 1
 319 119 l 1
 314 119 l 1
345 331 m 1
 345 336 l 1
 350 333 l 1
 345 331 l 1
401 389 m 1
 406 392 l 1
 401 385 l 1
 401 389 l 1
456 267 m 1
 458 264 l 1
 456 257 l 1
 456 267 l 1
320 355 m 1
 323 358 l 1
 326 355 l 1
 320 355 l 1
333 310 m 1
 334 315 l 1
 337 313 l 1
 333 310 l 1
267 472 m 1
 271 472 l 1
 269 469 l 1
 267 472 l 1
332 334 m 1
 332 338 l 1
 333 341 l 1
 332 334 l 1
EndSplineSet
EndChar

StartChar: R
Encoding: 82 82 43
Width: 633
Flags: W
LayerCount: 2
Fore
SplineSet
217 -44 m 1
 213 -46 l 1
 209 -46 l 1
 212 -42 l 1
 208 -37 l 1
 210 -33 l 1
 201 -34 l 1
 201 -26 l 1
 199 -23 l 1
 196 -26 l 1
 196 -22 l 1
 193 -18 l 1
 186 14 l 1
 187 19 l 1
 183 30 l 1
 183 45 l 1
 185 50 l 1
 183 60 l 1
 183 80 l 1
 180 96 l 1
 180 110 l 1
 176 118 l 1
 170 138 l 1
 167 143 l 1
 154 211 l 1
 145 277 l 1
 143 282 l 1
 131 417 l 1
 124 441 l 1
 116 495 l 1
 116 575 l 1
 112 580 l 1
 104 580 l 1
 94 577 l 1
 56 586 l 1
 46 592 l 1
 34 595 l 1
 30 600 l 1
 30 609 l 1
 40 632 l 1
 61 656 l 1
 89 676 l 1
 112 687 l 1
 166 702 l 1
 203 708 l 1
 252 708 l 1
 304 698 l 1
 311 698 l 1
 323 694 l 1
 342 691 l 1
 372 681 l 1
 398 670 l 1
 416 659 l 1
 437 640 l 1
 445 631 l 1
 449 629 l 1
 454 618 l 1
 461 618 l 1
 466 610 l 1
 472 607 l 1
 475 600 l 1
 475 594 l 1
 478 592 l 1
 478 587 l 1
 480 581 l 1
 483 580 l 1
 483 557 l 1
 485 550 l 1
 484 539 l 1
 480 533 l 1
 471 525 l 1
 464 522 l 1
 457 510 l 1
 454 514 l 1
 453 509 l 1
 447 506 l 1
 446 503 l 1
 431 487 l 1
 419 487 l 1
 418 482 l 1
 407 478 l 1
 404 470 l 1
 398 466 l 1
 396 461 l 1
 390 459 l 1
 390 453 l 1
 398 442 l 1
 398 429 l 1
 394 426 l 1
 385 426 l 1
 379 432 l 1
 375 444 l 1
 372 441 l 1
 368 441 l 1
 356 432 l 1
 343 426 l 1
 336 426 l 1
 333 420 l 1
 340 413 l 1
 351 406 l 1
 364 395 l 1
 372 392 l 1
 386 380 l 1
 394 358 l 1
 413 323 l 1
 426 305 l 1
 441 279 l 1
 448 251 l 1
 442 230 l 1
 431 224 l 1
 426 224 l 1
 426 217 l 1
 434 195 l 1
 440 189 l 1
 444 172 l 1
 442 165 l 1
 450 135 l 1
 454 127 l 1
 461 121 l 1
 465 108 l 1
 482 89 l 1
 501 77 l 1
 512 74 l 1
 515 80 l 1
 515 85 l 1
 518 92 l 1
 518 99 l 1
 523 106 l 1
 543 103 l 1
 555 103 l 1
 571 108 l 1
 592 106 l 1
 598 99 l 1
 603 82 l 1
 596 54 l 1
 591 48 l 1
 580 26 l 1
 566 18 l 1
 557 16 l 1
 543 10 l 1
 519 4 l 1
 509 -1 l 1
 498 1 l 1
 494 4 l 1
 490 2 l 1
 487 5 l 1
 473 10 l 1
 465 18 l 1
 460 19 l 1
 457 24 l 1
 452 25 l 1
 436 39 l 1
 431 39 l 1
 424 41 l 1
 410 56 l 1
 403 60 l 1
 370 92 l 1
 360 99 l 1
 340 123 l 1
 337 129 l 1
 320 150 l 1
 304 182 l 1
 280 221 l 1
 269 250 l 1
 258 256 l 1
 257 248 l 1
 252 247 l 1
 249 239 l 1
 249 223 l 1
 253 223 l 1
 254 217 l 1
 255 229 l 1
 257 232 l 1
 260 223 l 1
 255 213 l 1
 258 205 l 1
 261 208 l 1
 260 195 l 1
 257 190 l 1
 257 186 l 1
 258 180 l 1
 254 180 l 1
 254 197 l 1
 248 193 l 1
 251 178 l 1
 255 178 l 1
 252 167 l 1
 249 165 l 1
 249 154 l 1
 255 142 l 1
 260 151 l 1
 265 143 l 1
 260 142 l 1
 253 132 l 1
 257 129 l 1
 255 114 l 1
 257 103 l 1
 262 101 l 1
 260 96 l 1
 262 84 l 1
 258 83 l 1
 261 77 l 1
 258 74 l 1
 260 55 l 1
 258 49 l 1
 268 55 l 1
 268 50 l 1
 271 47 l 1
 268 31 l 1
 272 28 l 1
 269 19 l 1
 265 21 l 1
 257 14 l 1
 254 17 l 1
 254 13 l 1
 258 0 l 1
 261 3 l 1
 261 -4 l 1
 263 -9 l 1
 261 -12 l 1
 260 -31 l 1
 257 -23 l 1
 257 -18 l 1
 253 -14 l 1
 258 -12 l 1
 254 -5 l 1
 250 6 l 1
 247 3 l 1
 250 -8 l 1
 243 -12 l 1
 250 -17 l 1
 250 -23 l 1
 254 -25 l 1
 254 -30 l 1
 249 -30 l 1
 246 -27 l 1
 242 -15 l 1
 239 -17 l 1
 237 -12 l 1
 234 -28 l 1
 234 -34 l 1
 229 -38 l 1
 229 -29 l 1
 223 -27 l 1
 228 -17 l 1
 231 -23 l 1
 231 -14 l 1
 225 -12 l 1
 224 -19 l 1
 218 -19 l 1
 218 -40 l 1
 224 -46 l 1
 221 -52 l 1
 217 -44 l 1
280 480 m 1
 294 484 l 1
 298 488 l 1
 325 499 l 1
 321 503 l 1
 309 503 l 1
 303 510 l 1
 303 524 l 1
 312 530 l 1
 314 536 l 1
 321 536 l 1
 324 534 l 1
 324 525 l 1
 330 513 l 1
 340 510 l 1
 342 505 l 1
 356 517 l 1
 354 520 l 1
 354 525 l 1
 360 525 l 1
 368 532 l 1
 373 545 l 1
 371 565 l 1
 365 580 l 1
 357 589 l 1
 344 595 l 1
 291 609 l 1
 270 605 l 1
 264 599 l 1
 272 582 l 1
 280 555 l 1
 280 480 l 1
267 -15 m 1
 271 -11 l 1
 269 -4 l 1
 269 10 l 1
 275 18 l 1
 278 14 l 1
 278 6 l 1
 283 6 l 1
 281 -4 l 1
 276 -5 l 1
 275 -18 l 1
 270 -19 l 1
 268 -22 l 1
 267 -15 l 1
328 522 m 1
 328 530 l 1
 334 533 l 1
 342 529 l 1
 339 522 l 1
 328 522 l 1
464 299 m 1
 464 306 l 1
 470 306 l 1
 473 303 l 1
 473 295 l 1
 468 292 l 1
 464 299 l 1
564 127 m 1
 569 127 l 1
 569 121 l 1
 564 113 l 1
 564 127 l 1
240 -42 m 1
 245 -30 l 1
 245 -43 l 1
 240 -42 l 1
253 29 m 1
 253 24 l 1
 257 24 l 1
 255 32 l 1
 253 29 l 1
278 33 m 1
 282 32 l 1
 278 24 l 1
 278 33 l 1
239 252 m 1
 244 249 l 1
 242 254 l 1
 239 256 l 1
 239 252 l 1
347 538 m 1
 351 535 l 1
 347 533 l 1
 347 538 l 1
262 10 m 1
 264 13 l 1
 262 6 l 1
 262 10 l 1
EndSplineSet
EndChar

StartChar: S
Encoding: 83 83 44
Width: 496
Flags: W
LayerCount: 2
Fore
SplineSet
329 47 m 1
 327 51 l 1
 322 51 l 1
 329 55 l 1
 329 59 l 1
 324 62 l 1
 321 55 l 1
 314 50 l 1
 308 52 l 1
 308 56 l 1
 314 56 l 1
 322 65 l 1
 319 69 l 1
 310 67 l 1
 303 62 l 1
 291 60 l 1
 287 56 l 1
 284 47 l 1
 281 50 l 1
 283 57 l 1
 273 57 l 1
 270 55 l 1
 269 48 l 1
 266 55 l 1
 264 52 l 1
 255 48 l 1
 250 50 l 1
 248 55 l 1
 242 55 l 1
 233 49 l 1
 233 55 l 1
 218 50 l 1
 122 63 l 1
 111 67 l 1
 86 69 l 1
 73 78 l 1
 62 93 l 1
 50 100 l 1
 41 110 l 1
 34 122 l 1
 30 144 l 1
 30 173 l 1
 33 203 l 1
 39 226 l 1
 44 239 l 1
 52 243 l 1
 57 262 l 1
 62 262 l 1
 67 269 l 1
 72 269 l 1
 88 259 l 1
 93 254 l 1
 118 242 l 1
 134 239 l 1
 152 237 l 1
 178 225 l 1
 191 217 l 1
 202 207 l 1
 204 182 l 1
 193 162 l 1
 193 148 l 1
 196 146 l 1
 226 143 l 1
 237 144 l 1
 256 151 l 1
 288 152 l 1
 293 155 l 1
 306 169 l 1
 310 170 l 1
 313 175 l 1
 327 180 l 1
 339 193 l 1
 344 208 l 1
 344 220 l 1
 347 236 l 1
 349 239 l 1
 346 244 l 1
 349 287 l 1
 344 316 l 1
 329 343 l 1
 309 360 l 1
 285 362 l 1
 277 366 l 1
 264 367 l 1
 259 370 l 1
 244 374 l 1
 234 374 l 1
 229 378 l 1
 216 380 l 1
 213 378 l 1
 213 372 l 1
 206 372 l 1
 206 380 l 1
 203 385 l 1
 193 387 l 1
 186 387 l 1
 182 390 l 1
 159 397 l 1
 122 412 l 1
 112 418 l 1
 93 434 l 1
 73 460 l 1
 63 476 l 1
 62 483 l 1
 58 490 l 1
 53 503 l 1
 46 536 l 1
 41 538 l 1
 39 542 l 1
 39 553 l 1
 51 563 l 1
 70 612 l 1
 78 626 l 1
 85 628 l 1
 93 644 l 1
 118 668 l 1
 130 673 l 1
 143 682 l 1
 144 685 l 1
 167 697 l 1
 180 702 l 1
 188 707 l 1
 211 715 l 1
 234 718 l 1
 244 722 l 1
 248 720 l 1
 260 720 l 1
 264 724 l 1
 273 722 l 1
 277 727 l 1
 290 722 l 1
 298 717 l 1
 316 717 l 1
 351 711 l 1
 375 702 l 1
 396 691 l 1
 440 661 l 1
 456 644 l 1
 462 633 l 1
 466 610 l 1
 464 587 l 1
 450 576 l 1
 446 567 l 1
 441 565 l 1
 429 551 l 1
 421 548 l 1
 411 551 l 1
 400 536 l 1
 385 536 l 1
 369 553 l 1
 369 565 l 1
 374 572 l 1
 377 582 l 1
 382 613 l 1
 369 607 l 1
 359 596 l 1
 347 594 l 1
 340 589 l 1
 324 586 l 1
 313 580 l 1
 303 580 l 1
 262 558 l 1
 253 551 l 1
 248 550 l 1
 242 546 l 1
 225 530 l 1
 214 509 l 1
 211 498 l 1
 217 493 l 1
 258 477 l 1
 344 454 l 1
 365 444 l 1
 392 423 l 1
 395 417 l 1
 396 421 l 1
 409 408 l 1
 411 402 l 1
 417 400 l 1
 421 389 l 1
 428 382 l 1
 428 378 l 1
 435 371 l 1
 439 354 l 1
 442 350 l 1
 439 344 l 1
 442 341 l 1
 444 344 l 1
 447 342 l 1
 448 306 l 1
 454 307 l 1
 454 298 l 1
 445 291 l 1
 445 285 l 1
 449 285 l 1
 451 291 l 1
 457 293 l 1
 455 270 l 1
 446 259 l 1
 444 251 l 1
 452 248 l 1
 447 246 l 1
 445 238 l 1
 454 239 l 1
 455 236 l 1
 456 232 l 1
 448 224 l 1
 448 217 l 1
 451 214 l 1
 447 209 l 1
 440 209 l 1
 434 203 l 1
 434 195 l 1
 435 190 l 1
 440 197 l 1
 440 187 l 1
 434 183 l 1
 440 182 l 1
 440 177 l 1
 434 178 l 1
 429 169 l 1
 424 165 l 1
 417 165 l 1
 417 159 l 1
 421 159 l 1
 428 165 l 1
 428 158 l 1
 433 158 l 1
 440 164 l 1
 441 176 l 1
 444 180 l 1
 444 186 l 1
 451 195 l 1
 454 189 l 1
 449 177 l 1
 447 157 l 1
 449 162 l 1
 449 154 l 1
 441 142 l 1
 436 130 l 1
 431 128 l 1
 426 118 l 1
 431 118 l 1
 437 127 l 1
 442 127 l 1
 447 136 l 1
 448 150 l 1
 451 147 l 1
 453 136 l 1
 448 119 l 1
 444 110 l 1
 438 106 l 1
 433 97 l 1
 435 92 l 1
 426 88 l 1
 418 80 l 1
 411 80 l 1
 406 84 l 1
 387 77 l 1
 381 69 l 1
 373 69 l 1
 371 75 l 1
 364 75 l 1
 359 68 l 1
 344 68 l 1
 337 52 l 1
 341 55 l 1
 341 49 l 1
 336 44 l 1
 329 47 l 1
274 193 m 1
 268 198 l 1
 268 217 l 1
 259 225 l 1
 257 247 l 1
 250 254 l 1
 244 255 l 1
 240 265 l 1
 226 269 l 1
 222 276 l 1
 222 290 l 1
 225 300 l 1
 218 300 l 1
 218 308 l 1
 221 311 l 1
 225 311 l 1
 228 306 l 1
 234 305 l 1
 246 298 l 1
 250 291 l 1
 250 274 l 1
 255 268 l 1
 256 259 l 1
 262 252 l 1
 272 251 l 1
 283 242 l 1
 296 236 l 1
 304 228 l 1
 304 206 l 1
 299 197 l 1
 292 190 l 1
 283 190 l 1
 274 193 l 1
166 269 m 1
 166 284 l 1
 176 292 l 1
 173 300 l 1
 173 313 l 1
 167 326 l 1
 169 334 l 1
 183 346 l 1
 189 347 l 1
 192 350 l 1
 205 352 l 1
 214 342 l 1
 214 328 l 1
 204 321 l 1
 194 321 l 1
 186 324 l 1
 181 319 l 1
 182 315 l 1
 187 313 l 1
 189 308 l 1
 189 301 l 1
 181 291 l 1
 186 278 l 1
 183 269 l 1
 171 264 l 1
 166 269 l 1
320 243 m 1
 314 249 l 1
 314 259 l 1
 319 264 l 1
 324 264 l 1
 329 259 l 1
 329 242 l 1
 320 243 l 1
220 319 m 1
 218 326 l 1
 229 331 l 1
 236 324 l 1
 236 319 l 1
 232 313 l 1
 220 319 l 1
166 248 m 1
 166 256 l 1
 170 260 l 1
 176 260 l 1
 179 254 l 1
 176 245 l 1
 168 245 l 1
 166 248 l 1
213 352 m 1
 216 362 l 1
 211 364 l 1
 217 373 l 1
 220 368 l 1
 218 362 l 1
 224 361 l 1
 226 350 l 1
 217 355 l 1
 213 352 l 1
147 350 m 1
 147 355 l 1
 150 358 l 1
 154 358 l 1
 154 350 l 1
 147 350 l 1
288 299 m 1
 288 305 l 1
 294 305 l 1
 288 299 l 1
30 584 m 1
 33 582 l 1
 30 574 l 1
 30 584 l 1
363 56 m 1
 365 62 l 1
 366 54 l 1
 363 56 l 1
188 293 m 1
 190 290 l 1
 188 282 l 1
 188 293 l 1
EndSplineSet
EndChar

StartChar: T
Encoding: 84 84 45
Width: 595
Flags: W
LayerCount: 2
Fore
SplineSet
119 641 m 1
 118 648 l 1
 105 646 l 1
 95 650 l 1
 82 661 l 1
 69 664 l 1
 61 673 l 1
 58 711 l 1
 65 723 l 1
 77 734 l 1
 94 738 l 1
 115 747 l 1
 135 753 l 1
 166 756 l 1
 218 754 l 1
 257 748 l 1
 297 748 l 1
 334 751 l 1
 340 757 l 1
 349 758 l 1
 366 748 l 1
 384 743 l 1
 388 749 l 1
 383 752 l 1
 401 755 l 1
 405 751 l 1
 418 754 l 1
 437 746 l 1
 441 741 l 1
 454 740 l 1
 453 750 l 1
 463 751 l 1
 467 747 l 1
 478 750 l 1
 472 747 l 1
 480 742 l 1
 487 746 l 1
 507 733 l 1
 517 729 l 1
 525 724 l 1
 537 714 l 1
 552 698 l 1
 562 670 l 1
 565 668 l 1
 563 665 l 1
 551 646 l 1
 550 641 l 1
 546 633 l 1
 528 630 l 1
 515 638 l 1
 507 637 l 1
 503 658 l 1
 482 658 l 1
 444 661 l 1
 409 658 l 1
 412 583 l 1
 417 586 l 1
 428 587 l 1
 435 581 l 1
 435 573 l 1
 430 566 l 1
 418 565 l 1
 412 569 l 1
 412 531 l 1
 420 532 l 1
 427 525 l 1
 428 517 l 1
 416 492 l 1
 436 475 l 1
 445 458 l 1
 447 433 l 1
 440 424 l 1
 430 418 l 1
 408 421 l 1
 395 427 l 1
 391 412 l 1
 391 396 l 1
 393 359 l 1
 389 339 l 1
 391 323 l 1
 387 306 l 1
 383 304 l 1
 371 281 l 1
 375 267 l 1
 369 271 l 1
 367 264 l 1
 365 247 l 1
 366 238 l 1
 363 224 l 1
 364 211 l 1
 366 204 l 1
 367 173 l 1
 366 154 l 1
 361 147 l 1
 361 124 l 1
 358 116 l 1
 362 67 l 1
 352 41 l 1
 340 26 l 1
 333 14 l 1
 328 8 l 1
 314 7 l 1
 308 0 l 1
 308 -5 l 1
 296 -7 l 1
 292 -2 l 1
 281 -15 l 1
 276 -8 l 1
 270 -9 l 1
 262 -5 l 1
 263 0 l 1
 260 11 l 1
 254 10 l 1
 257 4 l 1
 255 -1 l 1
 248 8 l 1
 247 18 l 1
 253 10 l 1
 252 18 l 1
 243 29 l 1
 238 29 l 1
 236 26 l 1
 235 36 l 1
 228 54 l 1
 225 97 l 1
 226 107 l 1
 226 137 l 1
 219 214 l 1
 221 231 l 1
 219 299 l 1
 222 323 l 1
 221 334 l 1
 224 341 l 1
 222 358 l 1
 224 362 l 1
 222 397 l 1
 224 401 l 1
 221 432 l 1
 221 500 l 1
 228 632 l 1
 234 677 l 1
 229 681 l 1
 212 685 l 1
 187 688 l 1
 152 685 l 1
 138 671 l 1
 131 655 l 1
 135 653 l 1
 136 640 l 1
 124 639 l 1
 119 641 l 1
361 296 m 1
 364 288 l 1
 371 289 l 1
 372 295 l 1
 380 301 l 1
 380 323 l 1
 383 327 l 1
 383 352 l 1
 389 359 l 1
 381 368 l 1
 374 367 l 1
 372 370 l 1
 365 363 l 1
 364 350 l 1
 363 347 l 1
 362 339 l 1
 360 334 l 1
 361 296 l 1
128 536 m 1
 124 543 l 1
 123 551 l 1
 126 557 l 1
 134 563 l 1
 145 558 l 1
 149 550 l 1
 150 538 l 1
 145 532 l 1
 138 531 l 1
 128 536 l 1
181 497 m 1
 175 506 l 1
 174 513 l 1
 179 519 l 1
 186 519 l 1
 196 511 l 1
 197 499 l 1
 194 496 l 1
 181 497 l 1
31 654 m 1
 30 664 l 1
 37 665 l 1
 41 662 l 1
 39 617 l 1
 31 654 l 1
371 228 m 1
 374 238 l 1
 382 250 l 1
 385 267 l 1
 387 250 l 1
 382 245 l 1
 376 227 l 1
 371 228 l 1
125 584 m 1
 125 590 l 1
 130 596 l 1
 137 593 l 1
 138 582 l 1
 129 581 l 1
 125 584 l 1
76 617 m 1
 76 623 l 1
 80 628 l 1
 88 627 l 1
 89 615 l 1
 80 614 l 1
 76 617 l 1
383 176 m 1
 384 181 l 1
 384 191 l 1
 386 197 l 1
 388 180 l 1
 383 176 l 1
372 332 m 1
 374 338 l 1
 375 351 l 1
 377 334 l 1
 372 327 l 1
 372 332 l 1
170 628 m 1
 174 629 l 1
 174 623 l 1
 170 622 l 1
 170 628 l 1
385 277 m 1
 386 282 l 1
 387 274 l 1
 385 267 l 1
 385 277 l 1
370 310 m 1
 372 302 l 1
 371 292 l 1
 370 310 l 1
365 321 m 1
 369 322 l 1
 365 313 l 1
 365 321 l 1
154 589 m 1
 160 583 l 1
 155 583 l 1
 154 589 l 1
375 359 m 1
 377 363 l 1
 375 353 l 1
 375 359 l 1
EndSplineSet
EndChar

StartChar: U
Encoding: 85 85 46
Width: 530
Flags: W
LayerCount: 2
Fore
SplineSet
222 65 m 1
 202 76 l 1
 183 94 l 1
 141 115 l 1
 128 130 l 1
 112 140 l 1
 101 154 l 1
 82 194 l 1
 76 212 l 1
 71 219 l 1
 61 258 l 1
 57 286 l 1
 51 401 l 1
 60 487 l 1
 68 516 l 1
 68 532 l 1
 42 552 l 1
 37 560 l 1
 37 579 l 1
 46 591 l 1
 50 591 l 1
 55 596 l 1
 73 596 l 1
 87 612 l 1
 95 617 l 1
 106 628 l 1
 116 633 l 1
 143 631 l 1
 170 623 l 1
 220 603 l 1
 229 596 l 1
 237 594 l 1
 245 586 l 1
 249 579 l 1
 249 586 l 1
 256 594 l 1
 267 594 l 1
 277 589 l 1
 281 577 l 1
 275 572 l 1
 262 570 l 1
 272 548 l 1
 272 536 l 1
 267 519 l 1
 251 498 l 1
 242 479 l 1
 239 378 l 1
 242 356 l 1
 242 334 l 1
 239 323 l 1
 246 291 l 1
 253 269 l 1
 259 260 l 1
 259 244 l 1
 263 237 l 1
 271 212 l 1
 300 170 l 1
 315 177 l 1
 328 192 l 1
 336 209 l 1
 341 212 l 1
 355 248 l 1
 358 280 l 1
 358 301 l 1
 351 302 l 1
 347 309 l 1
 352 318 l 1
 361 320 l 1
 361 417 l 1
 358 449 l 1
 361 484 l 1
 359 492 l 1
 365 565 l 1
 378 598 l 1
 385 610 l 1
 392 616 l 1
 392 626 l 1
 389 633 l 1
 393 637 l 1
 404 643 l 1
 418 641 l 1
 423 644 l 1
 442 637 l 1
 483 614 l 1
 481 610 l 1
 481 604 l 1
 489 602 l 1
 490 596 l 1
 494 591 l 1
 498 567 l 1
 496 562 l 1
 500 562 l 1
 500 555 l 1
 492 551 l 1
 489 545 l 1
 494 545 l 1
 492 538 l 1
 492 528 l 1
 490 522 l 1
 490 514 l 1
 487 502 l 1
 486 505 l 1
 486 501 l 1
 482 497 l 1
 479 484 l 1
 476 481 l 1
 471 463 l 1
 476 463 l 1
 470 456 l 1
 470 449 l 1
 468 433 l 1
 464 426 l 1
 470 423 l 1
 470 430 l 1
 473 427 l 1
 471 412 l 1
 467 419 l 1
 461 410 l 1
 463 384 l 1
 475 365 l 1
 473 361 l 1
 469 359 l 1
 466 334 l 1
 470 324 l 1
 473 331 l 1
 473 315 l 1
 475 310 l 1
 473 300 l 1
 470 301 l 1
 471 260 l 1
 469 250 l 1
 472 244 l 1
 468 233 l 1
 468 220 l 1
 465 213 l 1
 467 206 l 1
 462 169 l 1
 459 165 l 1
 456 166 l 1
 452 157 l 1
 449 163 l 1
 446 149 l 1
 446 137 l 1
 442 137 l 1
 439 147 l 1
 436 130 l 1
 434 137 l 1
 429 132 l 1
 433 128 l 1
 433 122 l 1
 427 119 l 1
 427 115 l 1
 422 115 l 1
 420 111 l 1
 417 126 l 1
 414 123 l 1
 411 115 l 1
 413 106 l 1
 411 94 l 1
 401 85 l 1
 389 85 l 1
 379 93 l 1
 368 81 l 1
 347 77 l 1
 333 72 l 1
 323 71 l 1
 317 69 l 1
 309 68 l 1
 258 56 l 1
 222 65 l 1
271 444 m 1
 271 454 l 1
 277 459 l 1
 284 459 l 1
 290 454 l 1
 290 444 l 1
 287 441 l 1
 274 441 l 1
 271 444 l 1
30 504 m 1
 30 512 l 1
 37 515 l 1
 44 512 l 1
 44 502 l 1
 34 495 l 1
 30 504 l 1
395 611 m 1
 399 611 l 1
 399 616 l 1
 395 611 l 1
EndSplineSet
EndChar

StartChar: V
Encoding: 86 86 47
Width: 567
Flags: W
LayerCount: 2
Fore
SplineSet
341 -8 m 1
 334 -13 l 1
 330 -3 l 1
 298 24 l 1
 287 45 l 1
 274 45 l 1
 268 55 l 1
 271 61 l 1
 278 67 l 1
 273 82 l 1
 273 87 l 1
 269 93 l 1
 258 122 l 1
 241 142 l 1
 238 149 l 1
 218 167 l 1
 144 335 l 1
 134 350 l 1
 131 358 l 1
 128 361 l 1
 127 366 l 1
 115 391 l 1
 75 495 l 1
 44 558 l 1
 36 598 l 1
 39 616 l 1
 30 618 l 1
 30 627 l 1
 35 629 l 1
 43 629 l 1
 48 635 l 1
 48 651 l 1
 56 658 l 1
 67 658 l 1
 118 643 l 1
 145 643 l 1
 167 639 l 1
 184 632 l 1
 208 611 l 1
 215 608 l 1
 220 600 l 1
 218 589 l 1
 226 567 l 1
 242 545 l 1
 245 538 l 1
 252 530 l 1
 255 522 l 1
 270 496 l 1
 285 459 l 1
 286 452 l 1
 290 444 l 1
 296 419 l 1
 298 402 l 1
 303 393 l 1
 303 382 l 1
 301 379 l 1
 303 372 l 1
 303 359 l 1
 306 352 l 1
 306 345 l 1
 310 329 l 1
 303 325 l 1
 308 320 l 1
 311 312 l 1
 311 302 l 1
 314 297 l 1
 314 316 l 1
 317 320 l 1
 317 313 l 1
 320 308 l 1
 322 280 l 1
 324 289 l 1
 329 299 l 1
 326 304 l 1
 329 307 l 1
 332 301 l 1
 332 291 l 1
 326 281 l 1
 330 277 l 1
 330 269 l 1
 327 256 l 1
 332 252 l 1
 332 243 l 1
 337 243 l 1
 337 249 l 1
 333 260 l 1
 339 260 l 1
 341 255 l 1
 345 254 l 1
 345 243 l 1
 354 222 l 1
 360 222 l 1
 364 286 l 1
 374 356 l 1
 385 409 l 1
 392 434 l 1
 400 455 l 1
 399 465 l 1
 403 484 l 1
 403 540 l 1
 406 546 l 1
 409 568 l 1
 415 581 l 1
 415 586 l 1
 421 594 l 1
 426 607 l 1
 426 618 l 1
 439 631 l 1
 441 638 l 1
 449 640 l 1
 467 640 l 1
 475 638 l 1
 478 642 l 1
 484 642 l 1
 488 640 l 1
 490 646 l 1
 499 640 l 1
 503 628 l 1
 509 623 l 1
 511 635 l 1
 521 635 l 1
 531 629 l 1
 537 616 l 1
 531 605 l 1
 533 580 l 1
 531 577 l 1
 531 565 l 1
 528 556 l 1
 525 539 l 1
 520 528 l 1
 520 516 l 1
 518 513 l 1
 518 506 l 1
 512 492 l 1
 506 485 l 1
 509 476 l 1
 514 480 l 1
 512 468 l 1
 510 465 l 1
 509 453 l 1
 504 449 l 1
 503 471 l 1
 498 471 l 1
 496 462 l 1
 496 447 l 1
 498 444 l 1
 495 439 l 1
 495 431 l 1
 493 428 l 1
 493 415 l 1
 496 413 l 1
 492 411 l 1
 495 404 l 1
 495 371 l 1
 488 359 l 1
 484 359 l 1
 486 352 l 1
 482 334 l 1
 478 341 l 1
 478 350 l 1
 474 350 l 1
 472 336 l 1
 474 329 l 1
 469 329 l 1
 467 312 l 1
 470 307 l 1
 466 294 l 1
 468 280 l 1
 466 274 l 1
 467 254 l 1
 469 248 l 1
 469 233 l 1
 474 230 l 1
 474 211 l 1
 471 208 l 1
 471 219 l 1
 467 219 l 1
 464 206 l 1
 464 229 l 1
 461 234 l 1
 463 237 l 1
 463 251 l 1
 460 244 l 1
 455 242 l 1
 453 232 l 1
 457 224 l 1
 461 212 l 1
 459 204 l 1
 461 197 l 1
 453 184 l 1
 453 176 l 1
 459 168 l 1
 450 164 l 1
 450 155 l 1
 455 152 l 1
 458 136 l 1
 458 115 l 1
 456 112 l 1
 456 96 l 1
 450 83 l 1
 450 72 l 1
 447 71 l 1
 447 64 l 1
 443 60 l 1
 437 63 l 1
 437 48 l 1
 421 33 l 1
 415 33 l 1
 412 31 l 1
 410 37 l 1
 407 34 l 1
 406 29 l 1
 402 19 l 1
 394 11 l 1
 389 10 l 1
 381 2 l 1
 351 -14 l 1
 343 -16 l 1
 341 -8 l 1
375 690 m 1
 365 699 l 1
 365 707 l 1
 371 716 l 1
 381 720 l 1
 390 715 l 1
 394 706 l 1
 391 696 l 1
 384 690 l 1
 375 690 l 1
309 753 m 1
 307 759 l 1
 307 768 l 1
 319 774 l 1
 327 770 l 1
 331 762 l 1
 328 751 l 1
 317 748 l 1
 309 753 l 1
423 686 m 1
 423 695 l 1
 428 699 l 1
 441 699 l 1
 443 695 l 1
 443 685 l 1
 429 674 l 1
 423 686 l 1
284 572 m 1
 282 579 l 1
 285 588 l 1
 292 590 l 1
 299 588 l 1
 301 584 l 1
 301 577 l 1
 297 571 l 1
 284 572 l 1
320 524 m 1
 320 534 l 1
 325 538 l 1
 336 538 l 1
 340 531 l 1
 336 523 l 1
 330 520 l 1
 324 520 l 1
 320 524 l 1
263 630 m 1
 263 636 l 1
 269 642 l 1
 279 642 l 1
 282 631 l 1
 277 625 l 1
 268 625 l 1
 263 630 l 1
227 24 m 1
 227 31 l 1
 233 36 l 1
 239 36 l 1
 243 28 l 1
 239 21 l 1
 230 11 l 1
 227 24 l 1
322 318 m 1
 322 324 l 1
 324 331 l 1
 320 331 l 1
 319 337 l 1
 322 334 l 1
 322 342 l 1
 317 353 l 1
 316 364 l 1
 321 369 l 1
 324 356 l 1
 323 352 l 1
 327 350 l 1
 326 345 l 1
 324 315 l 1
 322 318 l 1
341 410 m 1
 341 415 l 1
 347 420 l 1
 351 417 l 1
 351 410 l 1
 341 410 l 1
509 391 m 1
 507 398 l 1
 509 407 l 1
 516 388 l 1
 512 388 l 1
 509 391 l 1
479 284 m 1
 477 295 l 1
 480 309 l 1
 482 281 l 1
 479 284 l 1
446 628 m 1
 445 621 l 1
 449 623 l 1
 456 631 l 1
 450 634 l 1
 450 628 l 1
 446 628 l 1
439 626 m 1
 434 621 l 1
 435 614 l 1
 439 617 l 1
 439 626 l 1
499 442 m 1
 503 442 l 1
 503 438 l 1
 499 430 l 1
 499 442 l 1
477 318 m 1
 480 324 l 1
 482 321 l 1
 478 313 l 1
 477 318 l 1
329 310 m 1
 335 313 l 1
 335 307 l 1
 329 310 l 1
502 412 m 1
 504 417 l 1
 506 404 l 1
 502 412 l 1
338 292 m 1
 342 292 l 1
 338 283 l 1
 338 292 l 1
456 157 m 1
 461 160 l 1
 463 163 l 1
 463 158 l 1
 456 157 l 1
509 415 m 1
 510 419 l 1
 512 412 l 1
 509 415 l 1
EndSplineSet
EndChar

StartChar: W
Encoding: 87 87 48
Width: 699
Flags: W
LayerCount: 2
Fore
SplineSet
437 19 m 1
 432 26 l 1
 428 26 l 1
 421 33 l 1
 424 38 l 1
 410 58 l 1
 407 66 l 1
 407 77 l 1
 391 104 l 1
 388 106 l 1
 386 115 l 1
 380 130 l 1
 376 132 l 1
 379 135 l 1
 369 166 l 1
 363 180 l 1
 356 182 l 1
 356 194 l 1
 351 206 l 1
 347 227 l 1
 340 246 l 1
 336 252 l 1
 336 246 l 1
 334 240 l 1
 331 251 l 1
 335 256 l 1
 330 267 l 1
 326 267 l 1
 326 257 l 1
 321 265 l 1
 319 275 l 1
 312 291 l 1
 308 295 l 1
 303 285 l 1
 299 288 l 1
 299 292 l 1
 304 300 l 1
 305 309 l 1
 296 311 l 1
 291 299 l 1
 291 288 l 1
 293 280 l 1
 289 259 l 1
 284 240 l 1
 278 230 l 1
 278 214 l 1
 276 206 l 1
 279 190 l 1
 272 171 l 1
 274 143 l 1
 268 125 l 1
 272 114 l 1
 273 98 l 1
 266 83 l 1
 262 66 l 1
 252 48 l 1
 244 40 l 1
 233 25 l 1
 223 23 l 1
 209 8 l 1
 206 1 l 1
 194 -6 l 1
 184 -9 l 1
 181 -14 l 1
 137 -31 l 1
 122 -34 l 1
 116 -31 l 1
 119 -28 l 1
 117 -25 l 1
 106 -20 l 1
 108 -15 l 1
 103 -6 l 1
 100 -16 l 1
 97 -20 l 1
 92 4 l 1
 95 15 l 1
 90 22 l 1
 90 34 l 1
 94 25 l 1
 94 34 l 1
 88 47 l 1
 84 49 l 1
 76 66 l 1
 71 83 l 1
 66 112 l 1
 61 122 l 1
 50 155 l 1
 50 160 l 1
 45 183 l 1
 45 203 l 1
 48 208 l 1
 43 222 l 1
 42 265 l 1
 40 272 l 1
 37 304 l 1
 34 320 l 1
 34 374 l 1
 30 390 l 1
 30 531 l 1
 34 596 l 1
 43 650 l 1
 51 654 l 1
 55 671 l 1
 61 678 l 1
 69 680 l 1
 98 666 l 1
 129 653 l 1
 143 653 l 1
 175 640 l 1
 191 627 l 1
 213 602 l 1
 218 571 l 1
 218 490 l 1
 214 460 l 1
 214 427 l 1
 209 413 l 1
 209 404 l 1
 198 386 l 1
 192 383 l 1
 190 378 l 1
 192 363 l 1
 194 380 l 1
 197 382 l 1
 197 378 l 1
 207 380 l 1
 212 387 l 1
 205 374 l 1
 205 358 l 1
 201 348 l 1
 201 335 l 1
 208 344 l 1
 208 337 l 1
 205 332 l 1
 201 314 l 1
 205 310 l 1
 205 305 l 1
 201 301 l 1
 194 280 l 1
 197 278 l 1
 194 270 l 1
 196 262 l 1
 198 269 l 1
 204 280 l 1
 212 309 l 1
 235 361 l 1
 240 366 l 1
 244 382 l 1
 251 388 l 1
 252 397 l 1
 259 412 l 1
 269 423 l 1
 270 433 l 1
 275 442 l 1
 276 455 l 1
 273 458 l 1
 278 464 l 1
 278 474 l 1
 275 479 l 1
 280 487 l 1
 283 482 l 1
 288 493 l 1
 292 493 l 1
 299 500 l 1
 301 493 l 1
 304 505 l 1
 314 500 l 1
 318 504 l 1
 324 501 l 1
 326 505 l 1
 335 505 l 1
 342 493 l 1
 342 498 l 1
 358 496 l 1
 364 493 l 1
 366 487 l 1
 372 487 l 1
 376 492 l 1
 383 488 l 1
 385 495 l 1
 393 495 l 1
 393 487 l 1
 395 484 l 1
 395 479 l 1
 398 476 l 1
 399 488 l 1
 406 488 l 1
 406 484 l 1
 403 478 l 1
 413 475 l 1
 422 477 l 1
 424 473 l 1
 443 460 l 1
 447 453 l 1
 445 435 l 1
 447 425 l 1
 452 420 l 1
 455 423 l 1
 460 402 l 1
 468 382 l 1
 468 367 l 1
 471 364 l 1
 473 372 l 1
 477 367 l 1
 474 353 l 1
 474 347 l 1
 479 347 l 1
 479 335 l 1
 482 326 l 1
 482 315 l 1
 484 312 l 1
 484 307 l 1
 480 307 l 1
 482 294 l 1
 486 283 l 1
 483 272 l 1
 488 262 l 1
 490 295 l 1
 494 278 l 1
 495 264 l 1
 492 251 l 1
 487 246 l 1
 487 232 l 1
 488 219 l 1
 492 219 l 1
 492 233 l 1
 495 237 l 1
 495 224 l 1
 498 211 l 1
 494 203 l 1
 494 186 l 1
 498 186 l 1
 498 203 l 1
 500 206 l 1
 506 273 l 1
 508 280 l 1
 509 275 l 1
 513 278 l 1
 519 315 l 1
 524 315 l 1
 524 323 l 1
 522 326 l 1
 525 329 l 1
 528 337 l 1
 531 340 l 1
 530 344 l 1
 527 340 l 1
 527 345 l 1
 532 351 l 1
 535 374 l 1
 540 365 l 1
 541 380 l 1
 540 412 l 1
 541 422 l 1
 545 419 l 1
 546 442 l 1
 552 442 l 1
 552 422 l 1
 559 429 l 1
 562 446 l 1
 560 450 l 1
 560 458 l 1
 563 462 l 1
 563 479 l 1
 562 471 l 1
 558 471 l 1
 560 484 l 1
 563 491 l 1
 560 496 l 1
 564 516 l 1
 560 525 l 1
 566 534 l 1
 570 552 l 1
 567 560 l 1
 570 565 l 1
 573 561 l 1
 577 565 l 1
 578 570 l 1
 581 572 l 1
 578 575 l 1
 577 571 l 1
 574 588 l 1
 577 591 l 1
 580 583 l 1
 583 588 l 1
 585 582 l 1
 588 585 l 1
 594 596 l 1
 594 600 l 1
 595 611 l 1
 590 608 l 1
 593 614 l 1
 606 624 l 1
 613 628 l 1
 630 628 l 1
 637 623 l 1
 640 634 l 1
 645 623 l 1
 649 623 l 1
 648 616 l 1
 653 623 l 1
 656 632 l 1
 658 624 l 1
 666 624 l 1
 669 623 l 1
 661 618 l 1
 661 610 l 1
 664 605 l 1
 661 602 l 1
 653 602 l 1
 650 605 l 1
 648 592 l 1
 649 589 l 1
 654 592 l 1
 650 586 l 1
 649 577 l 1
 645 576 l 1
 645 570 l 1
 639 553 l 1
 635 549 l 1
 631 552 l 1
 631 546 l 1
 627 543 l 1
 629 538 l 1
 620 524 l 1
 620 508 l 1
 613 498 l 1
 612 493 l 1
 606 490 l 1
 604 477 l 1
 608 471 l 1
 608 460 l 1
 605 458 l 1
 608 436 l 1
 613 431 l 1
 610 423 l 1
 609 432 l 1
 606 429 l 1
 612 416 l 1
 610 412 l 1
 605 380 l 1
 605 367 l 1
 608 364 l 1
 608 347 l 1
 605 341 l 1
 603 330 l 1
 608 324 l 1
 605 308 l 1
 609 301 l 1
 600 275 l 1
 600 284 l 1
 597 294 l 1
 595 320 l 1
 592 315 l 1
 591 305 l 1
 593 279 l 1
 590 270 l 1
 592 256 l 1
 587 250 l 1
 592 244 l 1
 595 248 l 1
 595 226 l 1
 592 220 l 1
 592 212 l 1
 595 204 l 1
 592 201 l 1
 586 201 l 1
 584 208 l 1
 583 203 l 1
 581 211 l 1
 578 200 l 1
 581 194 l 1
 580 166 l 1
 581 146 l 1
 588 150 l 1
 587 123 l 1
 589 119 l 1
 586 104 l 1
 581 96 l 1
 581 91 l 1
 586 94 l 1
 588 76 l 1
 584 69 l 1
 584 50 l 1
 559 19 l 1
 555 19 l 1
 546 5 l 1
 543 16 l 1
 538 18 l 1
 537 5 l 1
 532 16 l 1
 530 13 l 1
 531 4 l 1
 527 -1 l 1
 527 -9 l 1
 520 -4 l 1
 519 -13 l 1
 513 -15 l 1
 510 -6 l 1
 505 -9 l 1
 506 4 l 1
 502 -4 l 1
 498 -4 l 1
 492 -13 l 1
 492 -21 l 1
 487 -14 l 1
 482 -14 l 1
 475 -16 l 1
 465 -12 l 1
 450 4 l 1
 447 13 l 1
 441 19 l 1
 437 19 l 1
168 176 m 1
 174 186 l 1
 176 198 l 1
 176 208 l 1
 179 214 l 1
 179 230 l 1
 174 257 l 1
 171 260 l 1
 171 290 l 1
 165 293 l 1
 160 289 l 1
 158 283 l 1
 162 280 l 1
 165 260 l 1
 168 267 l 1
 168 254 l 1
 166 251 l 1
 162 222 l 1
 169 222 l 1
 166 219 l 1
 166 209 l 1
 171 206 l 1
 168 189 l 1
 166 186 l 1
 168 176 l 1
147 224 m 1
 152 211 l 1
 157 216 l 1
 157 224 l 1
 160 230 l 1
 154 232 l 1
 154 252 l 1
 151 257 l 1
 152 262 l 1
 146 269 l 1
 147 262 l 1
 143 262 l 1
 147 216 l 1
 147 224 l 1
560 406 m 1
 554 411 l 1
 552 403 l 1
 554 390 l 1
 560 396 l 1
 560 406 l 1
551 340 m 1
 549 331 l 1
 556 344 l 1
 556 358 l 1
 552 361 l 1
 552 350 l 1
 548 353 l 1
 551 344 l 1
 551 340 l 1
602 610 m 1
 616 610 l 1
 620 613 l 1
 620 617 l 1
 616 619 l 1
 610 616 l 1
 602 610 l 1
553 499 m 1
 556 505 l 1
 559 488 l 1
 557 473 l 1
 553 499 l 1
183 248 m 1
 186 224 l 1
 190 234 l 1
 183 248 l 1
591 560 m 1
 597 557 l 1
 597 565 l 1
 592 568 l 1
 591 560 l 1
575 232 m 1
 575 222 l 1
 580 224 l 1
 580 230 l 1
 578 227 l 1
 577 237 l 1
 575 232 l 1
550 466 m 1
 552 460 l 1
 557 460 l 1
 554 450 l 1
 550 466 l 1
176 270 m 1
 179 273 l 1
 176 281 l 1
 176 270 l 1
68 82 m 1
 71 76 l 1
 68 72 l 1
 68 82 l 1
286 233 m 1
 289 226 l 1
 286 224 l 1
 286 233 l 1
294 508 m 1
 292 505 l 1
 294 512 l 1
 297 502 l 1
 294 508 l 1
579 603 m 1
 583 611 l 1
 583 607 l 1
 579 603 l 1
492 301 m 1
 494 304 l 1
 496 300 l 1
 492 301 l 1
EndSplineSet
EndChar

StartChar: X
Encoding: 88 88 49
Width: 687
Flags: W
LayerCount: 2
Fore
SplineSet
373 469 m 1
 373 474 l 1
 380 478 l 1
 385 473 l 1
 385 463 l 1
 378 456 l 1
 385 448 l 1
 396 460 l 1
 396 467 l 1
 411 471 l 1
 433 492 l 1
 442 497 l 1
 456 515 l 1
 464 529 l 1
 487 558 l 1
 512 580 l 1
 532 609 l 1
 568 644 l 1
 588 656 l 1
 605 656 l 1
 612 652 l 1
 623 649 l 1
 629 644 l 1
 632 636 l 1
 647 628 l 1
 653 617 l 1
 657 600 l 1
 652 589 l 1
 647 583 l 1
 637 583 l 1
 628 573 l 1
 617 571 l 1
 592 573 l 1
 590 569 l 1
 564 544 l 1
 546 502 l 1
 546 484 l 1
 537 458 l 1
 532 451 l 1
 535 448 l 1
 539 436 l 1
 539 426 l 1
 544 418 l 1
 544 408 l 1
 540 403 l 1
 531 400 l 1
 522 405 l 1
 518 413 l 1
 515 406 l 1
 509 399 l 1
 507 390 l 1
 500 381 l 1
 498 366 l 1
 483 340 l 1
 464 316 l 1
 457 303 l 1
 461 294 l 1
 468 286 l 1
 470 277 l 1
 474 275 l 1
 477 268 l 1
 481 273 l 1
 481 264 l 1
 489 252 l 1
 492 259 l 1
 486 270 l 1
 488 281 l 1
 496 279 l 1
 502 261 l 1
 497 253 l 1
 501 248 l 1
 505 255 l 1
 509 244 l 1
 506 238 l 1
 512 233 l 1
 515 226 l 1
 527 218 l 1
 537 205 l 1
 542 190 l 1
 562 166 l 1
 562 155 l 1
 574 144 l 1
 582 132 l 1
 585 120 l 1
 601 111 l 1
 603 105 l 1
 603 91 l 1
 616 84 l 1
 625 76 l 1
 625 48 l 1
 622 42 l 1
 613 32 l 1
 612 25 l 1
 607 15 l 1
 607 1 l 1
 593 -8 l 1
 590 -15 l 1
 583 -22 l 1
 581 -27 l 1
 568 -30 l 1
 565 -35 l 1
 559 -33 l 1
 556 -38 l 1
 536 -43 l 1
 533 -37 l 1
 532 -42 l 1
 525 -38 l 1
 520 -31 l 1
 512 -31 l 1
 509 -25 l 1
 494 -21 l 1
 479 -2 l 1
 468 15 l 1
 459 46 l 1
 452 48 l 1
 452 60 l 1
 435 74 l 1
 426 84 l 1
 415 91 l 1
 393 113 l 1
 370 125 l 1
 366 129 l 1
 366 140 l 1
 354 152 l 1
 341 170 l 1
 335 181 l 1
 323 193 l 1
 251 127 l 1
 250 123 l 1
 239 111 l 1
 212 86 l 1
 209 62 l 1
 200 54 l 1
 189 36 l 1
 171 29 l 1
 145 27 l 1
 130 24 l 1
 92 24 l 1
 71 33 l 1
 62 44 l 1
 55 61 l 1
 55 77 l 1
 58 99 l 1
 67 111 l 1
 75 115 l 1
 112 113 l 1
 117 110 l 1
 134 118 l 1
 160 122 l 1
 175 143 l 1
 191 172 l 1
 195 188 l 1
 207 211 l 1
 215 223 l 1
 226 233 l 1
 236 247 l 1
 245 255 l 1
 262 281 l 1
 248 303 l 1
 241 309 l 1
 237 316 l 1
 233 318 l 1
 230 325 l 1
 226 328 l 1
 214 343 l 1
 206 355 l 1
 189 373 l 1
 184 384 l 1
 180 387 l 1
 151 421 l 1
 133 449 l 1
 121 465 l 1
 41 585 l 1
 36 597 l 1
 30 618 l 1
 34 651 l 1
 34 665 l 1
 45 670 l 1
 50 681 l 1
 95 673 l 1
 104 678 l 1
 124 683 l 1
 144 678 l 1
 152 681 l 1
 165 676 l 1
 207 665 l 1
 226 654 l 1
 241 641 l 1
 252 619 l 1
 271 598 l 1
 288 588 l 1
 298 571 l 1
 306 561 l 1
 328 523 l 1
 377 458 l 1
 373 469 l 1
592 724 m 1
 595 730 l 1
 601 730 l 1
 605 727 l 1
 602 720 l 1
 596 717 l 1
 592 724 l 1
474 282 m 1
 474 297 l 1
 476 301 l 1
 479 297 l 1
 478 272 l 1
 474 282 l 1
389 107 m 1
 398 107 l 1
 398 99 l 1
 389 107 l 1
335 174 m 1
 338 168 l 1
 335 152 l 1
 335 174 l 1
422 500 m 1
 424 505 l 1
 428 501 l 1
 425 495 l 1
 422 500 l 1
592 685 m 1
 592 691 l 1
 597 689 l 1
 592 685 l 1
603 765 m 1
 605 769 l 1
 608 763 l 1
 603 765 l 1
574 663 m 1
 576 659 l 1
 574 652 l 1
 574 663 l 1
EndSplineSet
EndChar

StartChar: Y
Encoding: 89 89 50
Width: 660
Flags: W
LayerCount: 2
Fore
SplineSet
422 675 m 1
 427 691 l 1
 427 665 l 1
 434 671 l 1
 434 689 l 1
 447 705 l 1
 456 708 l 1
 458 715 l 1
 465 722 l 1
 470 722 l 1
 465 728 l 1
 458 725 l 1
 465 743 l 1
 461 747 l 1
 455 741 l 1
 451 741 l 1
 456 756 l 1
 470 750 l 1
 478 748 l 1
 477 767 l 1
 483 764 l 1
 495 767 l 1
 497 776 l 1
 501 772 l 1
 502 759 l 1
 508 754 l 1
 514 765 l 1
 514 757 l 1
 511 750 l 1
 515 750 l 1
 523 768 l 1
 527 768 l 1
 527 750 l 1
 534 745 l 1
 538 752 l 1
 540 762 l 1
 546 756 l 1
 544 744 l 1
 551 744 l 1
 553 748 l 1
 557 739 l 1
 560 742 l 1
 558 756 l 1
 561 752 l 1
 567 750 l 1
 569 746 l 1
 575 746 l 1
 578 748 l 1
 578 737 l 1
 585 737 l 1
 591 744 l 1
 599 737 l 1
 607 735 l 1
 600 725 l 1
 602 713 l 1
 607 713 l 1
 607 722 l 1
 610 720 l 1
 615 720 l 1
 609 729 l 1
 617 735 l 1
 621 732 l 1
 621 726 l 1
 617 720 l 1
 620 715 l 1
 617 707 l 1
 619 690 l 1
 617 683 l 1
 607 674 l 1
 598 670 l 1
 591 661 l 1
 582 655 l 1
 578 648 l 1
 569 646 l 1
 567 639 l 1
 559 634 l 1
 547 617 l 1
 542 587 l 1
 539 591 l 1
 537 604 l 1
 530 589 l 1
 526 586 l 1
 526 565 l 1
 524 558 l 1
 524 538 l 1
 519 559 l 1
 514 554 l 1
 507 544 l 1
 507 536 l 1
 512 526 l 1
 512 502 l 1
 505 489 l 1
 501 471 l 1
 503 496 l 1
 507 500 l 1
 511 515 l 1
 504 523 l 1
 491 481 l 1
 486 470 l 1
 486 441 l 1
 478 434 l 1
 482 429 l 1
 478 421 l 1
 478 409 l 1
 480 406 l 1
 480 394 l 1
 475 387 l 1
 473 374 l 1
 467 366 l 1
 470 354 l 1
 467 341 l 1
 458 336 l 1
 487 301 l 1
 499 278 l 1
 503 246 l 1
 507 236 l 1
 515 209 l 1
 515 184 l 1
 519 159 l 1
 512 131 l 1
 504 114 l 1
 490 101 l 1
 487 89 l 1
 480 77 l 1
 480 63 l 1
 487 60 l 1
 492 46 l 1
 490 20 l 1
 480 5 l 1
 441 -30 l 1
 419 -37 l 1
 413 -41 l 1
 385 -37 l 1
 367 -40 l 1
 357 -30 l 1
 357 -21 l 1
 349 -11 l 1
 346 0 l 1
 346 15 l 1
 327 39 l 1
 287 267 l 1
 281 279 l 1
 270 288 l 1
 264 288 l 1
 258 291 l 1
 260 299 l 1
 257 297 l 1
 257 303 l 1
 251 306 l 1
 245 306 l 1
 247 299 l 1
 242 299 l 1
 242 304 l 1
 238 306 l 1
 238 312 l 1
 236 319 l 1
 243 319 l 1
 245 334 l 1
 231 341 l 1
 186 389 l 1
 183 404 l 1
 174 412 l 1
 172 423 l 1
 164 441 l 1
 154 445 l 1
 145 456 l 1
 142 463 l 1
 126 478 l 1
 122 489 l 1
 113 504 l 1
 96 526 l 1
 91 536 l 1
 64 574 l 1
 38 625 l 1
 30 661 l 1
 30 685 l 1
 37 687 l 1
 46 719 l 1
 51 729 l 1
 61 730 l 1
 109 720 l 1
 120 720 l 1
 126 717 l 1
 140 717 l 1
 159 710 l 1
 164 711 l 1
 196 705 l 1
 207 700 l 1
 213 700 l 1
 241 683 l 1
 244 678 l 1
 244 652 l 1
 250 637 l 1
 260 626 l 1
 268 604 l 1
 273 599 l 1
 280 570 l 1
 286 563 l 1
 287 545 l 1
 297 526 l 1
 301 541 l 1
 297 554 l 1
 288 569 l 1
 291 572 l 1
 309 540 l 1
 307 534 l 1
 304 541 l 1
 303 524 l 1
 305 511 l 1
 311 508 l 1
 314 502 l 1
 318 477 l 1
 315 471 l 1
 323 454 l 1
 325 469 l 1
 334 472 l 1
 345 467 l 1
 345 473 l 1
 366 536 l 1
 375 549 l 1
 384 565 l 1
 390 600 l 1
 394 600 l 1
 397 590 l 1
 395 609 l 1
 395 613 l 1
 399 612 l 1
 404 617 l 1
 408 617 l 1
 414 648 l 1
 417 645 l 1
 425 654 l 1
 426 663 l 1
 422 675 l 1
122 447 m 1
 122 456 l 1
 132 463 l 1
 140 459 l 1
 140 453 l 1
 133 447 l 1
 122 447 l 1
36 564 m 1
 39 570 l 1
 46 574 l 1
 52 571 l 1
 52 563 l 1
 46 558 l 1
 42 558 l 1
 36 564 l 1
334 480 m 1
 334 489 l 1
 331 492 l 1
 324 505 l 1
 326 510 l 1
 338 489 l 1
 338 480 l 1
 336 474 l 1
 334 480 l 1
59 551 m 1
 59 560 l 1
 67 560 l 1
 67 554 l 1
 64 557 l 1
 59 551 l 1
626 696 m 1
 626 704 l 1
 630 704 l 1
 630 695 l 1
 627 691 l 1
 626 696 l 1
249 322 m 1
 253 318 l 1
 260 318 l 1
 252 325 l 1
 249 322 l 1
326 449 m 1
 326 439 l 1
 330 441 l 1
 326 449 l 1
535 554 m 1
 538 568 l 1
 539 560 l 1
 535 554 l 1
321 490 m 1
 326 492 l 1
 321 484 l 1
 321 490 l 1
501 467 m 1
 499 460 l 1
 501 471 l 1
 501 467 l 1
EndSplineSet
EndChar

StartChar: Z
Encoding: 90 90 51
Width: 694
Flags: W
LayerCount: 2
Fore
SplineSet
274 406 m 1
 278 423 l 1
 287 427 l 1
 296 425 l 1
 302 430 l 1
 302 441 l 1
 310 438 l 1
 369 493 l 1
 393 520 l 1
 380 520 l 1
 338 507 l 1
 298 503 l 1
 288 500 l 1
 268 503 l 1
 230 503 l 1
 189 515 l 1
 185 520 l 1
 168 524 l 1
 159 528 l 1
 155 519 l 1
 145 515 l 1
 145 524 l 1
 148 531 l 1
 145 535 l 1
 124 550 l 1
 116 552 l 1
 104 561 l 1
 86 569 l 1
 67 581 l 1
 47 601 l 1
 32 618 l 1
 32 635 l 1
 36 644 l 1
 40 645 l 1
 47 652 l 1
 67 659 l 1
 70 662 l 1
 87 662 l 1
 103 659 l 1
 185 652 l 1
 287 670 l 1
 309 670 l 1
 320 672 l 1
 420 679 l 1
 433 683 l 1
 481 683 l 1
 494 679 l 1
 512 670 l 1
 522 674 l 1
 535 668 l 1
 547 650 l 1
 569 629 l 1
 582 609 l 1
 590 588 l 1
 588 572 l 1
 590 555 l 1
 585 539 l 1
 579 533 l 1
 577 527 l 1
 570 516 l 1
 557 499 l 1
 549 496 l 1
 540 484 l 1
 511 462 l 1
 496 459 l 1
 489 452 l 1
 486 446 l 1
 478 437 l 1
 471 432 l 1
 467 434 l 1
 464 432 l 1
 464 426 l 1
 447 398 l 1
 429 381 l 1
 420 375 l 1
 388 341 l 1
 380 329 l 1
 372 327 l 1
 372 320 l 1
 365 312 l 1
 341 300 l 1
 348 300 l 1
 352 302 l 1
 360 302 l 1
 371 305 l 1
 359 293 l 1
 364 291 l 1
 359 282 l 1
 341 258 l 1
 335 244 l 1
 327 233 l 1
 332 230 l 1
 341 236 l 1
 337 227 l 1
 337 221 l 1
 330 221 l 1
 328 217 l 1
 328 206 l 1
 320 201 l 1
 334 204 l 1
 324 196 l 1
 319 182 l 1
 324 182 l 1
 324 178 l 1
 319 173 l 1
 307 146 l 1
 298 138 l 1
 293 136 l 1
 293 130 l 1
 341 130 l 1
 361 126 l 1
 378 129 l 1
 418 130 l 1
 429 136 l 1
 432 143 l 1
 444 145 l 1
 486 166 l 1
 489 176 l 1
 500 202 l 1
 509 217 l 1
 516 220 l 1
 518 228 l 1
 523 228 l 1
 531 236 l 1
 547 242 l 1
 547 248 l 1
 539 246 l 1
 529 237 l 1
 526 240 l 1
 530 244 l 1
 537 247 l 1
 545 259 l 1
 550 259 l 1
 550 246 l 1
 564 249 l 1
 586 249 l 1
 592 243 l 1
 597 243 l 1
 602 252 l 1
 605 249 l 1
 605 239 l 1
 614 229 l 1
 623 236 l 1
 629 226 l 1
 630 219 l 1
 635 219 l 1
 635 215 l 1
 630 213 l 1
 638 208 l 1
 643 213 l 1
 649 206 l 1
 640 190 l 1
 637 188 l 1
 633 172 l 1
 627 169 l 1
 625 165 l 1
 625 154 l 1
 622 149 l 1
 622 134 l 1
 618 121 l 1
 610 119 l 1
 605 107 l 1
 601 107 l 1
 595 95 l 1
 588 93 l 1
 583 88 l 1
 570 86 l 1
 550 86 l 1
 541 77 l 1
 535 80 l 1
 529 86 l 1
 525 73 l 1
 511 71 l 1
 502 62 l 1
 500 66 l 1
 494 66 l 1
 486 58 l 1
 479 56 l 1
 471 51 l 1
 457 51 l 1
 440 46 l 1
 421 48 l 1
 418 46 l 1
 405 45 l 1
 398 41 l 1
 366 41 l 1
 343 43 l 1
 336 40 l 1
 304 34 l 1
 278 34 l 1
 267 32 l 1
 240 30 l 1
 195 33 l 1
 188 27 l 1
 167 21 l 1
 156 21 l 1
 151 -13 l 1
 151 14 l 1
 153 17 l 1
 153 21 l 1
 149 21 l 1
 146 17 l 1
 139 25 l 1
 134 25 l 1
 132 21 l 1
 132 27 l 1
 123 24 l 1
 119 27 l 1
 93 27 l 1
 88 31 l 1
 63 33 l 1
 55 38 l 1
 51 45 l 1
 47 45 l 1
 38 43 l 1
 41 45 l 1
 38 47 l 1
 31 47 l 1
 26 62 l 1
 26 68 l 1
 36 73 l 1
 36 77 l 1
 44 101 l 1
 51 108 l 1
 51 120 l 1
 58 129 l 1
 66 136 l 1
 69 147 l 1
 73 149 l 1
 78 158 l 1
 80 147 l 1
 93 161 l 1
 97 161 l 1
 108 166 l 1
 106 169 l 1
 110 172 l 1
 119 190 l 1
 119 200 l 1
 123 206 l 1
 121 215 l 1
 128 227 l 1
 130 234 l 1
 139 246 l 1
 147 253 l 1
 153 273 l 1
 175 313 l 1
 246 383 l 1
 274 406 l 1
31 346 m 1
 31 357 l 1
 36 367 l 1
 49 367 l 1
 53 360 l 1
 50 344 l 1
 37 340 l 1
 31 346 l 1
141 466 m 1
 141 475 l 1
 146 483 l 1
 150 493 l 1
 156 493 l 1
 161 481 l 1
 160 463 l 1
 145 463 l 1
 141 466 l 1
45 467 m 1
 51 467 l 1
 51 459 l 1
 45 456 l 1
 45 467 l 1
278 457 m 1
 280 452 l 1
 278 423 l 1
 278 457 l 1
652 179 m 1
 657 190 l 1
 660 192 l 1
 656 183 l 1
 652 179 l 1
EndSplineSet
EndChar

StartChar: underscore
Encoding: 95 95 52
Width: 634
Flags: W
LayerCount: 2
Fore
SplineSet
107 -24 m 1
 62 -10 l 1
 59 -7 l 1
 63 -5 l 1
 50 6 l 1
 46 -3 l 1
 39 5 l 1
 37 15 l 1
 30 33 l 1
 35 40 l 1
 46 44 l 1
 61 44 l 1
 126 55 l 1
 145 57 l 1
 210 58 l 1
 236 55 l 1
 419 62 l 1
 436 60 l 1
 463 60 l 1
 492 58 l 1
 501 56 l 1
 575 56 l 1
 588 55 l 1
 599 49 l 1
 604 33 l 1
 604 27 l 1
 602 22 l 1
 581 8 l 1
 576 8 l 1
 570 4 l 1
 550 1 l 1
 533 1 l 1
 516 -3 l 1
 491 -3 l 1
 487 -5 l 1
 475 -3 l 1
 441 -5 l 1
 426 -7 l 1
 416 -11 l 1
 252 -13 l 1
 242 -17 l 1
 227 -18 l 1
 156 -18 l 1
 150 -19 l 1
 147 -20 l 1
 123 -24 l 1
 107 -24 l 1
EndSplineSet
EndChar

StartChar: a
Encoding: 97 97 53
Width: 456
Flags: W
LayerCount: 2
Fore
SplineSet
356 30 m 1
 338 36 l 1
 327 45 l 1
 316 48 l 1
 309 54 l 1
 300 66 l 1
 295 77 l 1
 295 91 l 1
 290 98 l 1
 285 98 l 1
 278 89 l 1
 271 85 l 1
 266 79 l 1
 262 70 l 1
 256 70 l 1
 244 61 l 1
 246 49 l 1
 229 48 l 1
 226 44 l 1
 217 40 l 1
 218 30 l 1
 214 30 l 1
 211 36 l 1
 193 36 l 1
 188 42 l 1
 184 42 l 1
 177 41 l 1
 168 45 l 1
 157 45 l 1
 154 47 l 1
 153 43 l 1
 144 43 l 1
 141 48 l 1
 137 43 l 1
 133 47 l 1
 133 54 l 1
 118 54 l 1
 111 49 l 1
 90 54 l 1
 86 58 l 1
 86 63 l 1
 81 75 l 1
 78 69 l 1
 76 73 l 1
 76 80 l 1
 71 91 l 1
 66 114 l 1
 59 114 l 1
 53 109 l 1
 51 118 l 1
 57 121 l 1
 57 155 l 1
 54 158 l 1
 47 158 l 1
 45 151 l 1
 45 157 l 1
 50 176 l 1
 63 201 l 1
 76 240 l 1
 105 272 l 1
 110 272 l 1
 135 297 l 1
 155 310 l 1
 177 318 l 1
 191 319 l 1
 196 317 l 1
 206 317 l 1
 210 315 l 1
 218 315 l 1
 221 318 l 1
 229 319 l 1
 233 316 l 1
 246 320 l 1
 256 312 l 1
 262 317 l 1
 262 341 l 1
 255 374 l 1
 237 435 l 1
 231 440 l 1
 221 436 l 1
 194 431 l 1
 175 420 l 1
 172 391 l 1
 154 373 l 1
 152 368 l 1
 146 362 l 1
 141 352 l 1
 128 342 l 1
 115 342 l 1
 93 347 l 1
 56 362 l 1
 45 369 l 1
 34 386 l 1
 30 403 l 1
 32 414 l 1
 32 424 l 1
 30 428 l 1
 32 446 l 1
 45 472 l 1
 60 483 l 1
 70 485 l 1
 94 513 l 1
 107 524 l 1
 120 533 l 1
 130 536 l 1
 147 536 l 1
 168 541 l 1
 196 542 l 1
 226 536 l 1
 246 536 l 1
 264 530 l 1
 303 499 l 1
 311 496 l 1
 322 485 l 1
 335 475 l 1
 343 472 l 1
 347 467 l 1
 354 465 l 1
 374 447 l 1
 386 440 l 1
 389 432 l 1
 402 413 l 1
 410 396 l 1
 407 355 l 1
 409 333 l 1
 412 326 l 1
 420 289 l 1
 423 217 l 1
 426 211 l 1
 424 204 l 1
 424 181 l 1
 421 147 l 1
 410 112 l 1
 407 109 l 1
 407 103 l 1
 412 85 l 1
 418 70 l 1
 418 63 l 1
 414 59 l 1
 407 59 l 1
 403 47 l 1
 397 42 l 1
 388 38 l 1
 384 34 l 1
 382 26 l 1
 356 30 l 1
153 117 m 1
 170 115 l 1
 173 116 l 1
 201 118 l 1
 204 121 l 1
 222 128 l 1
 229 132 l 1
 238 133 l 1
 256 141 l 1
 253 151 l 1
 257 151 l 1
 259 143 l 1
 273 148 l 1
 273 155 l 1
 268 165 l 1
 262 247 l 1
 251 248 l 1
 234 242 l 1
 229 245 l 1
 221 240 l 1
 215 239 l 1
 206 233 l 1
 203 222 l 1
 197 210 l 1
 188 208 l 1
 182 201 l 1
 186 197 l 1
 186 192 l 1
 183 187 l 1
 179 192 l 1
 178 199 l 1
 171 193 l 1
 170 188 l 1
 163 186 l 1
 154 166 l 1
 161 169 l 1
 163 177 l 1
 166 181 l 1
 176 181 l 1
 178 173 l 1
 173 166 l 1
 163 169 l 1
 161 165 l 1
 152 161 l 1
 152 157 l 1
 157 160 l 1
 159 155 l 1
 154 143 l 1
 153 134 l 1
 150 132 l 1
 150 125 l 1
 153 117 l 1
250 8 m 1
 246 14 l 1
 250 21 l 1
 256 21 l 1
 259 18 l 1
 259 8 l 1
 254 5 l 1
 250 8 l 1
166 25 m 1
 166 35 l 1
 171 36 l 1
 178 34 l 1
 178 25 l 1
 175 23 l 1
 166 25 l 1
115 100 m 1
 123 99 l 1
 121 107 l 1
 115 109 l 1
 115 100 l 1
239 -16 m 1
 239 -6 l 1
 244 -6 l 1
 244 -16 l 1
 239 -16 l 1
154 137 m 1
 159 145 l 1
 159 134 l 1
 154 137 l 1
231 9 m 1
 231 16 l 1
 237 16 l 1
 237 11 l 1
 232 14 l 1
 231 9 l 1
39 133 m 1
 45 137 l 1
 45 133 l 1
 41 130 l 1
 39 133 l 1
EndSplineSet
EndChar

StartChar: b
Encoding: 98 98 54
Width: 534
Flags: W
LayerCount: 2
Fore
SplineSet
352 29 m 1
 353 26 l 1
 352 23 l 1
 349 32 l 1
 346 25 l 1
 340 20 l 1
 329 23 l 1
 325 23 l 1
 317 18 l 1
 297 18 l 1
 294 16 l 1
 284 19 l 1
 272 12 l 1
 254 11 l 1
 241 9 l 1
 236 6 l 1
 230 -4 l 1
 223 4 l 1
 216 0 l 1
 211 0 l 1
 207 -16 l 1
 200 -14 l 1
 197 -18 l 1
 194 -42 l 1
 190 -51 l 1
 186 -51 l 1
 185 -38 l 1
 181 -35 l 1
 179 -45 l 1
 171 -49 l 1
 163 -47 l 1
 159 -42 l 1
 144 -58 l 1
 136 -54 l 1
 125 -60 l 1
 122 -58 l 1
 112 -60 l 1
 100 -53 l 1
 98 -47 l 1
 94 -45 l 1
 92 -37 l 1
 87 -35 l 1
 90 -24 l 1
 88 -11 l 1
 88 13 l 1
 85 25 l 1
 60 45 l 1
 55 47 l 1
 44 54 l 1
 32 60 l 1
 30 67 l 1
 30 82 l 1
 38 85 l 1
 40 96 l 1
 46 94 l 1
 58 96 l 1
 84 96 l 1
 85 126 l 1
 83 136 l 1
 85 143 l 1
 92 250 l 1
 89 254 l 1
 73 262 l 1
 69 267 l 1
 52 272 l 1
 49 275 l 1
 49 291 l 1
 52 297 l 1
 58 299 l 1
 64 307 l 1
 95 331 l 1
 94 342 l 1
 94 476 l 1
 110 622 l 1
 105 641 l 1
 102 666 l 1
 96 677 l 1
 96 701 l 1
 100 713 l 1
 107 720 l 1
 116 717 l 1
 126 717 l 1
 129 713 l 1
 141 705 l 1
 161 705 l 1
 185 698 l 1
 197 693 l 1
 209 686 l 1
 215 677 l 1
 221 672 l 1
 228 661 l 1
 235 639 l 1
 238 607 l 1
 245 592 l 1
 247 570 l 1
 248 542 l 1
 250 531 l 1
 250 485 l 1
 248 480 l 1
 247 464 l 1
 245 460 l 1
 245 453 l 1
 243 449 l 1
 237 417 l 1
 237 400 l 1
 242 396 l 1
 257 398 l 1
 289 398 l 1
 312 396 l 1
 347 390 l 1
 410 358 l 1
 431 338 l 1
 456 306 l 1
 459 295 l 1
 466 291 l 1
 469 280 l 1
 467 275 l 1
 470 266 l 1
 473 264 l 1
 474 271 l 1
 483 268 l 1
 487 257 l 1
 485 246 l 1
 484 233 l 1
 488 240 l 1
 492 240 l 1
 492 223 l 1
 495 208 l 1
 498 215 l 1
 500 208 l 1
 498 197 l 1
 492 192 l 1
 497 188 l 1
 493 181 l 1
 490 170 l 1
 496 170 l 1
 501 175 l 1
 504 173 l 1
 504 168 l 1
 499 168 l 1
 496 161 l 1
 495 158 l 1
 490 157 l 1
 492 154 l 1
 498 151 l 1
 492 145 l 1
 492 134 l 1
 481 124 l 1
 478 112 l 1
 484 116 l 1
 486 125 l 1
 486 114 l 1
 474 101 l 1
 470 92 l 1
 460 80 l 1
 460 69 l 1
 454 62 l 1
 456 69 l 1
 457 81 l 1
 452 81 l 1
 450 77 l 1
 446 75 l 1
 440 67 l 1
 440 73 l 1
 439 70 l 1
 429 61 l 1
 427 64 l 1
 417 54 l 1
 407 54 l 1
 401 48 l 1
 401 41 l 1
 396 36 l 1
 392 34 l 1
 395 41 l 1
 392 42 l 1
 370 30 l 1
 370 26 l 1
 361 24 l 1
 361 34 l 1
 358 37 l 1
 349 33 l 1
 352 29 l 1
207 128 m 1
 201 100 l 1
 209 105 l 1
 214 103 l 1
 252 108 l 1
 290 110 l 1
 301 114 l 1
 319 123 l 1
 325 128 l 1
 344 175 l 1
 348 217 l 1
 346 266 l 1
 337 277 l 1
 322 289 l 1
 307 289 l 1
 300 287 l 1
 245 277 l 1
 239 278 l 1
 234 273 l 1
 234 264 l 1
 240 268 l 1
 226 229 l 1
 225 212 l 1
 222 210 l 1
 218 197 l 1
 218 184 l 1
 223 188 l 1
 227 193 l 1
 227 187 l 1
 219 179 l 1
 209 152 l 1
 207 128 l 1
200 -65 m 1
 193 -63 l 1
 191 -54 l 1
 195 -50 l 1
 203 -48 l 1
 209 -54 l 1
 209 -60 l 1
 205 -65 l 1
 205 -75 l 1
 200 -65 l 1
267 420 m 1
 263 434 l 1
 267 440 l 1
 272 440 l 1
 275 433 l 1
 275 423 l 1
 272 420 l 1
 267 420 l 1
216 119 m 1
 218 138 l 1
 222 134 l 1
 222 125 l 1
 218 107 l 1
 216 119 l 1
263 0 m 1
 263 5 l 1
 269 5 l 1
 269 0 l 1
 267 -6 l 1
 263 0 l 1
268 168 m 1
 270 177 l 1
 275 177 l 1
 275 170 l 1
 268 168 l 1
218 139 m 1
 222 161 l 1
 225 156 l 1
 218 139 l 1
211 -64 m 1
 212 -60 l 1
 216 -60 l 1
 216 -67 l 1
 212 -67 l 1
 211 -64 l 1
230 225 m 1
 233 228 l 1
 234 223 l 1
 230 217 l 1
 230 225 l 1
222 175 m 1
 226 174 l 1
 223 169 l 1
 222 175 l 1
308 6 m 1
 305 11 l 1
 308 12 l 1
 308 6 l 1
305 11 m 1
 302 10 l 1
 304 14 l 1
 305 11 l 1
96 623 m 1
 99 621 l 1
 96 619 l 1
 96 623 l 1
EndSplineSet
EndChar

StartChar: c
Encoding: 99 99 55
Width: 513
Flags: W
LayerCount: 2
Fore
SplineSet
305 43 m 1
 301 50 l 1
 298 46 l 1
 293 50 l 1
 290 43 l 1
 284 53 l 1
 283 48 l 1
 274 48 l 1
 271 50 l 1
 268 48 l 1
 242 48 l 1
 237 50 l 1
 230 50 l 1
 224 57 l 1
 215 55 l 1
 193 55 l 1
 110 81 l 1
 87 93 l 1
 67 117 l 1
 60 143 l 1
 52 154 l 1
 55 161 l 1
 56 154 l 1
 57 162 l 1
 49 175 l 1
 42 192 l 1
 37 194 l 1
 35 205 l 1
 33 231 l 1
 30 244 l 1
 35 292 l 1
 42 313 l 1
 44 329 l 1
 55 354 l 1
 60 374 l 1
 68 388 l 1
 71 399 l 1
 81 414 l 1
 88 419 l 1
 102 440 l 1
 139 470 l 1
 159 484 l 1
 200 506 l 1
 222 514 l 1
 242 524 l 1
 267 530 l 1
 289 532 l 1
 302 530 l 1
 336 517 l 1
 351 506 l 1
 385 472 l 1
 406 444 l 1
 406 437 l 1
 412 434 l 1
 415 427 l 1
 421 421 l 1
 424 414 l 1
 430 407 l 1
 437 388 l 1
 435 391 l 1
 432 379 l 1
 440 374 l 1
 442 381 l 1
 446 370 l 1
 445 348 l 1
 437 344 l 1
 434 334 l 1
 432 338 l 1
 430 335 l 1
 424 327 l 1
 418 327 l 1
 414 330 l 1
 409 325 l 1
 389 325 l 1
 383 327 l 1
 371 328 l 1
 353 335 l 1
 343 324 l 1
 339 324 l 1
 337 347 l 1
 324 334 l 1
 320 333 l 1
 305 322 l 1
 283 315 l 1
 278 311 l 1
 274 304 l 1
 257 298 l 1
 245 286 l 1
 238 276 l 1
 236 269 l 1
 242 267 l 1
 246 262 l 1
 246 251 l 1
 239 248 l 1
 230 254 l 1
 225 249 l 1
 225 243 l 1
 228 240 l 1
 228 236 l 1
 225 233 l 1
 221 233 l 1
 218 236 l 1
 214 221 l 1
 211 218 l 1
 207 205 l 1
 207 164 l 1
 233 164 l 1
 247 156 l 1
 276 156 l 1
 276 160 l 1
 266 176 l 1
 260 193 l 1
 262 206 l 1
 271 219 l 1
 281 219 l 1
 281 230 l 1
 271 265 l 1
 271 277 l 1
 264 280 l 1
 261 287 l 1
 268 296 l 1
 272 296 l 1
 279 292 l 1
 279 281 l 1
 274 276 l 1
 283 238 l 1
 290 226 l 1
 296 212 l 1
 306 197 l 1
 313 176 l 1
 300 164 l 1
 298 154 l 1
 305 157 l 1
 310 154 l 1
 317 156 l 1
 321 154 l 1
 340 157 l 1
 392 200 l 1
 415 215 l 1
 418 218 l 1
 421 215 l 1
 423 220 l 1
 443 223 l 1
 472 217 l 1
 483 204 l 1
 483 183 l 1
 475 164 l 1
 459 149 l 1
 451 130 l 1
 447 125 l 1
 447 120 l 1
 442 106 l 1
 427 93 l 1
 423 82 l 1
 408 69 l 1
 404 62 l 1
 394 62 l 1
 387 55 l 1
 371 52 l 1
 368 48 l 1
 360 51 l 1
 352 43 l 1
 350 52 l 1
 342 46 l 1
 334 52 l 1
 324 47 l 1
 320 41 l 1
 320 48 l 1
 317 50 l 1
 315 47 l 1
 305 43 l 1
446 233 m 1
 446 240 l 1
 450 245 l 1
 456 245 l 1
 458 238 l 1
 456 233 l 1
 446 233 l 1
EndSplineSet
EndChar

StartChar: d
Encoding: 100 100 56
Width: 493
Flags: W
LayerCount: 2
Fore
SplineSet
305 -68 m 1
 292 -67 l 1
 279 -49 l 1
 275 -47 l 1
 274 -35 l 1
 270 -20 l 1
 270 0 l 1
 267 9 l 1
 259 9 l 1
 256 6 l 1
 247 7 l 1
 243 10 l 1
 226 5 l 1
 222 5 l 1
 222 9 l 1
 210 9 l 1
 205 7 l 1
 199 11 l 1
 192 9 l 1
 188 11 l 1
 182 8 l 1
 173 11 l 1
 151 12 l 1
 149 17 l 1
 131 21 l 1
 125 16 l 1
 106 30 l 1
 99 33 l 1
 94 38 l 1
 97 50 l 1
 107 44 l 1
 105 55 l 1
 93 59 l 1
 86 45 l 1
 68 74 l 1
 68 79 l 1
 65 89 l 1
 59 101 l 1
 56 103 l 1
 49 114 l 1
 43 127 l 1
 40 117 l 1
 40 109 l 1
 36 112 l 1
 36 156 l 1
 34 183 l 1
 30 185 l 1
 35 207 l 1
 45 231 l 1
 49 247 l 1
 57 260 l 1
 59 267 l 1
 65 274 l 1
 72 289 l 1
 82 299 l 1
 84 305 l 1
 107 333 l 1
 128 351 l 1
 139 356 l 1
 141 359 l 1
 147 359 l 1
 152 362 l 1
 158 362 l 1
 163 368 l 1
 169 368 l 1
 185 370 l 1
 189 372 l 1
 193 370 l 1
 200 370 l 1
 204 376 l 1
 221 368 l 1
 226 364 l 1
 234 364 l 1
 239 367 l 1
 254 357 l 1
 274 354 l 1
 274 358 l 1
 287 508 l 1
 299 587 l 1
 306 667 l 1
 314 706 l 1
 311 726 l 1
 313 732 l 1
 318 734 l 1
 320 744 l 1
 324 750 l 1
 340 758 l 1
 346 758 l 1
 358 748 l 1
 376 740 l 1
 406 734 l 1
 419 725 l 1
 437 715 l 1
 448 703 l 1
 458 687 l 1
 462 673 l 1
 459 662 l 1
 457 642 l 1
 438 586 l 1
 436 574 l 1
 431 563 l 1
 431 554 l 1
 425 523 l 1
 421 520 l 1
 410 432 l 1
 405 419 l 1
 400 377 l 1
 400 354 l 1
 402 349 l 1
 402 332 l 1
 398 324 l 1
 402 317 l 1
 402 287 l 1
 397 280 l 1
 397 259 l 1
 394 241 l 1
 394 226 l 1
 397 221 l 1
 397 215 l 1
 393 215 l 1
 393 209 l 1
 397 206 l 1
 394 202 l 1
 393 190 l 1
 385 175 l 1
 385 168 l 1
 388 164 l 1
 379 145 l 1
 383 142 l 1
 387 146 l 1
 387 137 l 1
 377 126 l 1
 380 124 l 1
 399 128 l 1
 415 128 l 1
 433 125 l 1
 441 127 l 1
 443 111 l 1
 449 95 l 1
 458 91 l 1
 463 91 l 1
 455 84 l 1
 455 74 l 1
 459 74 l 1
 453 65 l 1
 452 60 l 1
 440 50 l 1
 428 38 l 1
 428 2 l 1
 436 0 l 1
 436 -8 l 1
 440 -13 l 1
 440 -22 l 1
 438 -27 l 1
 438 -36 l 1
 428 -44 l 1
 419 -47 l 1
 412 -52 l 1
 400 -56 l 1
 385 -66 l 1
 340 -66 l 1
 322 -68 l 1
 310 -73 l 1
 305 -68 l 1
232 83 m 1
 238 81 l 1
 250 81 l 1
 263 85 l 1
 267 96 l 1
 263 98 l 1
 265 101 l 1
 265 111 l 1
 272 153 l 1
 275 213 l 1
 271 291 l 1
 268 295 l 1
 262 293 l 1
 226 293 l 1
 226 289 l 1
 223 287 l 1
 220 294 l 1
 203 288 l 1
 200 282 l 1
 193 280 l 1
 187 282 l 1
 178 277 l 1
 184 253 l 1
 180 241 l 1
 180 234 l 1
 175 230 l 1
 178 226 l 1
 176 215 l 1
 171 217 l 1
 164 186 l 1
 169 168 l 1
 176 151 l 1
 175 143 l 1
 183 146 l 1
 190 132 l 1
 190 117 l 1
 193 109 l 1
 205 109 l 1
 206 103 l 1
 218 96 l 1
 229 87 l 1
 232 83 l 1
218 138 m 1
 221 146 l 1
 224 149 l 1
 226 166 l 1
 233 171 l 1
 240 171 l 1
 245 166 l 1
 245 151 l 1
 236 143 l 1
 232 142 l 1
 229 134 l 1
 224 133 l 1
 218 138 l 1
197 135 m 1
 195 140 l 1
 195 151 l 1
 202 156 l 1
 209 156 l 1
 214 152 l 1
 214 139 l 1
 207 133 l 1
 197 135 l 1
437 -55 m 1
 437 -43 l 1
 443 -40 l 1
 448 -44 l 1
 448 -57 l 1
 445 -58 l 1
 437 -55 l 1
243 205 m 1
 243 212 l 1
 246 215 l 1
 252 215 l 1
 252 204 l 1
 248 200 l 1
 243 205 l 1
180 187 m 1
 180 195 l 1
 188 195 l 1
 188 185 l 1
 183 180 l 1
 180 187 l 1
195 165 m 1
 195 171 l 1
 200 171 l 1
 200 164 l 1
 195 165 l 1
EndSplineSet
EndChar

StartChar: e
Encoding: 101 101 57
Width: 442
Flags: W
LayerCount: 2
Fore
SplineSet
210 4 m 1
 183 11 l 1
 175 18 l 1
 172 23 l 1
 151 33 l 1
 148 31 l 1
 138 41 l 1
 121 53 l 1
 117 53 l 1
 115 58 l 1
 98 75 l 1
 86 89 l 1
 66 131 l 1
 66 139 l 1
 70 140 l 1
 59 163 l 1
 61 172 l 1
 62 163 l 1
 71 150 l 1
 74 167 l 1
 68 190 l 1
 61 239 l 1
 56 244 l 1
 54 265 l 1
 50 265 l 1
 48 302 l 1
 45 307 l 1
 45 336 l 1
 50 365 l 1
 47 388 l 1
 39 356 l 1
 39 341 l 1
 36 332 l 1
 30 330 l 1
 30 337 l 1
 33 361 l 1
 41 372 l 1
 42 384 l 1
 53 402 l 1
 56 410 l 1
 66 424 l 1
 71 433 l 1
 78 441 l 1
 83 452 l 1
 90 459 l 1
 96 463 l 1
 101 469 l 1
 104 470 l 1
 126 493 l 1
 158 513 l 1
 186 535 l 1
 187 527 l 1
 197 532 l 1
 200 537 l 1
 206 534 l 1
 213 534 l 1
 219 537 l 1
 231 531 l 1
 239 531 l 1
 242 534 l 1
 244 527 l 1
 248 527 l 1
 252 523 l 1
 264 522 l 1
 272 517 l 1
 283 514 l 1
 287 516 l 1
 288 513 l 1
 300 511 l 1
 309 507 l 1
 324 508 l 1
 327 506 l 1
 332 509 l 1
 347 507 l 1
 357 503 l 1
 368 492 l 1
 370 481 l 1
 376 477 l 1
 384 457 l 1
 390 454 l 1
 405 428 l 1
 410 425 l 1
 412 412 l 1
 408 410 l 1
 408 396 l 1
 403 392 l 1
 400 385 l 1
 386 367 l 1
 388 362 l 1
 392 361 l 1
 392 340 l 1
 395 337 l 1
 395 322 l 1
 392 317 l 1
 392 310 l 1
 397 306 l 1
 395 300 l 1
 389 297 l 1
 384 287 l 1
 378 280 l 1
 367 272 l 1
 337 265 l 1
 317 255 l 1
 264 249 l 1
 241 251 l 1
 223 247 l 1
 198 247 l 1
 190 249 l 1
 182 245 l 1
 179 240 l 1
 183 229 l 1
 190 223 l 1
 190 209 l 1
 195 198 l 1
 206 191 l 1
 208 186 l 1
 208 175 l 1
 214 165 l 1
 221 164 l 1
 229 152 l 1
 239 150 l 1
 243 145 l 1
 243 136 l 1
 233 136 l 1
 226 146 l 1
 221 143 l 1
 212 153 l 1
 209 169 l 1
 203 172 l 1
 195 171 l 1
 195 141 l 1
 192 135 l 1
 197 121 l 1
 199 108 l 1
 211 92 l 1
 229 79 l 1
 248 73 l 1
 260 73 l 1
 279 80 l 1
 296 93 l 1
 296 116 l 1
 292 128 l 1
 302 160 l 1
 303 172 l 1
 309 176 l 1
 309 169 l 1
 315 180 l 1
 320 186 l 1
 334 186 l 1
 348 180 l 1
 352 181 l 1
 357 186 l 1
 362 181 l 1
 368 184 l 1
 375 176 l 1
 378 177 l 1
 383 171 l 1
 379 155 l 1
 383 150 l 1
 383 146 l 1
 381 139 l 1
 377 139 l 1
 369 136 l 1
 369 123 l 1
 371 119 l 1
 371 109 l 1
 378 106 l 1
 382 109 l 1
 380 95 l 1
 376 103 l 1
 372 97 l 1
 365 97 l 1
 365 87 l 1
 359 82 l 1
 346 65 l 1
 337 60 l 1
 333 54 l 1
 328 53 l 1
 321 40 l 1
 313 37 l 1
 311 31 l 1
 303 31 l 1
 295 24 l 1
 292 16 l 1
 290 22 l 1
 283 14 l 1
 283 20 l 1
 277 16 l 1
 272 15 l 1
 271 8 l 1
 265 9 l 1
 263 12 l 1
 248 4 l 1
 244 6 l 1
 213 -3 l 1
 210 4 l 1
160 329 m 1
 164 325 l 1
 190 328 l 1
 201 334 l 1
 235 344 l 1
 240 347 l 1
 257 350 l 1
 310 354 l 1
 313 356 l 1
 313 360 l 1
 299 375 l 1
 278 393 l 1
 276 403 l 1
 271 404 l 1
 265 410 l 1
 262 421 l 1
 256 425 l 1
 248 422 l 1
 236 410 l 1
 227 407 l 1
 212 398 l 1
 204 390 l 1
 196 385 l 1
 176 358 l 1
 172 351 l 1
 169 341 l 1
 162 335 l 1
 160 329 l 1
54 200 m 1
 44 228 l 1
 38 262 l 1
 37 280 l 1
 34 283 l 1
 34 310 l 1
 30 322 l 1
 30 328 l 1
 33 326 l 1
 40 327 l 1
 37 319 l 1
 38 292 l 1
 46 238 l 1
 58 193 l 1
 58 177 l 1
 56 180 l 1
 54 200 l 1
307 194 m 1
 307 203 l 1
 314 203 l 1
 314 195 l 1
 311 191 l 1
 307 194 l 1
33 354 m 1
 35 337 l 1
 38 356 l 1
 33 354 l 1
185 209 m 1
 190 190 l 1
 193 196 l 1
 185 209 l 1
318 200 m 1
 318 208 l 1
 323 208 l 1
 323 200 l 1
 318 200 l 1
275 164 m 1
 275 171 l 1
 281 171 l 1
 281 166 l 1
 275 164 l 1
248 216 m 1
 248 221 l 1
 253 221 l 1
 253 214 l 1
 248 216 l 1
256 154 m 1
 260 154 l 1
 260 149 l 1
 256 149 l 1
 256 154 l 1
398 343 m 1
 400 350 l 1
 400 337 l 1
 398 343 l 1
343 242 m 1
 346 246 l 1
 346 242 l 1
 344 239 l 1
 343 242 l 1
391 168 m 1
 394 166 l 1
 391 164 l 1
 391 168 l 1
EndSplineSet
EndChar

